<mxfile host="65bd71144e">
    <diagram id="IUfKMAWIqZx4XWRd3JpP" name="Componenti-v3">
        <mxGraphModel dx="1421" dy="1879" grid="1" gridSize="10" guides="1" tooltips="1" connect="1" arrows="1" fold="1" page="1" pageScale="1" pageWidth="850" pageHeight="1100" math="0" shadow="0">
            <root>
                <mxCell id="0"/>
                <mxCell id="1" parent="0"/>
                <mxCell id="kI2b7whMPzCBoxuPQsY7-10" value="" style="edgeStyle=none;html=1;movable=0;resizable=0;rotatable=0;deletable=0;editable=0;locked=1;connectable=0;" parent="1" source="kI2b7whMPzCBoxuPQsY7-2" target="kI2b7whMPzCBoxuPQsY7-9" edge="1">
                    <mxGeometry relative="1" as="geometry"/>
                </mxCell>
                <mxCell id="kI2b7whMPzCBoxuPQsY7-14" value="" style="edgeStyle=none;html=1;movable=0;resizable=0;rotatable=0;deletable=0;editable=0;locked=1;connectable=0;" parent="1" source="kI2b7whMPzCBoxuPQsY7-2" target="kI2b7whMPzCBoxuPQsY7-13" edge="1">
                    <mxGeometry relative="1" as="geometry"/>
                </mxCell>
                <mxCell id="wwxKXK-8vTjjWP1EnCkf-6" value="" style="edgeStyle=none;html=1;movable=0;resizable=0;rotatable=0;deletable=0;editable=0;locked=1;connectable=0;" parent="1" source="kI2b7whMPzCBoxuPQsY7-2" target="wwxKXK-8vTjjWP1EnCkf-5" edge="1">
                    <mxGeometry relative="1" as="geometry"/>
                </mxCell>
                <mxCell id="kI2b7whMPzCBoxuPQsY7-2" value="Frontend" style="whiteSpace=wrap;html=1;movable=0;resizable=0;rotatable=0;deletable=0;editable=0;locked=1;connectable=0;" parent="1" vertex="1">
                    <mxGeometry x="250" y="150" width="120" height="60" as="geometry"/>
                </mxCell>
                <mxCell id="kI2b7whMPzCBoxuPQsY7-20" value="" style="edgeStyle=none;html=1;movable=0;resizable=0;rotatable=0;deletable=0;editable=0;locked=1;connectable=0;" parent="1" source="kI2b7whMPzCBoxuPQsY7-9" target="kI2b7whMPzCBoxuPQsY7-19" edge="1">
                    <mxGeometry relative="1" as="geometry"/>
                </mxCell>
                <mxCell id="wwxKXK-8vTjjWP1EnCkf-14" value="" style="edgeStyle=none;html=1;movable=0;resizable=0;rotatable=0;deletable=0;editable=0;locked=1;connectable=0;" parent="1" source="kI2b7whMPzCBoxuPQsY7-9" target="wwxKXK-8vTjjWP1EnCkf-13" edge="1">
                    <mxGeometry relative="1" as="geometry"/>
                </mxCell>
                <mxCell id="wwxKXK-8vTjjWP1EnCkf-17" value="" style="edgeStyle=none;html=1;shape=flexArrow;movable=0;resizable=0;rotatable=0;deletable=0;editable=0;locked=1;connectable=0;" parent="1" source="kI2b7whMPzCBoxuPQsY7-9" target="wwxKXK-8vTjjWP1EnCkf-16" edge="1">
                    <mxGeometry relative="1" as="geometry"/>
                </mxCell>
                <mxCell id="wwxKXK-8vTjjWP1EnCkf-19" value="" style="edgeStyle=none;html=1;shape=flexArrow;movable=0;resizable=0;rotatable=0;deletable=0;editable=0;locked=1;connectable=0;" parent="1" source="kI2b7whMPzCBoxuPQsY7-9" target="wwxKXK-8vTjjWP1EnCkf-18" edge="1">
                    <mxGeometry relative="1" as="geometry"/>
                </mxCell>
                <mxCell id="kI2b7whMPzCBoxuPQsY7-9" value="Home Page" style="whiteSpace=wrap;html=1;movable=0;resizable=0;rotatable=0;deletable=0;editable=0;locked=1;connectable=0;" parent="1" vertex="1">
                    <mxGeometry x="330" y="280" width="120" height="60" as="geometry"/>
                </mxCell>
                <mxCell id="kI2b7whMPzCBoxuPQsY7-16" value="" style="edgeStyle=none;html=1;movable=0;resizable=0;rotatable=0;deletable=0;editable=0;locked=1;connectable=0;" parent="1" source="kI2b7whMPzCBoxuPQsY7-13" target="kI2b7whMPzCBoxuPQsY7-15" edge="1">
                    <mxGeometry relative="1" as="geometry"/>
                </mxCell>
                <mxCell id="wwxKXK-8vTjjWP1EnCkf-15" style="edgeStyle=none;html=1;movable=0;resizable=0;rotatable=0;deletable=0;editable=0;locked=1;connectable=0;" parent="1" source="kI2b7whMPzCBoxuPQsY7-13" target="kI2b7whMPzCBoxuPQsY7-17" edge="1">
                    <mxGeometry relative="1" as="geometry"/>
                </mxCell>
                <mxCell id="kI2b7whMPzCBoxuPQsY7-13" value="LogIn page" style="whiteSpace=wrap;html=1;movable=0;resizable=0;rotatable=0;deletable=0;editable=0;locked=1;connectable=0;" parent="1" vertex="1">
                    <mxGeometry x="180" y="280" width="120" height="60" as="geometry"/>
                </mxCell>
                <mxCell id="kI2b7whMPzCBoxuPQsY7-15" value="Short Video" style="whiteSpace=wrap;html=1;movable=0;resizable=0;rotatable=0;deletable=0;editable=0;locked=1;connectable=0;" parent="1" vertex="1">
                    <mxGeometry x="180" y="420" width="120" height="60" as="geometry"/>
                </mxCell>
                <mxCell id="kI2b7whMPzCBoxuPQsY7-17" value="LogIn form" style="whiteSpace=wrap;html=1;movable=0;resizable=0;rotatable=0;deletable=0;editable=0;locked=1;connectable=0;" parent="1" vertex="1">
                    <mxGeometry x="30" y="420" width="120" height="60" as="geometry"/>
                </mxCell>
                <mxCell id="wwxKXK-8vTjjWP1EnCkf-8" value="" style="edgeStyle=none;html=1;movable=0;resizable=0;rotatable=0;deletable=0;editable=0;locked=1;connectable=0;" parent="1" source="wwxKXK-8vTjjWP1EnCkf-5" target="wwxKXK-8vTjjWP1EnCkf-7" edge="1">
                    <mxGeometry relative="1" as="geometry"/>
                </mxCell>
                <mxCell id="wwxKXK-8vTjjWP1EnCkf-23" value="" style="edgeStyle=none;html=1;movable=0;resizable=0;rotatable=0;deletable=0;editable=0;locked=1;connectable=0;" parent="1" source="wwxKXK-8vTjjWP1EnCkf-5" target="wwxKXK-8vTjjWP1EnCkf-22" edge="1">
                    <mxGeometry relative="1" as="geometry"/>
                </mxCell>
                <mxCell id="wwxKXK-8vTjjWP1EnCkf-28" value="" style="edgeStyle=none;html=1;movable=0;resizable=0;rotatable=0;deletable=0;editable=0;locked=1;connectable=0;" parent="1" source="wwxKXK-8vTjjWP1EnCkf-5" target="wwxKXK-8vTjjWP1EnCkf-25" edge="1">
                    <mxGeometry relative="1" as="geometry">
                        <mxPoint x="1190" y="180" as="targetPoint"/>
                    </mxGeometry>
                </mxCell>
                <mxCell id="wwxKXK-8vTjjWP1EnCkf-5" value="Backend" style="whiteSpace=wrap;html=1;movable=0;resizable=0;rotatable=0;deletable=0;editable=0;locked=1;connectable=0;" parent="1" vertex="1">
                    <mxGeometry x="990" y="150" width="120" height="60" as="geometry"/>
                </mxCell>
                <mxCell id="wwxKXK-8vTjjWP1EnCkf-10" value="" style="edgeStyle=none;html=1;shape=flexArrow;movable=0;resizable=0;rotatable=0;deletable=0;editable=0;locked=1;connectable=0;" parent="1" source="wwxKXK-8vTjjWP1EnCkf-7" target="wwxKXK-8vTjjWP1EnCkf-9" edge="1">
                    <mxGeometry relative="1" as="geometry"/>
                </mxCell>
                <mxCell id="wwxKXK-8vTjjWP1EnCkf-7" value="Api handler &amp;amp; data validator" style="whiteSpace=wrap;html=1;movable=0;resizable=0;rotatable=0;deletable=0;editable=0;locked=1;connectable=0;" parent="1" vertex="1">
                    <mxGeometry x="990" y="290" width="120" height="60" as="geometry"/>
                </mxCell>
                <mxCell id="wwxKXK-8vTjjWP1EnCkf-9" value="&lt;div&gt;&lt;span&gt;&lt;font style=&quot;color: light-dark(rgb(0, 0, 0), rgb(204, 255, 204));&quot;&gt;Added Details:&lt;/font&gt;&lt;/span&gt;&lt;/div&gt;&lt;font style=&quot;color: light-dark(rgb(0, 0, 0), rgb(255, 255, 255));&quot;&gt;Restful API will be used&lt;/font&gt;" style="whiteSpace=wrap;html=1;rounded=1;shadow=0;sketch=1;curveFitting=1;jiggle=2;strokeColor=light-dark(#000000,#FF99FF);movable=0;resizable=0;rotatable=0;deletable=0;editable=0;locked=1;connectable=0;" parent="1" vertex="1">
                    <mxGeometry x="1190" y="290" width="120" height="60" as="geometry"/>
                </mxCell>
                <mxCell id="wwxKXK-8vTjjWP1EnCkf-21" value="" style="edgeStyle=none;html=1;movable=0;resizable=0;rotatable=0;deletable=0;editable=0;locked=1;connectable=0;" parent="1" source="wwxKXK-8vTjjWP1EnCkf-13" target="wwxKXK-8vTjjWP1EnCkf-20" edge="1">
                    <mxGeometry relative="1" as="geometry"/>
                </mxCell>
                <mxCell id="wwxKXK-8vTjjWP1EnCkf-13" value="Drag-&amp;amp;-drop editing page" style="whiteSpace=wrap;html=1;movable=0;resizable=0;rotatable=0;deletable=0;editable=0;locked=1;connectable=0;" parent="1" vertex="1">
                    <mxGeometry x="330" y="540" width="120" height="60" as="geometry"/>
                </mxCell>
                <mxCell id="wwxKXK-8vTjjWP1EnCkf-16" value="&lt;font style=&quot;&quot;&gt;&lt;font style=&quot;color: light-dark(rgb(0, 0, 0), rgb(204, 255, 204));&quot;&gt;Added Details:&lt;/font&gt;&lt;br&gt;&lt;/font&gt;&lt;div style=&quot;text-align: left;&quot;&gt;&lt;font style=&quot;color: light-dark(rgb(0, 0, 0), rgb(255, 255, 255));&quot;&gt;The process is made into three stages:&lt;/font&gt;&lt;/div&gt;&lt;div style=&quot;text-align: left;&quot;&gt;&lt;font style=&quot;color: light-dark(rgb(0, 0, 0), rgb(255, 255, 255));&quot;&gt;1. The prompt phase where a first layout needs to be seleceted and then approved with modifications made only from by the model it self&lt;/font&gt;&lt;/div&gt;&lt;div style=&quot;text-align: left;&quot;&gt;&lt;font style=&quot;color: light-dark(rgb(0, 0, 0), rgb(255, 255, 255));&quot;&gt;2. In the second phase the there is no more the ai model but only the user where he can do drag and drop editting.&lt;/font&gt;&lt;/div&gt;&lt;div style=&quot;text-align: left;&quot;&gt;&lt;font style=&quot;color: light-dark(rgb(0, 0, 0), rgb(255, 255, 255));&quot;&gt;3. In the third and last phase the user approves and the landing page is hosted.&lt;/font&gt;&lt;/div&gt;" style="strokeColor=light-dark(#000000,#FF99FF);rounded=1;shadow=0;sketch=1;curveFitting=1;jiggle=2;verticalAlign=top;align=center;whiteSpace=wrap;html=1;spacingLeft=5;movable=0;resizable=0;rotatable=0;deletable=0;editable=0;locked=1;connectable=0;" parent="1" vertex="1">
                    <mxGeometry x="540" y="232.5" width="310" height="155" as="geometry"/>
                </mxCell>
                <mxCell id="kI2b7whMPzCBoxuPQsY7-19" value="Simple chatgpt style" style="whiteSpace=wrap;html=1;movable=0;resizable=0;rotatable=0;deletable=0;editable=0;locked=1;connectable=0;" parent="1" vertex="1">
                    <mxGeometry x="425" y="445" width="120" height="60" as="geometry"/>
                </mxCell>
                <mxCell id="wwxKXK-8vTjjWP1EnCkf-3" value="&lt;font style=&quot;color: light-dark(rgb(0, 0, 0), rgb(204, 255, 204));&quot;&gt;Added Details:&lt;/font&gt;&lt;div style=&quot;text-align: left;&quot;&gt;&lt;font style=&quot;color: light-dark(rgb(0, 0, 0), rgb(255, 255, 255));&quot;&gt;The information needed for the model to generate needs to be presented as an example but also become a follow up questions from the model it self:&lt;/font&gt;&lt;/div&gt;&lt;div style=&quot;text-align: left;&quot;&gt;&lt;font style=&quot;color: light-dark(rgb(0, 0, 0), rgb(255, 255, 255));&quot;&gt;1. The purpose of the landing page.&lt;/font&gt;&lt;/div&gt;&lt;div style=&quot;text-align: left;&quot;&gt;&lt;font style=&quot;color: light-dark(rgb(0, 0, 0), rgb(255, 255, 255));&quot;&gt;2. Some company photos and logo.&lt;/font&gt;&lt;/div&gt;&lt;div style=&quot;text-align: left;&quot;&gt;&lt;font style=&quot;color: light-dark(rgb(0, 0, 0), rgb(255, 255, 255));&quot;&gt;3. Company name.&lt;/font&gt;&lt;/div&gt;&lt;div style=&quot;text-align: left;&quot;&gt;&lt;font style=&quot;color: light-dark(rgb(0, 0, 0), rgb(255, 255, 255));&quot;&gt;4. Company colors.&lt;/font&gt;&lt;/div&gt;" style="whiteSpace=wrap;html=1;rounded=1;sketch=1;curveFitting=1;jiggle=2;shadow=0;strokeColor=light-dark(#000000,#FF99FF);align=center;verticalAlign=top;spacingLeft=5;movable=0;resizable=0;rotatable=0;deletable=0;editable=0;locked=1;connectable=0;" parent="1" vertex="1">
                    <mxGeometry x="585" y="410" width="340" height="130" as="geometry"/>
                </mxCell>
                <mxCell id="wwxKXK-8vTjjWP1EnCkf-4" value="" style="edgeStyle=none;html=1;shape=flexArrow;movable=0;resizable=0;rotatable=0;deletable=0;editable=0;locked=1;connectable=0;" parent="1" source="kI2b7whMPzCBoxuPQsY7-19" target="wwxKXK-8vTjjWP1EnCkf-3" edge="1">
                    <mxGeometry relative="1" as="geometry"/>
                </mxCell>
                <mxCell id="wwxKXK-8vTjjWP1EnCkf-18" value="&lt;font style=&quot;color: light-dark(rgb(0, 0, 0), rgb(255, 255, 255));&quot;&gt;Second Iteration:&lt;/font&gt;&lt;div&gt;&lt;font style=&quot;color: light-dark(rgb(0, 0, 0), rgb(255, 255, 255));&quot;&gt;The possibility to have multiple projects in the same time like gpt have&lt;/font&gt;&lt;/div&gt;" style="whiteSpace=wrap;html=1;strokeColor=light-dark(#000000,#FFCC99);fontColor=light-dark(#000000,#FFFFFF);movable=0;resizable=0;rotatable=0;deletable=0;editable=0;locked=1;connectable=0;" parent="1" vertex="1">
                    <mxGeometry x="490" y="80" width="160" height="90" as="geometry"/>
                </mxCell>
                <mxCell id="wwxKXK-8vTjjWP1EnCkf-20" value="Deploying and monitoring page" style="whiteSpace=wrap;html=1;movable=0;resizable=0;rotatable=0;deletable=0;editable=0;locked=1;connectable=0;" parent="1" vertex="1">
                    <mxGeometry x="330" y="680" width="120" height="60" as="geometry"/>
                </mxCell>
                <mxCell id="wwxKXK-8vTjjWP1EnCkf-26" value="" style="edgeStyle=none;html=1;movable=0;resizable=0;rotatable=0;deletable=0;editable=0;locked=1;connectable=0;" parent="1" source="wwxKXK-8vTjjWP1EnCkf-22" target="wwxKXK-8vTjjWP1EnCkf-25" edge="1">
                    <mxGeometry relative="1" as="geometry"/>
                </mxCell>
                <mxCell id="74" value="" style="edgeStyle=none;html=1;movable=0;resizable=0;rotatable=0;deletable=0;editable=0;locked=1;connectable=0;" parent="1" source="wwxKXK-8vTjjWP1EnCkf-22" target="73" edge="1">
                    <mxGeometry relative="1" as="geometry"/>
                </mxCell>
                <mxCell id="76" value="" style="edgeStyle=none;html=1;movable=0;resizable=0;rotatable=0;deletable=0;editable=0;locked=1;connectable=0;" parent="1" source="wwxKXK-8vTjjWP1EnCkf-22" target="75" edge="1">
                    <mxGeometry relative="1" as="geometry"/>
                </mxCell>
                <mxCell id="78" value="" style="edgeStyle=none;html=1;movable=0;resizable=0;rotatable=0;deletable=0;editable=0;locked=1;connectable=0;" parent="1" source="wwxKXK-8vTjjWP1EnCkf-22" target="77" edge="1">
                    <mxGeometry relative="1" as="geometry"/>
                </mxCell>
                <mxCell id="wwxKXK-8vTjjWP1EnCkf-22" value="AI/ML" style="whiteSpace=wrap;html=1;movable=0;resizable=0;rotatable=0;deletable=0;editable=0;locked=1;connectable=0;" parent="1" vertex="1">
                    <mxGeometry x="1180" y="50" width="120" height="60" as="geometry"/>
                </mxCell>
                <mxCell id="wwxKXK-8vTjjWP1EnCkf-25" value="DB" style="whiteSpace=wrap;html=1;movable=0;resizable=0;rotatable=0;deletable=0;editable=0;locked=1;connectable=0;" parent="1" vertex="1">
                    <mxGeometry x="1380" y="150" width="120" height="60" as="geometry"/>
                </mxCell>
                <mxCell id="73" value="Text generative AI" style="whiteSpace=wrap;html=1;movable=0;resizable=0;rotatable=0;deletable=0;editable=0;locked=1;connectable=0;" parent="1" vertex="1">
                    <mxGeometry x="1005.42" y="-100" width="120" height="60" as="geometry"/>
                </mxCell>
                <mxCell id="75" value="Imgaes/video generative AI" style="whiteSpace=wrap;html=1;movable=0;resizable=0;rotatable=0;deletable=0;editable=0;locked=1;connectable=0;" parent="1" vertex="1">
                    <mxGeometry x="1175.54" y="-100" width="120" height="60" as="geometry"/>
                </mxCell>
                <mxCell id="77" value="&lt;font style=&quot;color: light-dark(rgb(0, 0, 0), rgb(255, 255, 255));&quot;&gt;Page layout&lt;/font&gt;&lt;div&gt;&lt;font style=&quot;color: light-dark(rgb(0, 0, 0), rgb(255, 255, 255));&quot;&gt;Page organizer&lt;/font&gt;&lt;/div&gt;&lt;div&gt;&lt;font style=&quot;color: light-dark(rgb(0, 0, 0), rgb(255, 255, 255));&quot;&gt;Page validator&lt;/font&gt;&lt;/div&gt;&lt;div&gt;&lt;font style=&quot;color: light-dark(rgb(0, 0, 0), rgb(255, 255, 255));&quot;&gt;AI Model&lt;/font&gt;&lt;/div&gt;" style="whiteSpace=wrap;html=1;movable=0;resizable=0;rotatable=0;deletable=0;editable=0;locked=1;connectable=0;" parent="1" vertex="1">
                    <mxGeometry x="1337.45" y="-100" width="120" height="60" as="geometry"/>
                </mxCell>
            </root>
        </mxGraphModel>
    </diagram>
    <diagram id="W1UiR9MZVQ1hcOFkBY-c" name="SA/TS v2">
        <mxGraphModel dx="1421" dy="779" grid="1" gridSize="10" guides="1" tooltips="1" connect="1" arrows="1" fold="1" page="1" pageScale="1" pageWidth="850" pageHeight="1100" math="0" shadow="0">
            <root>
                <mxCell id="0"/>
                <mxCell id="1" parent="0"/>
                <mxCell id="rqh8FPeam6qXyBZh2qIe-3" value="" style="edgeStyle=none;html=1;movable=1;resizable=1;rotatable=1;deletable=1;editable=1;locked=0;connectable=1;" parent="1" source="rqh8FPeam6qXyBZh2qIe-1" target="rqh8FPeam6qXyBZh2qIe-2" edge="1">
                    <mxGeometry relative="1" as="geometry"/>
                </mxCell>
                <mxCell id="bFZaksB7pRi1cqEIAUrG-2" value="" style="edgeStyle=none;html=1;movable=1;resizable=1;rotatable=1;deletable=1;editable=1;locked=0;connectable=1;" parent="1" source="rqh8FPeam6qXyBZh2qIe-1" target="bFZaksB7pRi1cqEIAUrG-1" edge="1">
                    <mxGeometry relative="1" as="geometry"/>
                </mxCell>
                <mxCell id="rqh8FPeam6qXyBZh2qIe-1" value="Frontend" style="whiteSpace=wrap;html=1;movable=1;resizable=1;rotatable=1;deletable=1;editable=1;locked=0;connectable=1;" parent="1" vertex="1">
                    <mxGeometry x="270" y="410" width="120" height="60" as="geometry"/>
                </mxCell>
                <mxCell id="rqh8FPeam6qXyBZh2qIe-5" value="" style="edgeStyle=none;html=1;movable=1;resizable=1;rotatable=1;deletable=1;editable=1;locked=0;connectable=1;" parent="1" source="rqh8FPeam6qXyBZh2qIe-2" target="rqh8FPeam6qXyBZh2qIe-4" edge="1">
                    <mxGeometry relative="1" as="geometry"/>
                </mxCell>
                <mxCell id="rqh8FPeam6qXyBZh2qIe-7" value="" style="edgeStyle=none;html=1;movable=1;resizable=1;rotatable=1;deletable=1;editable=1;locked=0;connectable=1;" parent="1" source="rqh8FPeam6qXyBZh2qIe-2" target="rqh8FPeam6qXyBZh2qIe-6" edge="1">
                    <mxGeometry relative="1" as="geometry"/>
                </mxCell>
                <mxCell id="rqh8FPeam6qXyBZh2qIe-9" value="" style="edgeStyle=none;html=1;movable=1;resizable=1;rotatable=1;deletable=1;editable=1;locked=0;connectable=1;" parent="1" source="rqh8FPeam6qXyBZh2qIe-2" target="rqh8FPeam6qXyBZh2qIe-8" edge="1">
                    <mxGeometry relative="1" as="geometry"/>
                </mxCell>
                <mxCell id="rqh8FPeam6qXyBZh2qIe-2" value="React" style="whiteSpace=wrap;html=1;movable=1;resizable=1;rotatable=1;deletable=1;editable=1;locked=0;connectable=1;" parent="1" vertex="1">
                    <mxGeometry x="270" y="550" width="120" height="60" as="geometry"/>
                </mxCell>
                <mxCell id="rqh8FPeam6qXyBZh2qIe-4" value="Form Input" style="whiteSpace=wrap;html=1;movable=1;resizable=1;rotatable=1;deletable=1;editable=1;locked=0;connectable=1;" parent="1" vertex="1">
                    <mxGeometry x="130" y="690" width="120" height="60" as="geometry"/>
                </mxCell>
                <mxCell id="rqh8FPeam6qXyBZh2qIe-6" value="Drag-and-drop adjustments" style="whiteSpace=wrap;html=1;movable=1;resizable=1;rotatable=1;deletable=1;editable=1;locked=0;connectable=1;" parent="1" vertex="1">
                    <mxGeometry x="420" y="690" width="120" height="60" as="geometry"/>
                </mxCell>
                <mxCell id="rqh8FPeam6qXyBZh2qIe-8" value="Real-time preview" style="whiteSpace=wrap;html=1;movable=1;resizable=1;rotatable=1;deletable=1;editable=1;locked=0;connectable=1;" parent="1" vertex="1">
                    <mxGeometry x="270" y="690" width="120" height="60" as="geometry"/>
                </mxCell>
                <mxCell id="0X9_eVq9guO_DOIcLvGA-2" value="" style="edgeStyle=none;html=1;movable=1;resizable=1;rotatable=1;deletable=1;editable=1;locked=0;connectable=1;" parent="1" source="bFZaksB7pRi1cqEIAUrG-1" target="0X9_eVq9guO_DOIcLvGA-1" edge="1">
                    <mxGeometry relative="1" as="geometry"/>
                </mxCell>
                <mxCell id="0X9_eVq9guO_DOIcLvGA-7" value="" style="edgeStyle=none;html=1;movable=1;resizable=1;rotatable=1;deletable=1;editable=1;locked=0;connectable=1;" parent="1" source="bFZaksB7pRi1cqEIAUrG-1" target="0X9_eVq9guO_DOIcLvGA-6" edge="1">
                    <mxGeometry relative="1" as="geometry"/>
                </mxCell>
                <mxCell id="0X9_eVq9guO_DOIcLvGA-16" value="" style="edgeStyle=none;html=1;movable=1;resizable=1;rotatable=1;deletable=1;editable=1;locked=0;connectable=1;" parent="1" source="bFZaksB7pRi1cqEIAUrG-1" target="0X9_eVq9guO_DOIcLvGA-15" edge="1">
                    <mxGeometry relative="1" as="geometry"/>
                </mxCell>
                <mxCell id="bFZaksB7pRi1cqEIAUrG-1" value="Backend" style="whiteSpace=wrap;html=1;movable=1;resizable=1;rotatable=1;deletable=1;editable=1;locked=0;connectable=1;" parent="1" vertex="1">
                    <mxGeometry x="731" y="410" width="120" height="60" as="geometry"/>
                </mxCell>
                <mxCell id="0X9_eVq9guO_DOIcLvGA-5" value="" style="edgeStyle=none;html=1;movable=1;resizable=1;rotatable=1;deletable=1;editable=1;locked=0;connectable=1;" parent="1" source="0X9_eVq9guO_DOIcLvGA-1" target="0X9_eVq9guO_DOIcLvGA-4" edge="1">
                    <mxGeometry relative="1" as="geometry"/>
                </mxCell>
                <mxCell id="0X9_eVq9guO_DOIcLvGA-1" value="API Layer =&amp;gt; Laravel/lumen" style="whiteSpace=wrap;html=1;movable=1;resizable=1;rotatable=1;deletable=1;editable=1;locked=0;connectable=1;" parent="1" vertex="1">
                    <mxGeometry x="601" y="550" width="120" height="60" as="geometry"/>
                </mxCell>
                <mxCell id="0X9_eVq9guO_DOIcLvGA-4" value="handle user inputs and AI model interactions" style="whiteSpace=wrap;html=1;movable=1;resizable=1;rotatable=1;deletable=1;editable=1;locked=0;connectable=1;" parent="1" vertex="1">
                    <mxGeometry x="601" y="690" width="120" height="60" as="geometry"/>
                </mxCell>
                <mxCell id="0X9_eVq9guO_DOIcLvGA-9" value="" style="edgeStyle=none;html=1;movable=1;resizable=1;rotatable=1;deletable=1;editable=1;locked=0;connectable=1;" parent="1" source="0X9_eVq9guO_DOIcLvGA-6" target="0X9_eVq9guO_DOIcLvGA-8" edge="1">
                    <mxGeometry relative="1" as="geometry"/>
                </mxCell>
                <mxCell id="0X9_eVq9guO_DOIcLvGA-11" value="" style="edgeStyle=none;html=1;movable=1;resizable=1;rotatable=1;deletable=1;editable=1;locked=0;connectable=1;" parent="1" source="0X9_eVq9guO_DOIcLvGA-6" target="0X9_eVq9guO_DOIcLvGA-10" edge="1">
                    <mxGeometry relative="1" as="geometry"/>
                </mxCell>
                <mxCell id="0X9_eVq9guO_DOIcLvGA-13" value="" style="edgeStyle=none;html=1;movable=1;resizable=1;rotatable=1;deletable=1;editable=1;locked=0;connectable=1;" parent="1" source="0X9_eVq9guO_DOIcLvGA-6" target="0X9_eVq9guO_DOIcLvGA-12" edge="1">
                    <mxGeometry relative="1" as="geometry"/>
                </mxCell>
                <mxCell id="0X9_eVq9guO_DOIcLvGA-6" value="Database / postgress" style="whiteSpace=wrap;html=1;movable=1;resizable=1;rotatable=1;deletable=1;editable=1;locked=0;connectable=1;" parent="1" vertex="1">
                    <mxGeometry x="810" y="550" width="120" height="60" as="geometry"/>
                </mxCell>
                <mxCell id="0X9_eVq9guO_DOIcLvGA-8" value="Store user data" style="whiteSpace=wrap;html=1;movable=1;resizable=1;rotatable=1;deletable=1;editable=1;locked=0;connectable=1;" parent="1" vertex="1">
                    <mxGeometry x="1010" y="610" width="120" height="60" as="geometry"/>
                </mxCell>
                <mxCell id="0X9_eVq9guO_DOIcLvGA-10" value="templates" style="whiteSpace=wrap;html=1;movable=1;resizable=1;rotatable=1;deletable=1;editable=1;locked=0;connectable=1;" parent="1" vertex="1">
                    <mxGeometry x="920" y="710" width="120" height="60" as="geometry"/>
                </mxCell>
                <mxCell id="0X9_eVq9guO_DOIcLvGA-12" value="analytics" style="whiteSpace=wrap;html=1;movable=1;resizable=1;rotatable=1;deletable=1;editable=1;locked=0;connectable=1;" parent="1" vertex="1">
                    <mxGeometry x="790" y="690" width="120" height="60" as="geometry"/>
                </mxCell>
                <mxCell id="0X9_eVq9guO_DOIcLvGA-18" value="" style="edgeStyle=none;html=1;movable=1;resizable=1;rotatable=1;deletable=1;editable=1;locked=0;connectable=1;" parent="1" source="0X9_eVq9guO_DOIcLvGA-15" target="0X9_eVq9guO_DOIcLvGA-17" edge="1">
                    <mxGeometry relative="1" as="geometry"/>
                </mxCell>
                <mxCell id="0X9_eVq9guO_DOIcLvGA-22" value="" style="edgeStyle=none;html=1;movable=1;resizable=1;rotatable=1;deletable=1;editable=1;locked=0;connectable=1;" parent="1" source="0X9_eVq9guO_DOIcLvGA-15" target="0X9_eVq9guO_DOIcLvGA-21" edge="1">
                    <mxGeometry relative="1" as="geometry"/>
                </mxCell>
                <mxCell id="0X9_eVq9guO_DOIcLvGA-24" value="" style="edgeStyle=none;html=1;movable=1;resizable=1;rotatable=1;deletable=1;editable=1;locked=0;connectable=1;" parent="1" source="0X9_eVq9guO_DOIcLvGA-15" target="0X9_eVq9guO_DOIcLvGA-23" edge="1">
                    <mxGeometry relative="1" as="geometry"/>
                </mxCell>
                <mxCell id="0X9_eVq9guO_DOIcLvGA-26" value="" style="edgeStyle=none;html=1;movable=1;resizable=1;rotatable=1;deletable=1;editable=1;locked=0;connectable=1;" parent="1" source="0X9_eVq9guO_DOIcLvGA-15" target="0X9_eVq9guO_DOIcLvGA-25" edge="1">
                    <mxGeometry relative="1" as="geometry"/>
                </mxCell>
                <mxCell id="B6i2Ff4XlMbRTSDcOQQT-1" value="" style="edgeStyle=none;html=1;movable=1;resizable=1;rotatable=1;deletable=1;editable=1;locked=0;connectable=1;" parent="1" source="0X9_eVq9guO_DOIcLvGA-15" target="0X9_eVq9guO_DOIcLvGA-23" edge="1">
                    <mxGeometry relative="1" as="geometry"/>
                </mxCell>
                <mxCell id="B6i2Ff4XlMbRTSDcOQQT-3" value="" style="edgeStyle=none;html=1;movable=1;resizable=1;rotatable=1;deletable=1;editable=1;locked=0;connectable=1;" parent="1" source="0X9_eVq9guO_DOIcLvGA-15" target="B6i2Ff4XlMbRTSDcOQQT-2" edge="1">
                    <mxGeometry relative="1" as="geometry"/>
                </mxCell>
                <mxCell id="0X9_eVq9guO_DOIcLvGA-15" value="AI/ML Layer" style="whiteSpace=wrap;html=1;movable=1;resizable=1;rotatable=1;deletable=1;editable=1;locked=0;connectable=1;" parent="1" vertex="1">
                    <mxGeometry x="1275" y="410" width="120" height="60" as="geometry"/>
                </mxCell>
                <mxCell id="0X9_eVq9guO_DOIcLvGA-17" value="&lt;font style=&quot;color: light-dark(rgb(0, 0, 0), rgb(255, 255, 255));&quot;&gt;&lt;font style=&quot;&quot;&gt;Pre-trained models for text generation (GPT 4&amp;nbsp;&lt;/font&gt;for free options:&amp;nbsp;Llama 2)&lt;/font&gt;" style="whiteSpace=wrap;html=1;strokeColor=light-dark(#000000,#FFFFFF);fontColor=light-dark(#000000,#FFFFFF);movable=1;resizable=1;rotatable=1;deletable=1;editable=1;locked=0;connectable=1;" parent="1" vertex="1">
                    <mxGeometry x="1450" y="520" width="170" height="80" as="geometry"/>
                </mxCell>
                <mxCell id="0X9_eVq9guO_DOIcLvGA-21" value="Computer vision models for image selection/generation" style="whiteSpace=wrap;html=1;movable=1;resizable=1;rotatable=1;deletable=1;editable=1;locked=0;connectable=1;" parent="1" vertex="1">
                    <mxGeometry x="1420" y="620" width="120" height="60" as="geometry"/>
                </mxCell>
                <mxCell id="0X9_eVq9guO_DOIcLvGA-23" value="Optimization algorithms for A/B testing" style="whiteSpace=wrap;html=1;movable=1;resizable=1;rotatable=1;deletable=1;editable=1;locked=0;connectable=1;" parent="1" vertex="1">
                    <mxGeometry x="1170" y="530" width="120" height="60" as="geometry"/>
                </mxCell>
                <mxCell id="0X9_eVq9guO_DOIcLvGA-28" value="" style="edgeStyle=none;html=1;movable=1;resizable=1;rotatable=1;deletable=1;editable=1;locked=0;connectable=1;" parent="1" source="0X9_eVq9guO_DOIcLvGA-25" target="0X9_eVq9guO_DOIcLvGA-27" edge="1">
                    <mxGeometry relative="1" as="geometry"/>
                </mxCell>
                <mxCell id="0X9_eVq9guO_DOIcLvGA-25" value="Third-Party Integrations" style="whiteSpace=wrap;html=1;movable=1;resizable=1;rotatable=1;deletable=1;editable=1;locked=0;connectable=1;" parent="1" vertex="1">
                    <mxGeometry x="1720" y="410" width="120" height="60" as="geometry"/>
                </mxCell>
                <mxCell id="0X9_eVq9guO_DOIcLvGA-27" value="APIs for analytics (Google Analytics), payment gateways, or email marketing tools" style="whiteSpace=wrap;html=1;movable=1;resizable=1;rotatable=1;deletable=1;editable=1;locked=0;connectable=1;" parent="1" vertex="1">
                    <mxGeometry x="1685" y="540" width="190" height="110" as="geometry"/>
                </mxCell>
                <mxCell id="B6i2Ff4XlMbRTSDcOQQT-2" value="AI/ML Model that will create the the landing page and iserting the differenet components&amp;nbsp;" style="whiteSpace=wrap;html=1;movable=1;resizable=1;rotatable=1;deletable=1;editable=1;locked=0;connectable=1;" parent="1" vertex="1">
                    <mxGeometry x="1210" y="620" width="185" height="100" as="geometry"/>
                </mxCell>
            </root>
        </mxGraphModel>
    </diagram>
    <diagram name="SA/TS" id="5BMk_Av4J5vOuEOsvylK">
        <mxGraphModel dx="1421" dy="779" grid="1" gridSize="10" guides="1" tooltips="1" connect="1" arrows="1" fold="1" page="1" pageScale="1" pageWidth="850" pageHeight="1100" math="0" shadow="0">
            <root>
                <mxCell id="qSoEEpiIqTrCjML3QrT1-0"/>
                <mxCell id="qSoEEpiIqTrCjML3QrT1-1" parent="qSoEEpiIqTrCjML3QrT1-0"/>
                <mxCell id="qSoEEpiIqTrCjML3QrT1-2" value="" style="edgeStyle=none;html=1;movable=0;resizable=0;rotatable=0;deletable=0;editable=0;locked=1;connectable=0;" parent="qSoEEpiIqTrCjML3QrT1-1" source="qSoEEpiIqTrCjML3QrT1-4" target="qSoEEpiIqTrCjML3QrT1-8" edge="1">
                    <mxGeometry relative="1" as="geometry"/>
                </mxCell>
                <mxCell id="qSoEEpiIqTrCjML3QrT1-3" value="" style="edgeStyle=none;html=1;movable=0;resizable=0;rotatable=0;deletable=0;editable=0;locked=1;connectable=0;" parent="qSoEEpiIqTrCjML3QrT1-1" source="qSoEEpiIqTrCjML3QrT1-4" target="qSoEEpiIqTrCjML3QrT1-15" edge="1">
                    <mxGeometry relative="1" as="geometry"/>
                </mxCell>
                <mxCell id="qSoEEpiIqTrCjML3QrT1-4" value="Frontend" style="whiteSpace=wrap;html=1;movable=0;resizable=0;rotatable=0;deletable=0;editable=0;locked=1;connectable=0;" parent="qSoEEpiIqTrCjML3QrT1-1" vertex="1">
                    <mxGeometry x="270" y="410" width="120" height="60" as="geometry"/>
                </mxCell>
                <mxCell id="qSoEEpiIqTrCjML3QrT1-5" value="" style="edgeStyle=none;html=1;movable=0;resizable=0;rotatable=0;deletable=0;editable=0;locked=1;connectable=0;" parent="qSoEEpiIqTrCjML3QrT1-1" source="qSoEEpiIqTrCjML3QrT1-8" target="qSoEEpiIqTrCjML3QrT1-9" edge="1">
                    <mxGeometry relative="1" as="geometry"/>
                </mxCell>
                <mxCell id="qSoEEpiIqTrCjML3QrT1-6" value="" style="edgeStyle=none;html=1;movable=0;resizable=0;rotatable=0;deletable=0;editable=0;locked=1;connectable=0;" parent="qSoEEpiIqTrCjML3QrT1-1" source="qSoEEpiIqTrCjML3QrT1-8" target="qSoEEpiIqTrCjML3QrT1-10" edge="1">
                    <mxGeometry relative="1" as="geometry"/>
                </mxCell>
                <mxCell id="qSoEEpiIqTrCjML3QrT1-7" value="" style="edgeStyle=none;html=1;movable=0;resizable=0;rotatable=0;deletable=0;editable=0;locked=1;connectable=0;" parent="qSoEEpiIqTrCjML3QrT1-1" source="qSoEEpiIqTrCjML3QrT1-8" target="qSoEEpiIqTrCjML3QrT1-11" edge="1">
                    <mxGeometry relative="1" as="geometry"/>
                </mxCell>
                <mxCell id="qSoEEpiIqTrCjML3QrT1-8" value="React" style="whiteSpace=wrap;html=1;movable=0;resizable=0;rotatable=0;deletable=0;editable=0;locked=1;connectable=0;" parent="qSoEEpiIqTrCjML3QrT1-1" vertex="1">
                    <mxGeometry x="270" y="550" width="120" height="60" as="geometry"/>
                </mxCell>
                <mxCell id="qSoEEpiIqTrCjML3QrT1-9" value="Form Input" style="whiteSpace=wrap;html=1;movable=0;resizable=0;rotatable=0;deletable=0;editable=0;locked=1;connectable=0;" parent="qSoEEpiIqTrCjML3QrT1-1" vertex="1">
                    <mxGeometry x="130" y="690" width="120" height="60" as="geometry"/>
                </mxCell>
                <mxCell id="qSoEEpiIqTrCjML3QrT1-10" value="Drag-and-drop adjustments" style="whiteSpace=wrap;html=1;movable=0;resizable=0;rotatable=0;deletable=0;editable=0;locked=1;connectable=0;" parent="qSoEEpiIqTrCjML3QrT1-1" vertex="1">
                    <mxGeometry x="420" y="690" width="120" height="60" as="geometry"/>
                </mxCell>
                <mxCell id="qSoEEpiIqTrCjML3QrT1-11" value="Real-time preview" style="whiteSpace=wrap;html=1;movable=0;resizable=0;rotatable=0;deletable=0;editable=0;locked=1;connectable=0;" parent="qSoEEpiIqTrCjML3QrT1-1" vertex="1">
                    <mxGeometry x="270" y="690" width="120" height="60" as="geometry"/>
                </mxCell>
                <mxCell id="qSoEEpiIqTrCjML3QrT1-12" value="" style="edgeStyle=none;html=1;movable=0;resizable=0;rotatable=0;deletable=0;editable=0;locked=1;connectable=0;" parent="qSoEEpiIqTrCjML3QrT1-1" source="qSoEEpiIqTrCjML3QrT1-15" target="qSoEEpiIqTrCjML3QrT1-17" edge="1">
                    <mxGeometry relative="1" as="geometry"/>
                </mxCell>
                <mxCell id="qSoEEpiIqTrCjML3QrT1-13" value="" style="edgeStyle=none;html=1;movable=0;resizable=0;rotatable=0;deletable=0;editable=0;locked=1;connectable=0;" parent="qSoEEpiIqTrCjML3QrT1-1" source="qSoEEpiIqTrCjML3QrT1-15" target="qSoEEpiIqTrCjML3QrT1-22" edge="1">
                    <mxGeometry relative="1" as="geometry"/>
                </mxCell>
                <mxCell id="qSoEEpiIqTrCjML3QrT1-14" value="" style="edgeStyle=none;html=1;movable=0;resizable=0;rotatable=0;deletable=0;editable=0;locked=1;connectable=0;" parent="qSoEEpiIqTrCjML3QrT1-1" source="qSoEEpiIqTrCjML3QrT1-15" target="qSoEEpiIqTrCjML3QrT1-32" edge="1">
                    <mxGeometry relative="1" as="geometry"/>
                </mxCell>
                <mxCell id="qSoEEpiIqTrCjML3QrT1-15" value="Backend" style="whiteSpace=wrap;html=1;movable=0;resizable=0;rotatable=0;deletable=0;editable=0;locked=1;connectable=0;" parent="qSoEEpiIqTrCjML3QrT1-1" vertex="1">
                    <mxGeometry x="731" y="410" width="120" height="60" as="geometry"/>
                </mxCell>
                <mxCell id="qSoEEpiIqTrCjML3QrT1-16" value="" style="edgeStyle=none;html=1;movable=0;resizable=0;rotatable=0;deletable=0;editable=0;locked=1;connectable=0;" parent="qSoEEpiIqTrCjML3QrT1-1" source="qSoEEpiIqTrCjML3QrT1-17" target="qSoEEpiIqTrCjML3QrT1-18" edge="1">
                    <mxGeometry relative="1" as="geometry"/>
                </mxCell>
                <mxCell id="qSoEEpiIqTrCjML3QrT1-17" value="API Layer =&amp;gt; Laravel/lumen" style="whiteSpace=wrap;html=1;movable=0;resizable=0;rotatable=0;deletable=0;editable=0;locked=1;connectable=0;" parent="qSoEEpiIqTrCjML3QrT1-1" vertex="1">
                    <mxGeometry x="601" y="550" width="120" height="60" as="geometry"/>
                </mxCell>
                <mxCell id="qSoEEpiIqTrCjML3QrT1-18" value="handle user inputs and AI model interactions" style="whiteSpace=wrap;html=1;movable=0;resizable=0;rotatable=0;deletable=0;editable=0;locked=1;connectable=0;" parent="qSoEEpiIqTrCjML3QrT1-1" vertex="1">
                    <mxGeometry x="601" y="690" width="120" height="60" as="geometry"/>
                </mxCell>
                <mxCell id="qSoEEpiIqTrCjML3QrT1-19" value="" style="edgeStyle=none;html=1;movable=0;resizable=0;rotatable=0;deletable=0;editable=0;locked=1;connectable=0;" parent="qSoEEpiIqTrCjML3QrT1-1" source="qSoEEpiIqTrCjML3QrT1-22" target="qSoEEpiIqTrCjML3QrT1-23" edge="1">
                    <mxGeometry relative="1" as="geometry"/>
                </mxCell>
                <mxCell id="qSoEEpiIqTrCjML3QrT1-20" value="" style="edgeStyle=none;html=1;movable=0;resizable=0;rotatable=0;deletable=0;editable=0;locked=1;connectable=0;" parent="qSoEEpiIqTrCjML3QrT1-1" source="qSoEEpiIqTrCjML3QrT1-22" target="qSoEEpiIqTrCjML3QrT1-24" edge="1">
                    <mxGeometry relative="1" as="geometry"/>
                </mxCell>
                <mxCell id="qSoEEpiIqTrCjML3QrT1-21" value="" style="edgeStyle=none;html=1;movable=0;resizable=0;rotatable=0;deletable=0;editable=0;locked=1;connectable=0;" parent="qSoEEpiIqTrCjML3QrT1-1" source="qSoEEpiIqTrCjML3QrT1-22" target="qSoEEpiIqTrCjML3QrT1-25" edge="1">
                    <mxGeometry relative="1" as="geometry"/>
                </mxCell>
                <mxCell id="qSoEEpiIqTrCjML3QrT1-22" value="Database / postgress" style="whiteSpace=wrap;html=1;movable=0;resizable=0;rotatable=0;deletable=0;editable=0;locked=1;connectable=0;" parent="qSoEEpiIqTrCjML3QrT1-1" vertex="1">
                    <mxGeometry x="810" y="550" width="120" height="60" as="geometry"/>
                </mxCell>
                <mxCell id="qSoEEpiIqTrCjML3QrT1-23" value="Store user data" style="whiteSpace=wrap;html=1;movable=0;resizable=0;rotatable=0;deletable=0;editable=0;locked=1;connectable=0;" parent="qSoEEpiIqTrCjML3QrT1-1" vertex="1">
                    <mxGeometry x="1010" y="610" width="120" height="60" as="geometry"/>
                </mxCell>
                <mxCell id="qSoEEpiIqTrCjML3QrT1-24" value="templates" style="whiteSpace=wrap;html=1;movable=0;resizable=0;rotatable=0;deletable=0;editable=0;locked=1;connectable=0;" parent="qSoEEpiIqTrCjML3QrT1-1" vertex="1">
                    <mxGeometry x="920" y="710" width="120" height="60" as="geometry"/>
                </mxCell>
                <mxCell id="qSoEEpiIqTrCjML3QrT1-25" value="analytics" style="whiteSpace=wrap;html=1;movable=0;resizable=0;rotatable=0;deletable=0;editable=0;locked=1;connectable=0;" parent="qSoEEpiIqTrCjML3QrT1-1" vertex="1">
                    <mxGeometry x="790" y="690" width="120" height="60" as="geometry"/>
                </mxCell>
                <mxCell id="qSoEEpiIqTrCjML3QrT1-26" value="" style="edgeStyle=none;html=1;movable=0;resizable=0;rotatable=0;deletable=0;editable=0;locked=1;connectable=0;" parent="qSoEEpiIqTrCjML3QrT1-1" source="qSoEEpiIqTrCjML3QrT1-32" target="qSoEEpiIqTrCjML3QrT1-33" edge="1">
                    <mxGeometry relative="1" as="geometry"/>
                </mxCell>
                <mxCell id="qSoEEpiIqTrCjML3QrT1-27" value="" style="edgeStyle=none;html=1;movable=0;resizable=0;rotatable=0;deletable=0;editable=0;locked=1;connectable=0;" parent="qSoEEpiIqTrCjML3QrT1-1" source="qSoEEpiIqTrCjML3QrT1-32" target="qSoEEpiIqTrCjML3QrT1-34" edge="1">
                    <mxGeometry relative="1" as="geometry"/>
                </mxCell>
                <mxCell id="qSoEEpiIqTrCjML3QrT1-28" value="" style="edgeStyle=none;html=1;movable=0;resizable=0;rotatable=0;deletable=0;editable=0;locked=1;connectable=0;" parent="qSoEEpiIqTrCjML3QrT1-1" source="qSoEEpiIqTrCjML3QrT1-32" target="qSoEEpiIqTrCjML3QrT1-35" edge="1">
                    <mxGeometry relative="1" as="geometry"/>
                </mxCell>
                <mxCell id="qSoEEpiIqTrCjML3QrT1-29" value="" style="edgeStyle=none;html=1;movable=0;resizable=0;rotatable=0;deletable=0;editable=0;locked=1;connectable=0;" parent="qSoEEpiIqTrCjML3QrT1-1" source="qSoEEpiIqTrCjML3QrT1-32" target="qSoEEpiIqTrCjML3QrT1-37" edge="1">
                    <mxGeometry relative="1" as="geometry"/>
                </mxCell>
                <mxCell id="qSoEEpiIqTrCjML3QrT1-30" value="" style="edgeStyle=none;html=1;movable=0;resizable=0;rotatable=0;deletable=0;editable=0;locked=1;connectable=0;" parent="qSoEEpiIqTrCjML3QrT1-1" source="qSoEEpiIqTrCjML3QrT1-32" target="qSoEEpiIqTrCjML3QrT1-35" edge="1">
                    <mxGeometry relative="1" as="geometry"/>
                </mxCell>
                <mxCell id="qSoEEpiIqTrCjML3QrT1-31" value="" style="edgeStyle=none;html=1;movable=0;resizable=0;rotatable=0;deletable=0;editable=0;locked=1;connectable=0;" parent="qSoEEpiIqTrCjML3QrT1-1" source="qSoEEpiIqTrCjML3QrT1-32" target="qSoEEpiIqTrCjML3QrT1-39" edge="1">
                    <mxGeometry relative="1" as="geometry"/>
                </mxCell>
                <mxCell id="qSoEEpiIqTrCjML3QrT1-32" value="AI/ML Layer" style="whiteSpace=wrap;html=1;movable=0;resizable=0;rotatable=0;deletable=0;editable=0;locked=1;connectable=0;" parent="qSoEEpiIqTrCjML3QrT1-1" vertex="1">
                    <mxGeometry x="1275" y="410" width="120" height="60" as="geometry"/>
                </mxCell>
                <mxCell id="qSoEEpiIqTrCjML3QrT1-33" value="&lt;font style=&quot;color: light-dark(rgb(0, 0, 0), rgb(255, 255, 255));&quot;&gt;&lt;font style=&quot;&quot;&gt;Pre-trained models for text generation (GPT 4&amp;nbsp;&lt;/font&gt;for free options:&amp;nbsp;Llama 2)&lt;/font&gt;" style="whiteSpace=wrap;html=1;strokeColor=light-dark(#000000,#FFFFFF);fontColor=light-dark(#000000,#FFFFFF);movable=0;resizable=0;rotatable=0;deletable=0;editable=0;locked=1;connectable=0;" parent="qSoEEpiIqTrCjML3QrT1-1" vertex="1">
                    <mxGeometry x="1450" y="520" width="170" height="80" as="geometry"/>
                </mxCell>
                <mxCell id="qSoEEpiIqTrCjML3QrT1-34" value="Computer vision models for image selection/generation" style="whiteSpace=wrap;html=1;movable=0;resizable=0;rotatable=0;deletable=0;editable=0;locked=1;connectable=0;" parent="qSoEEpiIqTrCjML3QrT1-1" vertex="1">
                    <mxGeometry x="1420" y="620" width="120" height="60" as="geometry"/>
                </mxCell>
                <mxCell id="qSoEEpiIqTrCjML3QrT1-35" value="Optimization algorithms for A/B testing" style="whiteSpace=wrap;html=1;movable=0;resizable=0;rotatable=0;deletable=0;editable=0;locked=1;connectable=0;" parent="qSoEEpiIqTrCjML3QrT1-1" vertex="1">
                    <mxGeometry x="1170" y="530" width="120" height="60" as="geometry"/>
                </mxCell>
                <mxCell id="qSoEEpiIqTrCjML3QrT1-36" value="" style="edgeStyle=none;html=1;movable=0;resizable=0;rotatable=0;deletable=0;editable=0;locked=1;connectable=0;" parent="qSoEEpiIqTrCjML3QrT1-1" source="qSoEEpiIqTrCjML3QrT1-37" target="qSoEEpiIqTrCjML3QrT1-38" edge="1">
                    <mxGeometry relative="1" as="geometry"/>
                </mxCell>
                <mxCell id="qSoEEpiIqTrCjML3QrT1-37" value="Third-Party Integrations" style="whiteSpace=wrap;html=1;movable=0;resizable=0;rotatable=0;deletable=0;editable=0;locked=1;connectable=0;" parent="qSoEEpiIqTrCjML3QrT1-1" vertex="1">
                    <mxGeometry x="1720" y="410" width="120" height="60" as="geometry"/>
                </mxCell>
                <mxCell id="qSoEEpiIqTrCjML3QrT1-38" value="APIs for analytics (Google Analytics), payment gateways, or email marketing tools" style="whiteSpace=wrap;html=1;movable=0;resizable=0;rotatable=0;deletable=0;editable=0;locked=1;connectable=0;" parent="qSoEEpiIqTrCjML3QrT1-1" vertex="1">
                    <mxGeometry x="1685" y="540" width="190" height="110" as="geometry"/>
                </mxCell>
                <mxCell id="qSoEEpiIqTrCjML3QrT1-39" value="AI/ML Model that will create the the landing page and iserting the differenet components&amp;nbsp;" style="whiteSpace=wrap;html=1;movable=0;resizable=0;rotatable=0;deletable=0;editable=0;locked=1;connectable=0;" parent="qSoEEpiIqTrCjML3QrT1-1" vertex="1">
                    <mxGeometry x="1210" y="620" width="185" height="100" as="geometry"/>
                </mxCell>
            </root>
        </mxGraphModel>
    </diagram>
    <diagram name="Componenti-v2" id="OrnvzxFtMT_9a3btEokQ">
        <mxGraphModel dx="3819" dy="2516" grid="1" gridSize="10" guides="1" tooltips="1" connect="1" arrows="1" fold="1" page="1" pageScale="1" pageWidth="850" pageHeight="1100" math="0" shadow="0">
            <root>
                <mxCell id="zylOgOcTJYqcycn7VupW-0"/>
                <mxCell id="zylOgOcTJYqcycn7VupW-1" parent="zylOgOcTJYqcycn7VupW-0"/>
                <mxCell id="zylOgOcTJYqcycn7VupW-2" value="" style="edgeStyle=none;html=1;movable=0;resizable=0;rotatable=0;deletable=0;editable=0;locked=1;connectable=0;" parent="zylOgOcTJYqcycn7VupW-1" source="zylOgOcTJYqcycn7VupW-5" target="zylOgOcTJYqcycn7VupW-10" edge="1">
                    <mxGeometry relative="1" as="geometry"/>
                </mxCell>
                <mxCell id="zylOgOcTJYqcycn7VupW-3" value="" style="edgeStyle=none;html=1;movable=0;resizable=0;rotatable=0;deletable=0;editable=0;locked=1;connectable=0;" parent="zylOgOcTJYqcycn7VupW-1" source="zylOgOcTJYqcycn7VupW-5" target="zylOgOcTJYqcycn7VupW-13" edge="1">
                    <mxGeometry relative="1" as="geometry"/>
                </mxCell>
                <mxCell id="zylOgOcTJYqcycn7VupW-4" value="" style="edgeStyle=none;html=1;movable=0;resizable=0;rotatable=0;deletable=0;editable=0;locked=1;connectable=0;" parent="zylOgOcTJYqcycn7VupW-1" source="zylOgOcTJYqcycn7VupW-5" target="zylOgOcTJYqcycn7VupW-19" edge="1">
                    <mxGeometry relative="1" as="geometry"/>
                </mxCell>
                <mxCell id="zylOgOcTJYqcycn7VupW-5" value="Frontend" style="whiteSpace=wrap;html=1;movable=0;resizable=0;rotatable=0;deletable=0;editable=0;locked=1;connectable=0;" parent="zylOgOcTJYqcycn7VupW-1" vertex="1">
                    <mxGeometry x="250" y="150" width="120" height="60" as="geometry"/>
                </mxCell>
                <mxCell id="zylOgOcTJYqcycn7VupW-6" value="" style="edgeStyle=none;html=1;movable=0;resizable=0;rotatable=0;deletable=0;editable=0;locked=1;connectable=0;" parent="zylOgOcTJYqcycn7VupW-1" source="zylOgOcTJYqcycn7VupW-10" target="zylOgOcTJYqcycn7VupW-26" edge="1">
                    <mxGeometry relative="1" as="geometry"/>
                </mxCell>
                <mxCell id="zylOgOcTJYqcycn7VupW-7" value="" style="edgeStyle=none;html=1;movable=0;resizable=0;rotatable=0;deletable=0;editable=0;locked=1;connectable=0;" parent="zylOgOcTJYqcycn7VupW-1" source="zylOgOcTJYqcycn7VupW-10" target="zylOgOcTJYqcycn7VupW-24" edge="1">
                    <mxGeometry relative="1" as="geometry"/>
                </mxCell>
                <mxCell id="zylOgOcTJYqcycn7VupW-8" value="" style="edgeStyle=none;html=1;shape=flexArrow;movable=0;resizable=0;rotatable=0;deletable=0;editable=0;locked=1;connectable=0;" parent="zylOgOcTJYqcycn7VupW-1" source="zylOgOcTJYqcycn7VupW-10" target="zylOgOcTJYqcycn7VupW-25" edge="1">
                    <mxGeometry relative="1" as="geometry"/>
                </mxCell>
                <mxCell id="zylOgOcTJYqcycn7VupW-9" value="" style="edgeStyle=none;html=1;shape=flexArrow;movable=0;resizable=0;rotatable=0;deletable=0;editable=0;locked=1;connectable=0;" parent="zylOgOcTJYqcycn7VupW-1" source="zylOgOcTJYqcycn7VupW-10" target="zylOgOcTJYqcycn7VupW-29" edge="1">
                    <mxGeometry relative="1" as="geometry"/>
                </mxCell>
                <mxCell id="zylOgOcTJYqcycn7VupW-10" value="Home Page" style="whiteSpace=wrap;html=1;movable=0;resizable=0;rotatable=0;deletable=0;editable=0;locked=1;connectable=0;" parent="zylOgOcTJYqcycn7VupW-1" vertex="1">
                    <mxGeometry x="330" y="280" width="120" height="60" as="geometry"/>
                </mxCell>
                <mxCell id="zylOgOcTJYqcycn7VupW-11" value="" style="edgeStyle=none;html=1;movable=0;resizable=0;rotatable=0;deletable=0;editable=0;locked=1;connectable=0;" parent="zylOgOcTJYqcycn7VupW-1" source="zylOgOcTJYqcycn7VupW-13" target="zylOgOcTJYqcycn7VupW-14" edge="1">
                    <mxGeometry relative="1" as="geometry"/>
                </mxCell>
                <mxCell id="zylOgOcTJYqcycn7VupW-12" style="edgeStyle=none;html=1;movable=0;resizable=0;rotatable=0;deletable=0;editable=0;locked=1;connectable=0;" parent="zylOgOcTJYqcycn7VupW-1" source="zylOgOcTJYqcycn7VupW-13" target="zylOgOcTJYqcycn7VupW-15" edge="1">
                    <mxGeometry relative="1" as="geometry"/>
                </mxCell>
                <mxCell id="zylOgOcTJYqcycn7VupW-13" value="LogIn page" style="whiteSpace=wrap;html=1;movable=0;resizable=0;rotatable=0;deletable=0;editable=0;locked=1;connectable=0;" parent="zylOgOcTJYqcycn7VupW-1" vertex="1">
                    <mxGeometry x="180" y="280" width="120" height="60" as="geometry"/>
                </mxCell>
                <mxCell id="zylOgOcTJYqcycn7VupW-14" value="Short Video" style="whiteSpace=wrap;html=1;movable=0;resizable=0;rotatable=0;deletable=0;editable=0;locked=1;connectable=0;" parent="zylOgOcTJYqcycn7VupW-1" vertex="1">
                    <mxGeometry x="180" y="420" width="120" height="60" as="geometry"/>
                </mxCell>
                <mxCell id="zylOgOcTJYqcycn7VupW-15" value="LogIn form" style="whiteSpace=wrap;html=1;movable=0;resizable=0;rotatable=0;deletable=0;editable=0;locked=1;connectable=0;" parent="zylOgOcTJYqcycn7VupW-1" vertex="1">
                    <mxGeometry x="30" y="420" width="120" height="60" as="geometry"/>
                </mxCell>
                <mxCell id="zylOgOcTJYqcycn7VupW-16" value="" style="edgeStyle=none;html=1;movable=0;resizable=0;rotatable=0;deletable=0;editable=0;locked=1;connectable=0;" parent="zylOgOcTJYqcycn7VupW-1" source="zylOgOcTJYqcycn7VupW-19" target="zylOgOcTJYqcycn7VupW-21" edge="1">
                    <mxGeometry relative="1" as="geometry"/>
                </mxCell>
                <mxCell id="zylOgOcTJYqcycn7VupW-17" value="" style="edgeStyle=none;html=1;movable=0;resizable=0;rotatable=0;deletable=0;editable=0;locked=1;connectable=0;" parent="zylOgOcTJYqcycn7VupW-1" source="zylOgOcTJYqcycn7VupW-19" target="zylOgOcTJYqcycn7VupW-35" edge="1">
                    <mxGeometry relative="1" as="geometry"/>
                </mxCell>
                <mxCell id="zylOgOcTJYqcycn7VupW-18" value="" style="edgeStyle=none;html=1;movable=0;resizable=0;rotatable=0;deletable=0;editable=0;locked=1;connectable=0;" parent="zylOgOcTJYqcycn7VupW-1" source="zylOgOcTJYqcycn7VupW-19" target="zylOgOcTJYqcycn7VupW-36" edge="1">
                    <mxGeometry relative="1" as="geometry">
                        <mxPoint x="1190" y="180" as="targetPoint"/>
                    </mxGeometry>
                </mxCell>
                <mxCell id="zylOgOcTJYqcycn7VupW-19" value="Backend" style="whiteSpace=wrap;html=1;movable=0;resizable=0;rotatable=0;deletable=0;editable=0;locked=1;connectable=0;" parent="zylOgOcTJYqcycn7VupW-1" vertex="1">
                    <mxGeometry x="990" y="150" width="120" height="60" as="geometry"/>
                </mxCell>
                <mxCell id="zylOgOcTJYqcycn7VupW-20" value="" style="edgeStyle=none;html=1;shape=flexArrow;movable=0;resizable=0;rotatable=0;deletable=0;editable=0;locked=1;connectable=0;" parent="zylOgOcTJYqcycn7VupW-1" source="zylOgOcTJYqcycn7VupW-21" target="zylOgOcTJYqcycn7VupW-22" edge="1">
                    <mxGeometry relative="1" as="geometry"/>
                </mxCell>
                <mxCell id="zylOgOcTJYqcycn7VupW-21" value="Api handler &amp;amp; data validator" style="whiteSpace=wrap;html=1;movable=0;resizable=0;rotatable=0;deletable=0;editable=0;locked=1;connectable=0;" parent="zylOgOcTJYqcycn7VupW-1" vertex="1">
                    <mxGeometry x="990" y="290" width="120" height="60" as="geometry"/>
                </mxCell>
                <mxCell id="zylOgOcTJYqcycn7VupW-22" value="&lt;div&gt;&lt;span&gt;&lt;font style=&quot;color: light-dark(rgb(0, 0, 0), rgb(204, 255, 204));&quot;&gt;Added Details:&lt;/font&gt;&lt;/span&gt;&lt;/div&gt;&lt;font style=&quot;color: light-dark(rgb(0, 0, 0), rgb(255, 255, 255));&quot;&gt;Restful API will be used&lt;/font&gt;" style="whiteSpace=wrap;html=1;rounded=1;shadow=0;sketch=1;curveFitting=1;jiggle=2;strokeColor=light-dark(#000000,#FF99FF);movable=0;resizable=0;rotatable=0;deletable=0;editable=0;locked=1;connectable=0;" parent="zylOgOcTJYqcycn7VupW-1" vertex="1">
                    <mxGeometry x="1190" y="290" width="120" height="60" as="geometry"/>
                </mxCell>
                <mxCell id="zylOgOcTJYqcycn7VupW-23" value="" style="edgeStyle=none;html=1;movable=0;resizable=0;rotatable=0;deletable=0;editable=0;locked=1;connectable=0;" parent="zylOgOcTJYqcycn7VupW-1" source="zylOgOcTJYqcycn7VupW-24" target="zylOgOcTJYqcycn7VupW-30" edge="1">
                    <mxGeometry relative="1" as="geometry"/>
                </mxCell>
                <mxCell id="zylOgOcTJYqcycn7VupW-24" value="Drag-&amp;amp;-drop editing page" style="whiteSpace=wrap;html=1;movable=0;resizable=0;rotatable=0;deletable=0;editable=0;locked=1;connectable=0;" parent="zylOgOcTJYqcycn7VupW-1" vertex="1">
                    <mxGeometry x="330" y="540" width="120" height="60" as="geometry"/>
                </mxCell>
                <mxCell id="zylOgOcTJYqcycn7VupW-25" value="&lt;font style=&quot;&quot;&gt;&lt;font style=&quot;color: light-dark(rgb(0, 0, 0), rgb(204, 255, 204));&quot;&gt;Added Details:&lt;/font&gt;&lt;br&gt;&lt;/font&gt;&lt;div style=&quot;text-align: left;&quot;&gt;&lt;font style=&quot;color: light-dark(rgb(0, 0, 0), rgb(255, 255, 255));&quot;&gt;The process is made into three stages:&lt;/font&gt;&lt;/div&gt;&lt;div style=&quot;text-align: left;&quot;&gt;&lt;font style=&quot;color: light-dark(rgb(0, 0, 0), rgb(255, 255, 255));&quot;&gt;1. The prompt phase where a first layout needs to be seleceted and then approved with modifications made only from by the model it self&lt;/font&gt;&lt;/div&gt;&lt;div style=&quot;text-align: left;&quot;&gt;&lt;font style=&quot;color: light-dark(rgb(0, 0, 0), rgb(255, 255, 255));&quot;&gt;2. In the second phase the there is no more the ai model but only the user where he can do drag and drop editting.&lt;/font&gt;&lt;/div&gt;&lt;div style=&quot;text-align: left;&quot;&gt;&lt;font style=&quot;color: light-dark(rgb(0, 0, 0), rgb(255, 255, 255));&quot;&gt;3. In the third and last phase the user approves and the landing page is hosted.&lt;/font&gt;&lt;/div&gt;" style="strokeColor=light-dark(#000000,#FF99FF);rounded=1;shadow=0;sketch=1;curveFitting=1;jiggle=2;verticalAlign=top;align=center;whiteSpace=wrap;html=1;spacingLeft=5;movable=0;resizable=0;rotatable=0;deletable=0;editable=0;locked=1;connectable=0;" parent="zylOgOcTJYqcycn7VupW-1" vertex="1">
                    <mxGeometry x="540" y="232.5" width="310" height="155" as="geometry"/>
                </mxCell>
                <mxCell id="zylOgOcTJYqcycn7VupW-26" value="Simple chatgpt style" style="whiteSpace=wrap;html=1;movable=0;resizable=0;rotatable=0;deletable=0;editable=0;locked=1;connectable=0;" parent="zylOgOcTJYqcycn7VupW-1" vertex="1">
                    <mxGeometry x="425" y="445" width="120" height="60" as="geometry"/>
                </mxCell>
                <mxCell id="zylOgOcTJYqcycn7VupW-27" value="&lt;font style=&quot;color: light-dark(rgb(0, 0, 0), rgb(204, 255, 204));&quot;&gt;Added Details:&lt;/font&gt;&lt;div style=&quot;text-align: left;&quot;&gt;&lt;font style=&quot;color: light-dark(rgb(0, 0, 0), rgb(255, 255, 255));&quot;&gt;The information needed for the model to generate needs to be presented as an example but also become a follow up questions from the model it self:&lt;/font&gt;&lt;/div&gt;&lt;div style=&quot;text-align: left;&quot;&gt;&lt;font style=&quot;color: light-dark(rgb(0, 0, 0), rgb(255, 255, 255));&quot;&gt;1. The purpose of the landing page.&lt;/font&gt;&lt;/div&gt;&lt;div style=&quot;text-align: left;&quot;&gt;&lt;font style=&quot;color: light-dark(rgb(0, 0, 0), rgb(255, 255, 255));&quot;&gt;2. Some company photos and logo.&lt;/font&gt;&lt;/div&gt;&lt;div style=&quot;text-align: left;&quot;&gt;&lt;font style=&quot;color: light-dark(rgb(0, 0, 0), rgb(255, 255, 255));&quot;&gt;3. Company name.&lt;/font&gt;&lt;/div&gt;&lt;div style=&quot;text-align: left;&quot;&gt;&lt;font style=&quot;color: light-dark(rgb(0, 0, 0), rgb(255, 255, 255));&quot;&gt;4. Company colors.&lt;/font&gt;&lt;/div&gt;" style="whiteSpace=wrap;html=1;rounded=1;sketch=1;curveFitting=1;jiggle=2;shadow=0;strokeColor=light-dark(#000000,#FF99FF);align=center;verticalAlign=top;spacingLeft=5;movable=0;resizable=0;rotatable=0;deletable=0;editable=0;locked=1;connectable=0;" parent="zylOgOcTJYqcycn7VupW-1" vertex="1">
                    <mxGeometry x="585" y="410" width="340" height="130" as="geometry"/>
                </mxCell>
                <mxCell id="zylOgOcTJYqcycn7VupW-28" value="" style="edgeStyle=none;html=1;shape=flexArrow;movable=0;resizable=0;rotatable=0;deletable=0;editable=0;locked=1;connectable=0;" parent="zylOgOcTJYqcycn7VupW-1" source="zylOgOcTJYqcycn7VupW-26" target="zylOgOcTJYqcycn7VupW-27" edge="1">
                    <mxGeometry relative="1" as="geometry"/>
                </mxCell>
                <mxCell id="zylOgOcTJYqcycn7VupW-29" value="&lt;font style=&quot;color: light-dark(rgb(0, 0, 0), rgb(255, 255, 255));&quot;&gt;Second Iteration:&lt;/font&gt;&lt;div&gt;&lt;font style=&quot;color: light-dark(rgb(0, 0, 0), rgb(255, 255, 255));&quot;&gt;The possibility to have multiple projects in the same time like gpt have&lt;/font&gt;&lt;/div&gt;" style="whiteSpace=wrap;html=1;strokeColor=light-dark(#000000,#FFCC99);fontColor=light-dark(#000000,#FFFFFF);movable=0;resizable=0;rotatable=0;deletable=0;editable=0;locked=1;connectable=0;" parent="zylOgOcTJYqcycn7VupW-1" vertex="1">
                    <mxGeometry x="490" y="80" width="160" height="90" as="geometry"/>
                </mxCell>
                <mxCell id="zylOgOcTJYqcycn7VupW-30" value="Deploying and monitoring page" style="whiteSpace=wrap;html=1;movable=0;resizable=0;rotatable=0;deletable=0;editable=0;locked=1;connectable=0;" parent="zylOgOcTJYqcycn7VupW-1" vertex="1">
                    <mxGeometry x="330" y="680" width="120" height="60" as="geometry"/>
                </mxCell>
                <mxCell id="zylOgOcTJYqcycn7VupW-31" value="" style="edgeStyle=none;html=1;movable=0;resizable=0;rotatable=0;deletable=0;editable=0;locked=1;connectable=0;" parent="zylOgOcTJYqcycn7VupW-1" source="zylOgOcTJYqcycn7VupW-35" target="zylOgOcTJYqcycn7VupW-36" edge="1">
                    <mxGeometry relative="1" as="geometry"/>
                </mxCell>
                <mxCell id="zylOgOcTJYqcycn7VupW-32" value="" style="edgeStyle=none;html=1;movable=0;resizable=0;rotatable=0;deletable=0;editable=0;locked=1;connectable=0;" parent="zylOgOcTJYqcycn7VupW-1" source="zylOgOcTJYqcycn7VupW-35" target="zylOgOcTJYqcycn7VupW-103" edge="1">
                    <mxGeometry relative="1" as="geometry"/>
                </mxCell>
                <mxCell id="zylOgOcTJYqcycn7VupW-33" value="" style="edgeStyle=none;html=1;movable=0;resizable=0;rotatable=0;deletable=0;editable=0;locked=1;connectable=0;" parent="zylOgOcTJYqcycn7VupW-1" source="zylOgOcTJYqcycn7VupW-35" target="zylOgOcTJYqcycn7VupW-104" edge="1">
                    <mxGeometry relative="1" as="geometry"/>
                </mxCell>
                <mxCell id="zylOgOcTJYqcycn7VupW-34" value="" style="edgeStyle=none;html=1;movable=0;resizable=0;rotatable=0;deletable=0;editable=0;locked=1;connectable=0;" parent="zylOgOcTJYqcycn7VupW-1" source="zylOgOcTJYqcycn7VupW-35" target="zylOgOcTJYqcycn7VupW-105" edge="1">
                    <mxGeometry relative="1" as="geometry"/>
                </mxCell>
                <mxCell id="zylOgOcTJYqcycn7VupW-35" value="AI/ML" style="whiteSpace=wrap;html=1;movable=0;resizable=0;rotatable=0;deletable=0;editable=0;locked=1;connectable=0;" parent="zylOgOcTJYqcycn7VupW-1" vertex="1">
                    <mxGeometry x="1180" y="50" width="120" height="60" as="geometry"/>
                </mxCell>
                <mxCell id="zylOgOcTJYqcycn7VupW-36" value="DB" style="whiteSpace=wrap;html=1;movable=0;resizable=0;rotatable=0;deletable=0;editable=0;locked=1;connectable=0;" parent="zylOgOcTJYqcycn7VupW-1" vertex="1">
                    <mxGeometry x="1380" y="150" width="120" height="60" as="geometry"/>
                </mxCell>
                <mxCell id="zylOgOcTJYqcycn7VupW-37" value="" style="shape=stencil(7VnJUhwxDP2auapsy5vOJPkPqoAwFQIUkO3vo64pNy01flOckgO3WfTaspanZ/eBL55vLx+vDyk8vzw9fLv+dbx6uT3wp0NKx/vb66fji3468OcDX9w8PF1/fXr4cX91+v54uVgun74//Fye8PuEk041LagU/px+iUJy+uXLCXB3vN8CAvViAIkp9TmgB8rRAhq1MAfURlUMgBMFmQMKU2sW0Ci3OYCFKhtA1keAFdTjaPeQhUqcA2KjUg2gZJIKABolu+kixCBKhVo29jWNOL+9BYp2y7VQQg6NHG3sGaQ5jiLY2Edgr2Vk91szVeBPoGLLrvIoxIm99ydRB/EJo8RW+0gF+h9cfHRF6E+wFVT6iMDE3uWraEmBmg7Ezr4Sw+e7FijljL3YeGpBV7DfOKplY59APWffMEsPA386ZctbqeKOTFRsw8QKA6p/uwx3KsAh5c1kWShSQA0j1OwONIWgAZaKjs4+gIDq321nz8A+UhRnnzO0dxUUh4Mze7HPT5QQ5yYfTx6jamafbYLLaKGpvev4kZCpvc1XJ0b7Vf+tP0Id5UvjYxkuakYwoLiCU5IHGYvrVNyOblTS2Q8B3YOAmKoDwXY9l8Ebb6uJwZnrXFUWAqyiHGgdWlgO2GtK3dRrUN308e+wb3nw9mzDYmmrCWWQtKgr2KroGWoVreLsaKjBHHAYUmYFdAqAWLj6xuwRdho3X3gKQAKN+5ACGwASBwpoxQPQtFRF58ixM+wFBRT2eUD6YNGMNtO9DoKdAoLPQ8Uusd20au2M8tBHIawAjRJaoftakkQNlUYblLUCGA41BaT9CghQfViXPWCAp9WAxX7xykXzABOnAFdL9dwewq6nO3Kp+kxrtSJxpIDuXIqYBBrxrkXhCm0XJSxftJb2JID0kZZ3cIBEFa0gfqBrWBPqBxn9tUkcZL49oEO6X1xyidOhjldwxwotb3RM41VkbhoI6dr3A3YHeFHiQcIn+6NaDFh66pALjpjaIMO3AXFIqQ3PIK4sXnvqUEQ6IPmGaw2KtzhCuOqGCgdWGlWwvR8A/an+2+dzJgGMIW8oN0GnrzQKf81ZhwFSqed2oDkRJCY/jjsfx53/+7ijqtPuYOkBxELZl+hyywZiFIM/Lqh2SKCNm6e5vKqZyaWIo4kzly4fl3wfl3zuks/W5z++5Cv+dFAYkpb403UJ567dncbUBouItaqfGnmtwelB06ZAJ3cDAN2hv6jELFR30l3bGq3Qd1W6MB/I8uuxcgUwvGsVfZ51Sca9yszeXeYKfOMj+4MsvjUS3/fKxEhuKcDPjjhaaQZwB18dNgyYWgF+nOGYbjT0isjwXCq7bogFisBlE06ytDESZwD/MlAzj1fg7AGCKkl2mxZ4anz/+8nzAP3w+jr05nh3d3qbuv3fvz7Vn06vXvnzXw==);lineShape=1;strokeColor=#006EAF;fillColor=#1ba1e2;fontColor=#ffffff;movable=0;resizable=0;rotatable=0;deletable=0;editable=0;locked=1;connectable=0;" parent="zylOgOcTJYqcycn7VupW-1" vertex="1">
                    <mxGeometry x="1542.5553456167045" y="-18.532740895819614" width="90.72941357564378" height="28.285703453089923" as="geometry"/>
                </mxCell>
                <mxCell id="zylOgOcTJYqcycn7VupW-38" value="" style="shape=stencil(lVjJbhsxDP0aXwlRErWc0/Q/AsRpjKZx4Dhd/r5UDU1H1MwrenMmfBK3x0WHcPf+/PB2PHj3fr2cvx5/nB6vz4fw6eD96fX5eDld9dch3B/C3dP5cvxyOX+8Pt7+fntoku3Xt/P3dsLPGy5QzA3k3a/bh5hJ/J8vn2/yL6fXlTwnchPA8z4gOEp+BAjlug/Q83IYAZ5C2QekSH5UKWRywIacqdQRoEqGfUBZfNIBPpIDKlVPaVSJ9U5wQ9U4jCqx737bBrjukw4oJBGYECm4QV76jds+ipRN2KA+yVPJ5vyc9+WFKY7nV2Lg0cj9uMVBkaIDeSfdH0vMHIkAAFPiEZCJgYta0siYRkIpwRtkjEGMJMBJIXQFFqcGciCNNPH9qFIKkDuNWiPZsgYSeEnZWcYbiloFVFKNxSRqhV6SQnW8oSqdQYURzZxsARkDnLmhUEQA5dYYh7ocsQ1QL0ULEGR0olIsoIDkE6EyZis7Rw4QQpTRk04F5IZGLk9WoxrTklMmN4GiId5STgMRUNXwlkEa6oQB1uhEFRsd2AKgSpHY3CBUkdFCLBYACZHIhwmAKJdtQ1RAQSoV4mSN9uiGQsVZQEHJVycv5T557AKM0QU2CFUpFwtAlawZbSJdcRVYBp01gRAgTYWpUsWkdhPjKmJc3AAknN42NSoc3xqBvHVrQpH+X0Bc4roAuM8quz3LtCAtPMBLIXWfLE0udg7uNeo4Jp/OmAFQ1E+p0doeuKFNX2bIjZCiOn7JeIMOGwFQ1Iut3u0L8pJOlCNFuZAHuaTDRhqrBjN5HGkDkJ6N2zMlTz0ORiFPPRF3xFLsaqIjIPCQ1jjj0gQze9WRV1N9BRYoVcx2xcpnUDGUKnV0qepU0B7AUx4FqiCPUrYlJrq+oG1HudqxOKae7LuDt0kLRwy4oDtoHG8QhstGmHaTpYRsc6dX6bU8KJLeNjeVZ2Ax291N9UfboTo8WXnUqZydYdShFcqbuU3lEdGmtNaYI/872wdVHhUKZ1e3VjnA+TylqFYulECWx22rQeW903wlj5ZhXeaLlUePKv9+hNEff19wnk4vL7cHoPX/7YuPfrq9FoX73w==);lineShape=1;strokeColor=#006EAF;fillColor=#1ba1e2;fontColor=#ffffff;movable=0;resizable=0;rotatable=0;deletable=0;editable=0;locked=1;connectable=0;" parent="zylOgOcTJYqcycn7VupW-1" vertex="1">
                    <mxGeometry x="1652.2779231227473" y="-66.48097260756444" width="42.249270683829764" height="64.36472038043985" as="geometry"/>
                </mxCell>
                <mxCell id="zylOgOcTJYqcycn7VupW-39" value="" style="shape=stencil(lVbZctswDPwavWJIgOdzjv/ITJxaU9fOOE7a/n2haqgKtLxN3mR5V8SxC2KQu7f90+tuYPd2OZ++736Oz5f9IPcD83jc787jRZ8GeRjk7uV03n07n96Pz/Pv16cJOT39OH1MX/g182oiiROL3e/5DXvy7u+bx5lwGI8rQnEU2BIqxXybkALlbAhBPwFOCLX93QiRKYTbBImUqiEkaUFuEjj2SWehCELymaoYQvGUwQmZisXX3I7cLhLFYvGVPMBH8rYJ3jlyIAOhxP0BBeCZuMOXFuJ2hch1CSQK6TbekXiL1wiBipbsFryDHXPkrehKJobfLzbfEkiA5jyVZPH8n/qzjb/g+EMv6YL7m67y1e8DAeV2+jr+CmxPUfr6oP4u8l3VH1myklz1N4H6F6o2X9VP8Qjvr/SJplYm1xm4UIKG3PCXoP76K3wF/uLmjhUe9cv3U1oHEIP4VS0dXhUI/etsf6uH9VR855dCAuqzqHfBR+hfzdf2V/Wc0USnkL+ED618yx2jBQIJaMe8VVDMTSPbE4Kp2pEY9BYBkgiq4GAIkohBSEkt3l3dQg6ZoPRT1zuYtJowW4LOeZCCiqz2eDTl1LSudngGU2ISvW0CXm7U5GxLyhTBVJlMaGUd4Gqj+NSpCLpsGgqd7ckD/GoLWBLWRQX4Xk/INuNJ6ahlldjK1GsOqEalLW8LQS8TMLq0aZ03p9sc3R1f3WE/QdCHfyvzy3g4zBv3+v9+xdZX83ouD38A);lineShape=1;strokeColor=#006EAF;fillColor=#1ba1e2;fontColor=#ffffff;movable=0;resizable=0;rotatable=0;deletable=0;editable=0;locked=1;connectable=0;" parent="zylOgOcTJYqcycn7VupW-1" vertex="1">
                    <mxGeometry x="1650.285040503802" y="-30.154680796042697" width="36.35224112707874" height="16.89572218878925" as="geometry"/>
                </mxCell>
                <mxCell id="zylOgOcTJYqcycn7VupW-40" value="" style="shape=stencil(lZbbUuMwDIafJrcaWfJBvgb2PZihbDOUlind09uvulmHWE3EcJem+mIdf2vgu/f949tuIHy/nE8vu1/j02U/8P1ANB73u/N40aeBHwa+ez6dd9/Ppx/Hp+n32+PV8vr0evp5/cLvieMAUq4U4Z/pTYJS/734NtkfxuPSvkKtnT0RCG4DCQFzB0SESttAJuDUe1Qhp22gJIjcAUVdittATSDUAVJaVOuAQOqDltrStg5olvqgKwH6QDFABM6uS9gHXTMkpw76vRp7QIA8lxAk9ECFKNuAZMA+SwG1+I5PEoCyPaI4R5QMwjYI8XqDW4wzUIAdlwrepCkBOb2hgIm6civNFvB/XmYAW/G3YkDTrgLFOyFDNO1aIDiAoBUBrWVwJkgSZOkBnSmvXRFitCewowLarpltDNFr13Iz1BXIGwhVFdMawXVp0c2LUmfvCK2TOWKWnnVA025OKG6pVVaoL4SGFZyB0CwWtEANDkBtwJaA0xtFZYUtQB6gSsc2aE9dvwzECtwPhDrJjkucgfqgM7vXIoWmW/MtF6E4dZivtPkazU0LV+11fkwVgJ2Ibzq1QHK8QSsYugR4kwDSm0dX5iOEfjKpHbdeXsBeKkLr8Y2xbPdes8e2D6zbx6bnH/ae90Eg3Ng7A6Pumrtf/XEqq7mOwcTryRBp6waTTq+2rPnp7aO7inx5I/zUXh8+1s/n8XCYttfl/3Zd1VfTqssPfwE=);lineShape=1;strokeColor=#006EAF;fillColor=#1ba1e2;fontColor=#ffffff;movable=0;resizable=0;rotatable=0;deletable=0;editable=0;locked=1;connectable=0;" parent="zylOgOcTJYqcycn7VupW-1" vertex="1">
                    <mxGeometry x="1694.95212318337" y="-27.205286019223962" width="11.620137167171833" height="24.598050576136302" as="geometry"/>
                </mxCell>
                <mxCell id="zylOgOcTJYqcycn7VupW-41" value="" style="shape=stencil(jVbLbuMwDPwaXwmK1IvnPv6jQNONsWlSpGl3+/elYMgNE5vNzZY5FjkcjjTw3fv26W0zEL6fjoe/m3/j82k78P1ANO63m+N40qeBHwa+ezkcN3+Oh4/98/T+9tQi29Pr4bP94f+ESwUIG4rwa1pBwGnhcYrfjfuz+IJQxcQTpLIeXxlCNPECIuvxQpCr/X+A5CQktX/uAE5Q6zog4FxhR6QAOTpbFEAygFwgkFO0QC0GUBGKx6oA25QEQfI6IGeIwQIyVCelpG3KFlA604sAlkthCEN0WKICxbJUIyQHELRoNoASQJwaQgS5aFzuKzcCYgBMfkpWrZQB2S/a1hCUJaeGRqttnJL0S9+slBDImZ8mDNuFAMGpuCnP5jOL/UZpB3UQR0fXw8NqIY60F+Yz5t6WGy0gEwTPM9RkbBFFaXOKaC5m21yLa2PNJu0OkvrELvdZHcX6qhInjrFeG/cvACUxWWc9Y3pZq2qktmoRQGcLSpDxsmpyxico7daVanWNsnZXnBsnrpgYkq0gi5sQQrRdUJq9cb6WanJPhlmX8zAwoCPtvHAauo6n7pNskwnYS4i6v/34kXd68mzRa/cFffi5bLyMu910Vzn/fnk50aXpYsMP3w==);lineShape=1;strokeColor=#006EAF;fillColor=#1ba1e2;fontColor=#ffffff;movable=0;resizable=0;rotatable=0;deletable=0;editable=0;locked=1;connectable=0;" parent="zylOgOcTJYqcycn7VupW-1" vertex="1">
                    <mxGeometry x="1699.8032851716289" y="-37.28957065988138" width="4.548395013146546" height="3.980041732513655" as="geometry"/>
                </mxCell>
                <mxCell id="zylOgOcTJYqcycn7VupW-42" value="" style="shape=stencil(lVfLctswDPwaXzEkQRLkOU3/IzNxGk9dO+Mkffx9oXqoCJC1ndxkGSvisQuAO757fX542e9SeH27nL/vfx0e3553/GWX0uH0vL8c3vRpx/c7vns6X/bfLuf30+P198vDZDk9/Tj/nL7w+4rrVMIESuHP9UVmivnfm69X++PhtLCPQtIMoESKdRuQhEIygBqoh20AC+VuABKpp21ALtTEAFog4W1AYUoO0Cg0AGjDgQHoiQRkSU+o7oRKEgEgUqo26EwsIOhG7OrQKXaYpRptpTMF4JISods6cCTGgJwNIMVR+83CFQOIWpkCs1TZZokYFFqZFiy71UVAvdqo2KTiiKV4XswH3rTvmZq3b8D/rqQR508GPO1KCluyRBVos6/VTwmJP6wSWingA5ovGJKy2rvvd6rAoS6e1FEphzJaSLoHdHQCkziOJkpAZ1052j0AudRWOVKXEmCRNisWl6QGWkXThmpDaLBTqH2036/EIEVqX6x9HrTa8r/aIifofw8UXQlGG7htnwYnP1SGBo6qMmZnL6ALqSpX/iTQJZSk3cebsAiS71oVqb5TtyIooxFv2rtZA7uc2rPNj04alE+ll+1yMQyZbiU0rxQguGJu0kyiRCEn4uoBSAMTQD4DaDxyuAi6gdYoM2kWQWcgA11CfOvKYwe4DdDmb3k6CQEDxNaBAzFgasl+XuZEBa05zff3IjDoGn3QopUB4qzFp7Wpk6BwCojWpcWU29pCxG2DHQo6Vy+IaaoAunKjZqNu8yduA4KfgzI3/duTfJ6rc4+v48yN0T+WxUXlGnApUrEx5w7JF3xS1R4tj8HXOePVYrW5aFVQDXTouO8XKiCjgYpNqK7XGeYnWXFO6zOQzjwzllID+WTfwHIc+/xtkvpmofZodyyjmkt7EK9QWtmj/thGX1jEi7rdZy+y/7fXh49b89PheLxeupf/+1u2vrre0Pn+Lw==);lineShape=1;strokeColor=#006EAF;fillColor=#1ba1e2;fontColor=#ffffff;movable=0;resizable=0;rotatable=0;deletable=0;editable=0;locked=1;connectable=0;" parent="zylOgOcTJYqcycn7VupW-1" vertex="1">
                    <mxGeometry x="1716.9419415543985" y="-46.073760017737726" width="34.27909748600132" height="38.086467285304025" as="geometry"/>
                </mxCell>
                <mxCell id="zylOgOcTJYqcycn7VupW-43" value="" style="shape=stencil(lVfLbhsxDPwaXwlRol7nNP2PAHFqo64dOE4ff19ut9pY1O6gva1ljUiK5HC0Cw9vh6fX/c67t9v18nX/4/h8O+zCp533x/Nhfz3e9GsXHnfh4eVy3X+5Xt7Pz/Pv16dp5/T17fJ9OuHnjMuOkp9Q3v2aV5jJxz8rn2fA6Xi+A0ReAeS0DQiF2AAC1bIN8J5S6AC6UvI2gAuF3AFCpOCAhUK5tyCJBAA0Blc7gF4DA4AUKgagQXtwrZUK94BIAoLOhbz0gEQeuFQzcW8heYogcewcOdchtFo4ABPR1oZ6ySDVJdpUF6FaQdSBpPSAShWUawq2+mqgDFySTCH1gEoMLIiQYwuoqDYcyWChgmsNmVy2gL/JXwcIeeNSpsoA4FuaFkBqNtcBWv7ZXiu0wBSMS0okiDa0OIdMo3LVoEvfECVTwdda+jyURAlcq2gM3gIYNLWWRokWEIBLShvsbAyQjR1l45JyG0hc9CR9x1U9AgStvOX6GKqHHacWorEQIQloDHWoVgSQge+rBo1aVB0YOi6jxHErhGVmfZDh5pQbTETgk44oM1I0CAE+aUNkk4jUxthmy5mmFkrIJW3qPmpNtWDacAbgyCOXQmP3u3INyCUN0QASVcQCqbH7PQA3BBsLDOWJzkDTQTlCFtDzUt/UqbYptj6zhhGUdNiDoFUqGC2gRzAIWhaNtwCk6Y91xZQGC66R4bp4CBQHAYT0jI6sfr9gjwZtovyP5om3+yeLYH8dVGtsY3v9fGd5suAZHZqmXQKA401ZUvrzuRHIehFpjfUZwwSW2c5bBxWAKjEj3RzWq9EqN4YlmrOVVR522aQ0g7lPj9q4WKKQdgFb+2tfEBGKNt0f+3zpJMfxJkNcFEH95zQMwdZx6/vFns8Lka0DvH0k6UMPVtD/PiX/AaAfHy/Xl+PpND987/+3L11dml/J4fE3);lineShape=1;strokeColor=#006EAF;fillColor=#1ba1e2;fontColor=#ffffff;movable=0;resizable=0;rotatable=0;deletable=0;editable=0;locked=1;connectable=0;" parent="zylOgOcTJYqcycn7VupW-1" vertex="1">
                    <mxGeometry x="1745.930589683966" y="-45.35835434328496" width="22.70427038355865" height="35.87631805033834" as="geometry"/>
                </mxCell>
                <mxCell id="zylOgOcTJYqcycn7VupW-44" value="" style="shape=stencil(lVbLctswDPwaXTEkwAd4TtL/yEycWhPHzjju6+8LVUPVROqd5iZLWBNYLBac5O59//i2mzi8X86nl92P+emyn+R+Yp6P+915vtjTJA+T3D2fzruv59O349P6++1xiVyeXk/fl3/4ueJapFoXFIdf65uklOTPmy8r4DAfrwA1UGsDICtlAMhMhQdAadQAQArxmJIGKnobEBMVGQDNUioAECmOgBgChQCqphL9CRWklCjlMT5TYJARNVdyoxhvx4feoy0+Qoq26np8FUoNxVfXs0wJ5M+UR35MFAL4zBSdiJgU5G+adCptVIGGIne6rwCxAoDVV8aMYpfhvwHqW5AzKSjZOPVzwMSgByYKdU2zNoKUFsCoumpdACpa2jwWrYUiGhyl4nTNVEENRmt1o1kpA5ascTKy1BopqEF9CRafgJKsz2mML9C+rL6xCeaYDCdN3WQmqKPghVrN/jKKl7EDRSkk5CxORCX0Wb3hXOwmOfXJuOGM4sYgwAZ/Nl5CN9oOEKEMCE21T1UHsFAFDJXizcv2gwJJaKU4pmQlIPNq3k3xsrGZ4uTiFUii2f4beyzQJ0zxZXRTYwAQ1DYXuSIooISaX3+xkCCRhg8LygYPLUA7oo0cmROgDWsAd6swHVUE2OZqAygp8DqjVcYakhCjE1JfSRugwFn79GXtPwD28Pdu+DwfDuvV8vq7v0vaq/UeKg+/AQ==);lineShape=1;strokeColor=#006EAF;fillColor=#1ba1e2;fontColor=#ffffff;movable=0;resizable=0;rotatable=0;deletable=0;editable=0;locked=1;connectable=0;" parent="zylOgOcTJYqcycn7VupW-1" vertex="1">
                    <mxGeometry x="1769.0771084859707" y="-50.31934783815686" width="18.72330493452364" height="8.078010249379759" as="geometry"/>
                </mxCell>
                <mxCell id="zylOgOcTJYqcycn7VupW-45" value="" style="shape=stencil(lVfLctswDPwaXTEkQZDgOU3/IzNxak/dOOO4r78vVA0tkZI2k5ssYUkudgHCAz+8H5/eDkNw77fr5fvh9+n5dhz4yxDC6fV4uJ5u9jTw48APL5fr4dv18vP1efr99jRGjk8/Lr/GFf5MOJ/IlREV3N/pTaCs/198neLPp9dFfGByron3mSTuA9iTcgNgWyLsAyLX9SogKjySCKk2gBSoyD4gJRLfAHIkBjtkodKS1kAp7wOUybekVckDQFnJUJgSSGtRcm2WinFgACjE3Q5CAWTJO9dLbadkoJxtoR0gU/SQhIYWoBQRiUw+tYACSVhSSukBuQBAIGmVW+RhG2GfV2dScCbNK9amDXJTWmmtJICEGmvuhUhACANIW0ImtQCpVchJ76YI/GocQu79GkHNjQXTcWDKSGpHMfQARu6zLuF7QED+FuLYAxCH0f7Sk3aoDZTaGheA8kHJraoa9T4DlM6tuUq5BwidDqYMSmuu3Xphb1hAUnVdAGDv41ouC0BBaXWkawByq1b3LwCCSvSzgOxqK70DfL0Cti+tSL4FWA16AJBIuXVrTrW37V28qfVSktp4tq92R7nt9+IogXrwd+fcZ4FICbUZCu2JbIUCODsK7YHsTgTeXl1wVs549dbYAdrU9GzJ3ieh7cmqv9p8bYDbyafUhjvoN6kX8RyOzJPrLDGHwxLudXJwxPO+bj7HB5TJVad2lf12/F32OZdw1JE6dczxqJ98dmj+ON4e5gn95XQ+TwP+8ns/0dur6d8AP/4D);lineShape=1;strokeColor=#006EAF;fillColor=#1ba1e2;fontColor=#ffffff;movable=0;resizable=0;rotatable=0;deletable=0;editable=0;locked=1;connectable=0;" parent="zylOgOcTJYqcycn7VupW-1" vertex="1">
                    <mxGeometry x="1772.1136640445452" y="-61.048141853323926" width="21.07561193000538" height="47.90683741041971" as="geometry"/>
                </mxCell>
                <mxCell id="zylOgOcTJYqcycn7VupW-46" value="" style="shape=stencil(rVbLbttADPwaXYldcp/nNP2PAHFqoa4dOE4ff1+qqlSTsqco0Jssc0TOcLjcQR7e9k+vu4HD2+V8+rz7Nj5f9oN8GJjH4353Hi/6NMjjIA8vp/Pu0/n0fnyef78+TZHT05fT1+kL32ecdMp9QnH4Mb+p1OOvFx/n+MN4vIpPiRqbeC5U5T4gC9VgAPqJ0u4Dyvr3AiiRcr4PqHlDIRMDDi1QTgbQIpUKAIVatgCGGTpTKhYgVBIAqIiWQ8vUgKy9k1iVWoMqKaDbkrrKGgCgUaoWkJactwGZgstQqKMMgYIlrTkr6kPaAPpix9vWqN5LkwxA1qqaiAcE5NZC7DJUEsChqDW6l7WjDGHp6wpgigUCim1c6xQ7LKlZ0mr4BBqnpJud6akzgHTVip1bVQY0043EzUOkimY6bUqK1IE11Hy/v3c1ooiD2ttZQ0c0oBFVM7tjRu0IZI1BB8KS0CozOmfWxq4AgbrqRDpd9U1EMkVqmxllwFqtE92xoSsGeaP7jXKlw39C6JZjdx5HONbcqFkW6nnEItbFPOua0/aDThR/DLDWCBIEisFxpgwat7GSThTyHgV7yGgbQZeF2C11imC9qevsrOHpV2ps4yNFFJ/8iReWhLfjOyVx8cg+ys7VowUC7Xkz+YE66K0w1eL0QQe2FAp2AASuQdHe23oy3LP/ein8e7w+/LmBvoyHw3yBvf7f31j11Xzblcef);lineShape=1;strokeColor=#006EAF;fillColor=#1ba1e2;fontColor=#ffffff;movable=0;resizable=0;rotatable=0;deletable=0;editable=0;locked=1;connectable=0;" parent="zylOgOcTJYqcycn7VupW-1" vertex="1">
                    <mxGeometry x="1830.8649129633213" y="-40.31447239514509" width="9.901145138322136" height="21.428441916092652" as="geometry"/>
                </mxCell>
                <mxCell id="zylOgOcTJYqcycn7VupW-47" value="" style="shape=stencil(lVbLchoxEPyavXZpNHrN2XH+w1WGsBUCLoxj++8tZWuBWYUB38QyLc2ju6WBH143Ty+rwbvX42H/e/U+Ph83A/8YvB93m9VhPNbVwI8DP6z3h9Wvw/5t9zz9fnlqkW31Z/+37fAx4byAU0N59zl9IQj/+/Bzit+Ou4v4JPCi4h2cux6fBUQq3iP56/ElQ5zOx8EbB0hAjvqAWkEwAAXiFYATklEyuVOJMyJ6ZDKOyCi6qakgWoC6HytA8eBstCmCggLULYpRdY7LvtY+FGvQFaBrEDGLjmnO+ASI4HIdEApoUXTdwhh18EsuZUYwUuIyc/k0uAJnpNQDAs19uzMlnxCNwbWi9eCIkcRua9EpmQJqc9NjcLNi7yQGgW4wT+stg9J3qE0ZydJnJx4mRGMG/9FnyGBLbp0FJAYbTWomo6eWK5GsLtUitE0WQTFSaj650Gc2U2pGrHlx0Yc7rfsWor8cxC67mvsiKaneagiOIpLWT+WLpR9Zun3loxgHRDg96WxTg2aPOzEjw8Xr8f3VEJGNsfVUDeb11uXDHmLk09Xb7luL2ct+UoCz+hNn9znLPxjXSM+IqjTDvr77HrkdXxfnx8963G6nt9Pl/8vHUv00PbT48Qs=);lineShape=1;strokeColor=#006EAF;fillColor=#1ba1e2;fontColor=#ffffff;movable=0;resizable=0;rotatable=0;deletable=0;editable=0;locked=1;connectable=0;" parent="zylOgOcTJYqcycn7VupW-1" vertex="1">
                    <mxGeometry x="1812.9276021894625" y="-63.33319272708749" width="6.480194078707427" height="3.986385454174979" as="geometry"/>
                </mxCell>
                <mxCell id="zylOgOcTJYqcycn7VupW-48" value="" style="shape=stencil(lVbLctswDPwaXTEkAYLkOU3/IzNxak1dO+M4ffx9oWqkGrS1aW8StSuCwC7AgR/e9k+vuyGFt8v59HX3Y3y+7Af+NKQ0Hve783ixp4EfB354OZ13X86n9+Pz/P76NCGnp2+n79Mffs68JiRpYqXwa14pjar8Wfk8Ew7j8YpQI8XgCC1QBAQV4uwJmYpuEyRTap6gFNs2IRVqt4S4TcjU/BFiCBQCCImCT1KrFFBExOzxiSRv42P//8qkdRsfKEVftEQK4llPt+A1kDLCi8dLpVJQ/FwdnutS9I38VH9eth2RJCj7/08lTEBzJDf4BARh0fp4bEUAvvUC4kwR1Ctagb0HRKiCDYygxRGyLq74R4LWxdmbIXmCGb8BTaxfV402UrCB5VR7UwrQkFLuPNNwm1gUfIWPAG+a6+IRKqgEiwLW8ypV6LG+kdqJQH5uPSkfed7jc4L5D31TlLi4aKtndZpOVEBfZ2peP9aGA4gnU/UWsJUAm/T/4W37rsC2koDgzIJdhqY+A6aA8vJ5nRuVFIRkjuo1ugyG+xZL1HzfwmOpSR+Q4YEFbPD2NSNB8RRi7wFdUnYfby1HfIIYzj2zbCe6yXboBHY58Rm1yZGBSq8m++qDAPvEtIU/tDQ4/IyQvPByhc3d0sReeKpUUJpMyN4LhSmiwt3ccEqB5r9/DUQhfXxvtIe/t86X8XCYL63X3/tbqi3NN1x+/A0=);lineShape=1;strokeColor=#006EAF;fillColor=#1ba1e2;fontColor=#ffffff;movable=0;resizable=0;rotatable=0;deletable=0;editable=0;locked=1;connectable=0;" parent="zylOgOcTJYqcycn7VupW-1" vertex="1">
                    <mxGeometry x="1831.569337703404" y="-60.09393900794734" width="28.02620646721425" height="4.39337184781175" as="geometry"/>
                </mxCell>
                <mxCell id="zylOgOcTJYqcycn7VupW-49" value="" style="shape=stencil(lZfbchoxDIafZm81suTjdZq+R2ZCyk4pZAg9vX29JQ5Yzv4Md8uiD0nWL8lM+vC2fXrdTMJvp+Ph++b3/HzaTvplEpn3281xPtWnSR8nfXg5HDffjoef++fz59enxXJ5+nH4tfzCnzPnmDIvlPDf9zcU9P+Lr2f73by/ti/ErrPPlHjdXpk4dPbC5IEDr5S1AzRQSOtAyBYIQi6vA0ksEBNFkEOuIfU5pAIPqTjS3kNOVBwACkkPlEDiIZBzD0RyBQIl9UAiwSGFXhglYw+ZgvRA1Qo6pURuACJKOpBPFigRAEpp8AABIR48wJCYYh6SFqCl0trl+liBWivwLoTrwiG1FlIDxFseisnhhvjcUDhPHh9rNIBSQR486QAkcKw1RY4WyFh80dscBOWQWwdfAVBLZRBfoAwAx3VWGm1EymD0LS5MTAkDdVYWq76EgDRUrrQmXC2Et0BGY6OW2iygyzmsqomtiwQEvuh1ACTc1RGZ/H0tdAOoOZjKcZu3ny+tYMdxxlsu+pbix9JiEgD4IYdQBQ5aSL1tIcVJL5u/b1LRdgyfF45cn4ITuHe5NeRHBqSgzGyHjIfRDN2p7eq0Zt7/urQNvBZMMeYOmDu7qBx5MFClbeJmznA6KokYcwXBeArRmDNo+WCFhvs92ZNhcqBM2c7Eqjq0OdrAvJgXEMzd9+Wb9vXhcjl/mXe7893++nt7ma+vzn8E9PEf);lineShape=1;strokeColor=#006EAF;fillColor=#1ba1e2;fontColor=#ffffff;movable=0;resizable=0;rotatable=0;deletable=0;editable=0;locked=1;connectable=0;" parent="zylOgOcTJYqcycn7VupW-1" vertex="1">
                    <mxGeometry x="1834.1814570279994" y="-69.99739609840262" width="28.040566918603872" height="48.1322274180809" as="geometry"/>
                </mxCell>
                <mxCell id="zylOgOcTJYqcycn7VupW-50" value="" style="shape=stencil(lVnbcls3DPwavWJ4Ay/PbvofmYlda+raGcdtk78PGA2PxKXOnsmbLGNFAlhceYoP354/f308Bfft4/3t78f/z18+nk/xj1MI59fnx/fzh306xU+n+PD09v741/vbv69fLn9//dwl+6d/3v7rv/D9gnNSWgcF9+PyRa7S6q9v/rzIv5xfb+ST+DjJFy/B78s3KXmWTxLSvrxvom4GVKlxHxCDBJ0ANUkKRIMsZQY0J5GokB1eqamkvA+4mmQDVHHEqKZiCTOgiHf7AFMxlhkQxRGlaxOXZitl8QTQgrSZGKVII0q3LG5mRjbfM2ZsNtkA5kqitAHgSmpnsisZYHacOkmFAIqU2awpSWMAlTxzKdqZSs2aZ2oYfxmXuuPmKwVTuhGAYoRajAcSQNVJns3qdbDrPltVdFbaexrTRoQ2K212JjfKFsCzCqYT+X1tixckkHBTHUzeTCSe+EDD8Omm8FDovrwbHrr+PrNPz0gV5BuxT4rDoVd9K3FYbFLnOEg8pWapHuxfCeWi+Wu+fxkZcy9lx9n+3tF0F93wzwaIkomHQx3ZcAMUySTdmYaQW8zHlfjYTLjGpTKAxfl8QvTiGcBJm3Uwv3jiNiud4IZkcUmU9lUS8MIin2QvM6LOV0qVFgUDgB/U04TqM/YjmkbG3AUAV4skDoBkkbceaBcwk8/yE+NSv9KstPVUkfU8eYTjTVOVmB/y6NE2QKQZ1fzgoZoblw48XRDQmNJL6SzbmXsAoHfZztxjq1s6Q9bz3AUkkjX6lTwCWCLuSs9cKk0CV1oTApT7ITQEZGalgo1eBzAdMhYHAxyQD1oYA7DybADIfL3f5VdKCQGsoHfAQj6WvQ2gFQGRJwGcYwrtPXuILhFXmZXK6BFuAIWzFc1qJ/BkDKmy68DZWhcrJR4PmJcKv5KF6BJx8eAERcCBlerKVg7IAQEHWSNWBGTuab+ckDmX0A+WNQ5i+vcAijOAcYnmJcWiaBWI1gddsobn6V4xVVoVZXO9ARIU9sTNqui43glwK+FcUniDZUrDAJo4+ZbJxPolGg8Z67R1ZAf0TvMJNuKyvtVCVAHg6JWsb4WeLyq9knXaOBM7ui7p491MDWvfI/G0/TvMV7JLsngIS9k1QwfC1tCwAvltL3V/pPHY6FY+M6UxLFxnskKoF5cqnUaq3ZsRoS22GZTNrBG3N57vDZcu2tPmTRcWcdZpxGbPjS/uy2dckzjqYG1jxL7en40ZPffAuEc7w+Jwjak0nxYdc9S2ARztwP0tj8cQ8HxkqIpLCcsEhTCiNmS0UY5RtEUcPyOfV1vG8TMWaqS23fgm2UW2YmyD9DcbQ9oXOoe8U1457QggdjbqMkDGLaZxhbU8ZlccxRrdP3XPzSdUvi2pCU9oaUwRewtu6MK6GQj7rDnA9OJ4QFvthpTdCl1jpoVNLdBFaQzo6pr5uqThnq4eeA47GOvC2EY8Ir2tCWOVduPyTQ/GkrCZFJo8N7i4I+8XeZZjHO7QTF7pfSB0etak+uICwB3oC9NI3p6v9uQzyrNeyo05+UaeFQWHfY7Js0cbh69CeXsy2ZFXv8jT38fV2ZH87z0uHsvbh+tL5tP55eXyEHr7f3z5tK8ur6bx008=);lineShape=1;strokeColor=default;movable=0;resizable=0;rotatable=0;deletable=0;editable=0;locked=1;connectable=0;" parent="zylOgOcTJYqcycn7VupW-1" vertex="1">
                    <mxGeometry x="1322.5851804323306" y="120.50172353923062" width="240.44139046301598" height="130.71825191629705" as="geometry"/>
                </mxCell>
                <mxCell id="zylOgOcTJYqcycn7VupW-51" value="" style="shape=stencil(7VnLUhsxEPwaX6ek0ftMkv+gChNcIUABef19euPSYo287eKWA7fFqFczo55WS7sLVy9310/7nbqX1+fHb/tfh5vXu134tFM9PNztnw+veNqFz7twdfv4vP/6/Pjj4eb499P1MnJ5+v74c3nD7yOuVfG6oNT9Of4SkyT375cvR8D94eEU4CW7EVCkpW1ADVLjCGgUUJLUMaTkxZOQcpHULKARQGoSzQwqygA6zaD9FWcBqInPFlAKASBiPwKCuLgNCFlytDPUSgBeXJpyICEpiOCnsjKAkzoBUtgG+DSF5MR7AvCiZeRSkESqBEAYZ0AZUiaAYEPSKImUFTmYhfOFNpBv4scZEGQkAFUJY8dlyj2sWxvHo2psPJgUhvFOIslYi8RkxjtSUq2izY5n+TYrSa6/YGt8te9vhHXBSTILIJXEvzTO2MsXOhOcG+OJEgmpw9okaxdIJW2G8XGMp3SSb43XkQ9VCsvXSTH1wYKxBNC0oxSB0axCKKCpkEdIrMmq5DFl1DQTTvtomyxwUiBFU9QACSeA2oVqXWSVTFiaJYzKBfV1/P1jPFl7DbaUzuwHGdssCQgyFUbalUJnQMlNH1QQm6SAxmwGgHVkzI5W3pvre9B5wOReACgc0KoFVAZofdteAWt7n9/InfUWDfpNuA1AHanagmQG8J04KyB1tm/N0ExIkHwOMAoJm0gVYHV0K6CJI1UCwDcLYAqAhTNs9Y5vI+jfOE/BHVUJUxIs62xFppVuBs4DIOzOLgQzSAAUs3KJqkaY3AjIxPxOmHQJdFW2EGViHxqCSDEA1QDcpaXObQKwGZoktSF5stLgt049ylYagBJtWZmnWnrUrHS81HLNJJ37DrAZkpmhUKMKgDcrXemRBGWNU1Nn1nG178kngHZhpd8H0EnJKgUs3nPqOGq2/SQCnm+jcXJXifZD6cK4bruZOhO1XMVxVwmTnGVewkZPuO1sPHHV5vMJi46bOoxPYt0pOirSm2xuGCVTT9gIesRzVoX1glOKtnNwhmMZ4MQWx+6vVI8+DmAfB7D//ABWJ4YqlfbF+xv71S7pqPFreAXzzTiOGG+E0wDLwWebw2JbeUg6HdkCq9J0ERkDla6FeN4CKtPGbL1RjF1rNq8JTdKJ9nJcT7EnACVcWq46JwC7bkptSjr1C6ut69owJc2qVFI/Zp6UlTnIGqZLbe1znr/Udt0kr+RrVMLgtawkYVfmAHM8v3C/AGNj9v1lBqJKbRWVEwCznPBaOpYVfow5i8X+eVsldhoBoJaprHQvn9zLYowJojXrm5cWIeK6xGQ+Ryj9HAGA4UZcv2hsAczVDfidiPS19VbkpIOY93//R5vLADy8fSO6PdzfHz8xnf7fflPCT8fvUeHzXw==);lineShape=1;strokeColor=default;movable=0;resizable=0;rotatable=0;deletable=0;editable=0;locked=1;connectable=0;" parent="zylOgOcTJYqcycn7VupW-1" vertex="1">
                    <mxGeometry x="1614.229759161749" y="182.8324333602452" width="68.41796916746443" height="39.08478863852042" as="geometry"/>
                </mxCell>
                <mxCell id="zylOgOcTJYqcycn7VupW-52" value="" style="shape=stencil(lVjbctpQDPwav2rO/UjPafofmQkpTGnIEHr7+8p1DZawd5o3h0jotrsSHvLD+/7pbTek8H45n77ufh6eL/shfxpSOrzud+fDRZ+G/Djkh5fTefflfPr++jz9/fY0Wo5P304/xm/4NflJotRGrxR+T5/EQL3+/eTz5HA8vC4cOFFh4yDUZdu+JwrJBwhx26Fd4y8cBESogZJzSNTDtkNJVIt1qJRAhNwo2ZpToNqAQ6XQrQMTJ5BSpmbHULSqDorWttqiS6MK5tYiBVt0jcQMHDRjG6E2iqDoziTZOLRMGUEpUBTj0Ms8yvUIlYrtUhcSVEMntkVzgeiuTMWilZkqQGthDz6J8yjXocEUHX8K7JIip1osSYPgU2x2W4MwbCtTs3MTgYRTGJQ7e9CjTBy8fQIFXHG5yD+C7w9rDQKoUP0JfgKInMpEV2+mkFH+TlIVEhnkk0icvWYI+lMpWsix9hPoXacWPaYR80eBZh8gAgCp3ubgHRAvY/FipC1CcqcCHR2mtWugZnVwRNYhNwBqTUlslxRFBRWtku2Yz3CxxUjd4VRmAVx1EK92ag8V2+MohivU18Vr3hiLAP824wZQfUIM7YNfCNLnMW7YR0fM6xS3iOwaqjOB9nyHOgQihbXLP8wd2OhnvuNNAULRqDt7XaEg/4/aa0LBFsBtLmldqZOXXt2XiJd6Sjlesq4/dLeolNuUeoNiqis82QhN5rFv3Y/ulNIzpAOU6inFNqUqs+JvFd0sTmumAnCkbXVz0GMtIKJlT+XcqYIuKbSz7dJ4cGIHsdy/sXULS9XqoypmR1v/ns3wKtcKo5sbJE/pfulkaK9DdRdzhJddj7OWzPb4IlemZHH2SHx1H7lDMMKtr1rYnbxTBvmMWivOXgDmVMtd/gnSZjzixPW/AzEal5dV3wIRulheN0Cg/aoB3H7VDqAGiQccwwGPV7QHdEIFN08xfFaPy84NLECE6raT4B06quCjP/b/w0Efbu8WXg7H4/RqYvl//y5CP5reY+THPw==);lineShape=1;strokeColor=default;movable=0;resizable=0;rotatable=0;deletable=0;editable=0;locked=1;connectable=0;" parent="zylOgOcTJYqcycn7VupW-1" vertex="1">
                    <mxGeometry x="1710.2400933122872" y="167.47565785087454" width="30.851062958700822" height="42.76042574763869" as="geometry"/>
                </mxCell>
                <mxCell id="zylOgOcTJYqcycn7VupW-53" value="" style="shape=stencil(lVjZctswDPwav2JI8ADxnLb/kZk4jadpnEnS6+8L1kNVhKxt+ibLWuHaBUAd0s3rw+3z8cDh9e3l/OX443T39nBIHw7Mp6eH48vpza4O6eMh3dyfX46fX87fnu4uv59v+5P96uv5e3/DzwsuRtLYURx+Xe5wo8J/7ny6AB5PTytAClRlAtgdifuA3CimGRBJ8j6gJqrFA3LbB0immucYlBjE0AoVnQGRGoihVUpzlmKhIMAl8S5ZoqOCoNvGQqAQ9gGlEsvGAgg6M9UwAzIVELQlMc0ADlTqPiA2quzrkEGlzWOZg86BuOwDlGSmUmEqCRhgirOBWiiBJFkIziOp0IKpJc9lMHIFAEjqy6CmH1To6AutiQIog+nHsVut9AAg5rF6lxBZTQ6qPmhFgmsjxBWgoEIHyhsLBfQACzG2GVApAHZbEssGICBozcPjBSDUALsNoM6CUkBBZ2rF14GxS3HuMhqh4CxL6iwwJdDH7H1pwyVF1DB6zxK1RDPQQ09i3dAbuGRl4k0MaGK1TR0sqopcyp5LVgdoIZHOQVsaGLDVLPActCkEUcPY7yrdNQg0bX/7vlTHHN6TqGuVZhNmSUm3mgaAnvXsAQ2k1YgQi48hYz2wU5xQBlnqEg2+DijoDnCFU2qoL+UhyBX5AgKkK4oLKGjb4LIHNFyHKwBQB2ljoi0Agd3bJpDMdYgBbzO2JPLMPtXxjutjNI2BswAqVJBteG7B6t0YrQLBuyQYwGOrXXaNCjvfkpFlmYmwDOwDSALVYAHEuQVwHvvTdQPsR2JcGtv1IojvexXuDSVTmgUdqYBxJbbRzinCLOpdclbnkrN3TmiB/q9YvNqh0bAyFlfnUYTLmxbK7jwmoyHs9W0nzsTwLNOPJg6AF5+6hLgAFItZxnFtBUBMtb3eLaDdAjppBF9ooyKKofml255HZx/x0rEcKWhHtv5unmeg5bJJaYGb3nJSW57PsLeY0FyN0xjve++fe5cdudGaVzZn+jCGynUOjXKunke9VPwg538sVCTzNOh3gC6NQP5s2yAh/vs7yTsAdvH3s8z96fHx8lVn/b//jGO3Lp+A0sff);lineShape=1;strokeColor=default;movable=0;resizable=0;rotatable=0;deletable=0;editable=0;locked=1;connectable=0;" parent="zylOgOcTJYqcycn7VupW-1" vertex="1">
                    <mxGeometry x="1744.800434111588" y="169.20809515798328" width="28.9874068423901" height="41.595824337338854" as="geometry"/>
                </mxCell>
                <mxCell id="zylOgOcTJYqcycn7VupW-54" value="" style="shape=stencil(lVfZctswDPwavWIInuBzmv5HZuLUnrpxxnF6/H2h0Ug1IGtTv8kS18SxuyCH9PC+f3rbDTG8X86n77tfh+fLfkhfhhgPr/vd+XDRpyE9Dunh5XTefTufPl6fp99vT+PK8enH6ef4D78nnHRqfUTF8Gd6Exv16c3XCXA8vF4BmlDPFhAp121AFUpiACzEbRtQ9HOygEIlbANyJC42pEAZ7JAiSbMAoZK2ATFRrQaQA1XeBnClYncomVoEgETJ9qE2iiAHLWKPBtA6JZSDULBVkkgJ7KBlrQ5QKAhoXJ+ZswAqRZB0a5TY7xBBpzXF2D0ggZCEifmekLQmxbJVGlVQVklUXJU61IMCug2pMxUUUpoDWAC6J5Co5tCsRHvBIfHMnAVQZ5Vv9cEl3RsJ2EE77craF5XfBhSq2e/QEGBd1koVUKMpvYOvEiO2Mkn0fWBklUzVmoB2mhG91ciszSiXApCoJh1tlWSR1G1A9naveggopOqdb5Qong+ucSMAcEnCbL1XAAFJK715lTQqqwrIu4aQgCopQGzSPcy93wQ4LsWZjlsAdoBMgo1MnOIqHIpaVnbkUyND9BbPpVGinwDKPQCdD8X2gUOA7NMpm53k+jz2bg+5ZaRdZc1IENRX7i2ArYGSLZI6WwMZLPktY129G/x/9lTN2Cc5+q4lhueGuHjW0gR1AFChVPxUVz0Dq886/mzKuMd1Zau6Ho0S1ZqNZzmc3RZC8RwSamC96ortes7wrKcMc8NQz6sVZKwyacG3oIMmK+mdRerpr6CQVCXugBtmsd6mUVgRVaWE2qBbVFsm7QPySM3amaoSKaOsVVnuWF9nm93qnBN/xKcS9dxmTyWf3AN04IfuAQ3Ytg78tAIgbtx9H/sPgD78u/69HI7H6fZ4/d1fF/XVdNVMj38B);lineShape=1;strokeColor=default;movable=0;resizable=0;rotatable=0;deletable=0;editable=0;locked=1;connectable=0;" parent="zylOgOcTJYqcycn7VupW-1" vertex="1">
                    <mxGeometry x="1769.199629419783" y="178.6199849468494" width="26.680307899273885" height="25.25793498624421" as="geometry"/>
                </mxCell>
                <mxCell id="zylOgOcTJYqcycn7VupW-55" value="" style="shape=stencil(lVjZUttAEPwav07tNXs8E/IfVGGCKwRTBnL8fVqlrPGOpHZ4k2W15urpmdUu3rw+3r3sd8G9vp2O3/e/Dvdvj7v4ZRfC4flxfzq84WoXb3fx5uF42n87Hd+f7+ffL3fTk9PVj+PP6Q2/Z1xqEuKECu7PfCckqfOdrzPg6fB8AYhVYhkBRUolACc+DYAYJeo2IEQpOgBSkFC2Ab5KHQEaJXkKcGPQOUojQYdmYyhNlFiYPB4tVJUStgFaJYURUCSnbUCBx2MdKu6QOsCB4McYVByx0Jzk0UL2UkkMABhqpNxtrruUOhHO1IBNQg0ErWOWfJGWtwHZSagjwNE6pCIxWoAyeqvUbF3yjEtq0xpQe0bvYgEf7FoHBPFjljSLZ/2ALI0x5NzpuA7IUt3IJVhoNIY6ulQKZStaNI4WqhNHqAHAPwfOgHDNpWQASTxzKVsuoaUqS2uSbCxkaY4WrhoLoCNpUe97B18APLHQJGbrEYt5IZT1HNN6g/a3XRSBDQfwyGQIAkD6uSw0rIoSVsD/8f3gKXt/k2R0XjmJfO/1MwCaxjgRrGwD4JiFJGUBUCYX2YoqYmA1QyOoCfoK6+qiCu0qwJTZ9+bbcqkYHkVaZwRdFvM2MgXDNByzhE7IrDfjQi4K30p8n9+XABJDW/RCvsLttAg5kCp89nno7ajAOXUBXJ+Etsjqae80K3Yx033EL1dV19eBdYd8V9szT+k6Ms3+8flzCtbFK9r3e8o5dEld7hZkkDeI5yjXEEzPWO0WRUvaabVuotmNKnPWNYwcs3dCwEhWobhxVIumtA8U+45Z8hwvBM4kZuFplapwWASB3ZWutraXS6ULknaJPmc10LWz2EJjc2Z7LaZCMpszDLCIU98AL5qnseZRu7zAJmtneGximBSQVC2hagtAIsTAWVV1YYG4pM4eDDF+GS+gWM0cFyLVPA1WtJEl1tI4mepYB0yixmKIdtWe5jUH2DpAOBlXcRwfYwA1CrMAqo0uhUCFFWktY/tgWCRCDRROjfClPl22qPG5zxj/AcDFx1eTh8PT0/zR5fJ/+5UFt+YvNPH2Lw==);lineShape=1;strokeColor=default;movable=0;resizable=0;rotatable=0;deletable=0;editable=0;locked=1;connectable=0;" parent="zylOgOcTJYqcycn7VupW-1" vertex="1">
                    <mxGeometry x="1793.528658912363" y="182.2646244921582" width="30.151514580977164" height="25.994681054925877" as="geometry"/>
                </mxCell>
                <mxCell id="zylOgOcTJYqcycn7VupW-56" value="" style="shape=stencil(7VjNUpsxDHyaXDWy5N8zbd+DGULJlBIG6N/bV18zdmJ9yWY49cItJF5sSbsr2Ru9eX24fd5uhF/fXvbftr92d28PG/20Edk9PWxfdm/2aaOfN3pzv3/Zfn3Z/3i6O/z9fLusXD593/9c/sPvA65SjgtI+M/hCyXN/774clj+uHs6WR4S5Tytl0BJLgNESHneoFGtAFCJywRIlTReBqhQmgElkgYAiNTCBKgWFTiS2s9zDC2QoCMlKmkGSN/z4g5zGVqkhI8kdQZkCgUGnR2g9LydByjVNgMqFVBpq0NzQTdKCgCBGntAQ0diqjIBAjMxAzI1KsVvkcGZjH01+KghXQu1VV5LgwB1acoUkYLyKq+RKtCoSS7NMRShAOgqTE1nyek1QJkBVvyKgg6U5yMFoyvOEs+CEMqIfKnbVl/PvS5n18dM6qgkUD/JyjYzydiIIsgrJsUGy1aqV2jOJCDmOn4edc5UgMs0q+rMpBqg4Ixo4gAmQSCflrriTwAKBGrcr6sdIqBeW7UHi0HQkRrxzIwq0FoN4MhdI+6JRxMaCKMX3qLO7K6VIg5CnI8xCWCfpcm7TOhWeB5QOv1PWhYkU6LqAEoM6Lp0tNUOGeTV/l8MPgbUp9vK+CxLAe0w6H9SB0E7hFXhsEbbcN4TMl0B+B2EIs5SdfwOXeaXCsdzY18khyqdfR0WUaMYincyAzTkAtW3aQuasYCSsw3tqr0EaC5LNqOhIxnA1cH6OqqDHcmZQMMCMr93A1YgRTG8F7BkPfmgkYCK+mG9YOvL6tv0MqyDoFPwfdquAwn4fWQ/rNsNpaFxqflhJljh0DBTfZZsmIlo5LMTz3WwqBjNrcEXLjdS4N4fF45hC2jm+7hw9Lz+5wtH9jGY9TFoQZK6wIbPXAEMoxsKUsqgciH1eWpM3xkqqPapc9iMkQ+UYXUDCtiLue8+cgr71XqihLRjb8MZzsTcH1RGcuAbDnvZCLxbBS/8YX/na9v1cby5ocxob6rH5WjEi36cwvpNfkzgPnifb5jE/jAN0Lj0znVMJDrMO9/mri63D8dnwPvd4+PhFfH0d/9saF8dnhz1818=);lineShape=1;strokeColor=default;movable=0;resizable=0;rotatable=0;deletable=0;editable=0;locked=1;connectable=0;" parent="zylOgOcTJYqcycn7VupW-1" vertex="1">
                    <mxGeometry x="1823.1689942287903" y="185.1625128927551" width="39.0502553373949" height="25.02459854548374" as="geometry"/>
                </mxCell>
                <mxCell id="zylOgOcTJYqcycn7VupW-57" value="" style="shape=stencil(lVjZUhwxDPyafVXZlnzomST/QRVL2AoBCsj199HUlidjebbJvsHs9NjW0d3ygW/eHm5fjocU3t5fn78df53u3h8O/OmQ0unp4fh6ere/Dvz5wDf3z6/Hr6/PP57uzv+/3C5vLn99f/65fOH3GZcScV1QKfw5P6mB4vnJlzPg8fS0AUQhjR6gCgD2vTwCEuV8GVBIwvh+oxLR+1WH91siLZffV+I0vl/h9+3EeVxAIzUASJFURoBQkcsADpTHJGimClZgi0i6ZgWxMwR/hgiCJGvM1yhlYpC1HCm5tFUKoJAM0MYolUKxAYAV0rhC5p7K/TMUYh4AEkgQIPjaTrU/2c+DxWTcUqzUQJQs062NAHsComQbyGOmC0yDvR/dAolCAIBGoYxntsoA/bwcYWwHtn5G1b0WzpoG6S2+n4ZIeUxDzr0FLxVrHM9Qcq+V/VISzwGVKTIAKFVX3QqjVMSzXmNKoLpL9S1tDdcAoFoQR9JojTJoadtxdaSxUvMuwDaQHI9FKiBK9j12TJmogYYzmmtjppW7Hu0DCmm7CmDlPQEKUgel4LYklNChlYpbIfdPXAKoeoCiKOmkJ4UaPoMjDa1UQYtalKoToNarax9QdwBQdEvXpxWg0GdYTKR5QAD9YGmS5LdUEIAn1bViQVHiqTQqJZTptfo3iUvo0Ny5elMajLeUJ6uRAfPZzzz1A1KsJQ/sAYK2VCa7xF2HL9bStEJGgDYB5KOOE/WAinta2ecBesQQpswV6HJ1UhSLg3xATKOiWBwSWqF1SdsAGk5EcOWqUBWvBphC8XwGcGgTzcA+rIj6zHSm0QpY5pBQ1zjlgbupuyTUPqwR9mgxwRlXaGsq9wHB627DAmH2SN0KERpds9JpbIiaofcWJh0TZ2EIIA9cPCBXSH1mKx0xibUccsa5k8TqQxlqlo26aQSY00VWIJnTde4+9ieXBj9nNjLsUPtZRkEJ0Ktz9NZboPnhaVbHppWNJ8ekxQKp21KURgKw8QRprhWeM3y2JqLJLJ7rc+rFvg9YaXczVjLIsjVPGxmjtk5r+4DUJ7bNBQKayaT6Sl28CpoSzVJONAl7QeexEpdSVD/ffyAONqfKZE0Ezca+n4310ALBz6HLwATOPAnuct+AmpOqu4aKfYf7wjBdT1SoPFH6dcf2PgN0m7GFr1Rs9hYCaxMAhNQAOgEgRXKf7zYAZJSMgNx1w3JodDcmXgxLgbO9AVy3LQKMoiR9ENkAKujnZYWRVUuDDiCJn2UMgDy0AZygF8WZ5n79twGgAc4AYbrGRSR29b3vfwDsj3/XzPenx8fzLfX2d38tbY/OV9r8+S8=);lineShape=1;strokeColor=default;movable=0;resizable=0;rotatable=0;deletable=0;editable=0;locked=1;connectable=0;" parent="zylOgOcTJYqcycn7VupW-1" vertex="1">
                    <mxGeometry x="1855.7506247592573" y="140.44028394581233" width="55.770085294245746" height="68.71557487848418" as="geometry"/>
                </mxCell>
                <mxCell id="zylOgOcTJYqcycn7VupW-58" value="" style="shape=stencil(lVbLctswDPwaXTEkQRLkOU3/IzNxak9dO+M4bfP3gaqRbMDyZnqTKKy4WDwHfnjbPr1uhhTezqfjz82f3fN5O/C3IaXdYbs57c76NPDjwA8vx9Pmx+n4fnie3l+fRsvx6dfx9/iHvxMuMVUZUSl8TCeFQv138H2y3+8OV/YcKGVjHxsFBgD9bC9gptjvA7JQbJZRoJLvA4reEA2gCmXgQ+2UugG0SDndB0inYAE9EhcAKFTSfwEqdbaUOkXgg1LKVtYm8IaWqFULqBQjAFSSYgHqFaDUAwl7gDQAyMTdUxIQh764uAAacQAAjbTNJSWJVIohUAgWkagChF6RXagzdSSTULXpqicB3ZBJbOR6owoqSHMtOkAnQaGWuSKXor7osI5gSuKvQEWq+dqCd4IFAOTGiToLd6/mvK6ZMi5StvmqoY6oDVQP0CJtqEgbFUtJle5I1kj1pkiRD1phLvv0pAJK7SZdRwCqOfYNvy0yrAPq3HyvnEbZp4kg4mWFlPos4lV3bSCXxvR3uZQpIUqrABC40n2z1KLOCKAzrXlZC5qj3TcmUadBF0jL/5Y5mqmCG2KZPy+TWmCJVj9RUqIA4hb8yOpfmHuHiUGH0cXEuUsVmGuPtAHLcI1JJJZMmuO3vsT4bhdhNqhntk9odsApNU/ui30AgYo8C31lD+hoJrTm7JH08abPRchHf+cqXhsv+P8otuXPVAD/1aUW8flyCdaHywb9stvvpwX8+rvfuPVo2tb58RM=);lineShape=1;strokeColor=default;movable=0;resizable=0;rotatable=0;deletable=0;editable=0;locked=1;connectable=0;" parent="zylOgOcTJYqcycn7VupW-1" vertex="1">
                    <mxGeometry x="1731.1244645655142" y="246.12861830993643" width="15.538242733242896" height="26.571753297351734" as="geometry"/>
                </mxCell>
                <mxCell id="zylOgOcTJYqcycn7VupW-59" value="" style="shape=stencil(rVbLbhsxDPyavRISJVHUOU3/I0CcelHXDhynbf4+3C7ULhV7igK97YMjkZwZSlO6e9k/PO8mDi+X8+nr7sf8eNlP6dPEPB/3u/N8sacp3U/p7ul03n05n16Pj+v788MSuTx9O31fVvi54jhQDAuKw9v6JZLwrw+f1/jDfNzEl9R/93guFPNtQIvUsgOUQtIAoFCpHtCoRgBQYg8QWwKlZOuJA1SmIhCg6gAaKKAdlCR5QCUOACAUfVtbIlYA4JGHVknKbYAqlegBVhUoWnPPeAOQCgAmJRlTCoDpKqTDDkwZMF0z5YEH6xsCJMqeh6qkoEsGqH6HGimhGgrlQXy5N/o6QCkVL2/tDrneVu5N3BiIEdNCyUvDTKsJaClQGXbIGGA8fKghgpRMCMUzLcYMtmj2aq0BjpkYzJF+i2qbopwaRV+1Kb4hj5qavTZstmUwK83C6rVhNkcAbdQGUzeoPi3jnNn04ToijtQt4/N/AnLqltxYSBDXlHwNuRGDLgmxXz+b4EFCaVR3ZihWy9YLKVU47EOn6Hd8hP78INTlBAX1hnHCxEYBTJhIdYhP/YC80R/1ojN+QbkyWjnjk43EHwqmJxBuuQ4HIdZzlHF9iwfF/ut95+/x9vDncvU0Hw7r3Wz7f7yM2af1Ipfu3wE=);lineShape=1;strokeColor=default;movable=0;resizable=0;rotatable=0;deletable=0;editable=0;locked=1;connectable=0;" parent="zylOgOcTJYqcycn7VupW-1" vertex="1">
                    <mxGeometry x="1726.2396080801113" y="230.24991339771668" width="11.96257048476673" height="6.884084131030704" as="geometry"/>
                </mxCell>
                <mxCell id="zylOgOcTJYqcycn7VupW-60" value="" style="shape=stencil(lVbbctpQDPwav2rOkc5Nz2n6H5kJKZ5SyBDaJn9fucYUHfBO82aMVki7K6FBHt62T6+bgcPb6Xj4vvk9Pp+2g3wZmMf9dnMcT/Y0yOMgDy+H4+bb8fBz/zx/fn2aIqenH4dfU4b3GaeFOE4oDh/nN0wc/r75OgN24/4K0DI1D4ghUACIoqTZ/0QiSeuAHCg3B2iRWl4HSKToAaVQ5XVATEu+BZCZFJQkJD4+5aWpu/FMsfp4IUUFUSwuXpRqXI8PlMTHC1VQvymUXDwXKqB+i/f9Rl06WqvH549MQWG/nWAUIZ1nS17Skzaols+ODZqohC78zO59e1LtuCcG0hrRXtpGAdReidW3miiD4itlr5Rx04BzKiU/vqzEwDmFmq9HCgXYbuecFCGbibSbFHsD6jefezpTgU7jnh/L3wpyZmp9/QLqD1S888UWJNA3UJSef1T/xbpX+uLJZc+n+UdgvPr8lRTS07p2KQL3cK+ujRacxKhdOPLaJ8OjKeN7bdAKYjus9twzAGSzCnt2EiUAqIHET6O5k8GebRfzXtkfLX7NvR8SlsAOAgk3ANCD3mysZLyBidHWb3P7M0X72QDaNa1w5apS9kOWE1xCBui2XAmLlPetFG7m0k6ODJSbfsILUXmx4xog+Zpqg5M/0dTZ25YlWEUGiN6urS4pVqXujsWwrOM1M33uuvwPgD38O2Zfxt1uvoWvv++PX3s1H87y+Ac=);lineShape=1;strokeColor=default;movable=0;resizable=0;rotatable=0;deletable=0;editable=0;locked=1;connectable=0;" parent="zylOgOcTJYqcycn7VupW-1" vertex="1">
                    <mxGeometry x="1752.278210864824" y="240.95488152545886" width="37.311790715422376" height="6.1010904159652455" as="geometry"/>
                </mxCell>
                <mxCell id="zylOgOcTJYqcycn7VupW-61" value="" style="shape=stencil(lZfdbtswDIWfxrcERYn6ue669yjQdAmWJUWa/b396BlOI2o+Q+8cRZ8pHR2S8hQf3vZPr7tJ+O16OX/d/Tw8X/dT/DSJHE773eVwtacpPk7x4eV82X25nL+fnpffr0/zzPnp2/nH/IZfCxeYpM2U8O9lREjC34HPy/zj4XQ/X6lJN9/ekHQbkERS+wAWQbaBmKn2QCwU4jaggUoPqFAs20DOFHMH2Ai3baBUqqEDiskAVKqVEndAlVXnfwItUe6PoWaSDIBGpY/QCsUKANtDv2kbUQZAIe1ltZhI1mYisgcqWtJgDQMaUkkoDxEyAgKF5AFGm2Zi9SohoLbV/TfA/IuB2J90U1LkJRPRATfdtvbggUiSoKyuBthIQhEiteSBgGRVynkAQBEw841LUpQPlXLym444gbR4WRNQKTAP/lbsPjs5FyJTQxnUKLhdVwqguM7mdO6zVwAz2QJ0AAqKkKj2wJ0OW+YYc66C+m1Jqs0DgmRiX79NB3TWlkI+QoFdbk5SJ5Oult8C8uCmDFLo40AZCr71PZBC1nHcOdQCe1CxDHMAQ1m1rQlza4sMW3tKvvZphjknda2lK5ACMYhg1xNnDbGDA+azntVvISR42WBfNRR6m9eX3dYP7w1DhYnQdfZ2d7WiBizE3nJCDNIs+NMNsO1Yy+i3auFAYYm+lTPMyOQvhbgIZV9IGdqm+CbOsADVce0F9de1c70LmcDaP3wl/+98e3i//78cjsfl8+H+f/+9YEPLt0Z8/AM=);lineShape=1;strokeColor=default;movable=0;resizable=0;rotatable=0;deletable=0;editable=0;locked=1;connectable=0;" parent="zylOgOcTJYqcycn7VupW-1" vertex="1">
                    <mxGeometry x="1751.3139584192809" y="227.32224164729223" width="31.058277788118176" height="41.72291173122949" as="geometry"/>
                </mxCell>
                <mxCell id="zylOgOcTJYqcycn7VupW-62" value="" style="shape=stencil(lVrZchw3DPyafUXxBMlnx/kPV1mOVFEklyzn+PtgsiF32JzpLb3Ja4AH0AAa4Fzipx+PX74/XIL78f72+vvDX09f3x8v8ZdLCE8vjw9vT+/21yV+vsRP317fHn57e/358vX67+9fNsntrz9e/9xW+PuqVyXmTSm4f64/eKn+vx9+vYo/P73sxJukCOI+nYt7L65O8k5yIPJRtIC8i0S+iMf1nTuXD0F8AHlVIl9x/bHAoXxM0mb7JFFinxS6+bp8FUfMn5p4N9vfSyMXyFmSzgoqjpxIff/vodCkNqKQpcwKIUokNtImGWyqEsmRSpA2Y9RgGImVylivK8QgmdyhNHRbtCWIQo1S5iMlJ5UArxZJbVbIEsgOzS07WOwRK7Vh9a6Qh92OFewAs5UMLIU4rmm/4lCoEgj4WpE2X1pdh+OxQu1QGwrmOHYHw9LsOE2SClVo8x1Ue4gfZxg3MsrQsGsxR1i8wJmaFH4mgGvx3BFVdN6hGB5JmjRH/J/Uh0KWyuyqGHKl0kRvCn4+UnUd8Wfoi6AQaJ5pSfJcGmruxeUsIMoMJgtCVhyaxcscQdUMzXbw3epdwaI2EcdVQ998B9uT1UM7cZkdZ2YoLM8kqbCD9l+OFXzPjEOh9vx8nCsrOs7wyzxtUIOa1Ua6PVbwWFF2QXhcUgzfCbeoJNHo4uotCMkOuWBZNDN5UoOyWzyn3Q7Hpd3wDQpRAnFENC4wl3ZDXyRBbeQkz0G9VSXGZpwECLlxyGO6pN2IQ8FT/rPRqZkLGLxY/vYVwbTBixzJJ2SsBi+WZ4xQBUjflebKimjdKgpjWL16DPnY0/kxkkRnqFoRZSkgIYU27FJYYG3IURJz8kJxW7fYiTx4zJBemMcQQwZ0hlLXc/SQj9JI3CygNg+y+44OZMdv78gDRW+UfDoMY2PoSvxlJWa+r0GcpS6H/vKBsme/rG8WJuv7paZR+NvmszhnUwFpsCVilrK66QaYef8lIYC4I2XDgDubZnCSk0gHgh1pIlFJDsVZDZOsIM46QQMVNCCdsZ2IL1eNdHVIIonmtKWTSLzHRJ6V72RYhYxG+0vtFecmzpqUpcZlWhMVO/xMC1zGlomfPSPdM8sQiOXV7o2xnhUELJps9QDikV8VD8O9Cnk49sRzZncoC5QHK87B7sUqkLXYCeUZIqGZF0cPg70/ZYIHwZepIRdxNvJbDsNz5HLVfOfsGTNwookjKohn1hh8TDyv5YBBzPA6B5/SGVCUCFy3h9cZz4L2lbaKofv8VobpZLOX0d0g0RHA+264HYtgLMV3gO9YCjO9cdqFBbGRxuAke5ZFWZ8uLI4lVoeJ1czP5nUeWaWxUAYGj5OurZ0j6wdkuSnRQInor1RphkoITusCHDmPhQrUWKXTRu1d2q6LYdm+4Exsa9nZ8AYfGpQXToM7Tg756N0nbOiLp5N0a1Ux3i2NExOZjxPMAQtl3lvyhIZ+hNFZQw9lq8bOlc5GBsAAqtIsZCiGOlobxWla2tUWOONxOF5tnA1a+wvQa4WSpA1pMFgZM6/T8dOiwPhsWQeHjb5zldyT824HxvZLxVK2jfXIDtVj92FWYgWkJmTZbXDXs1km7sApmSEHd/B8zO3xCcSWYKMSg1oCtFZaBW8juV080BeNhHPDm93OFHBqHej4w6wOA1xLAiyRNe3ji32aYTsUrG0GR/bCZ1CD4l9ih+OZQpkdVzzfofUIHtmbD1m28e6H0r0pBHiKUv6g0ZZ3okTH3HZpiAeNdEJsfgCKp54rKM5acuVPVwnn6FbV6aPjMgw02qD8WROP5DqTOMsa8LCUlPZOVtHArMnfe/wFKhkN8MSsRZE7G9djIVoC1jgrxJ71f+N9e7DPQgPIyA48L28tI2vqHE4CNgbO+F7GsbhXiqWNby4dQyUMPS2DxEoZZVwyZeZsqXZCe+vZWfRsLRK0MLQgbt+iNJBno0q/fEPgaWO9Pkx4/jaOHUPog+bjuMEoCD0XnIhD3x54LUdqe08c+vZ7h4FcHWhnvXCjQHPWwTdArNOsWJoCZQgV54OBcs2D1VnbWHFEEXjyRMvwr4sqsiH/Ma/yb83ufppmf9w+a/v29Px8/Spu///4GZz9dP2ELn7+Fw==);lineShape=1;strokeColor=default;movable=0;resizable=0;rotatable=0;deletable=0;editable=0;locked=1;connectable=0;" parent="zylOgOcTJYqcycn7VupW-1" vertex="1">
                    <mxGeometry x="923.8500519400909" y="132.01589944641637" width="414.5685805046096" height="257.59702678887834" as="geometry"/>
                </mxCell>
                <mxCell id="zylOgOcTJYqcycn7VupW-63" value="" style="shape=stencil(lVbZTgMxDPyafR05zuU8c/wHEoWuKC0q5fp7UlZJN2HXgrdtaiee8fgY7NXr9u5lMzC9no6Hp83HeH/aDvZ6YB73281xPOWvwd4M9urhcNw8Hg9v+/vp98vd2fL89Xx4P9/wOfklRvJnL6av6YQdmH5ObieH3bifOXhIax8tvF+3JwRu7L2AWbP3sbF3DLJaPCG18QeEsG5vPFwLwFhE5QEWiG0jQlAIcg6uRUxgs24fqFxXA1IBx4xYGvuAFNftRUChvT+WCBcdUoBrHawBa5QSgVoILoKUmJLAtg7BwojiYIrIquwikpIFoT7NkopSltMQYFrUKcJqwqMSceX1wsOih3W9R37CKU+YBHE9CBV1kX5lSVRaDcT0afDK/Ut5dhriAm+mJK/FYxBbwFmrQRFSrkXqdAGjdCObQF3SYLRu54vyL8VslHgiQdp25EoxLSfMFY3NupGWgeTK+7N+Z5UXlh0UimrlVkY9ohIRF8KrhlxpUGsa6gYCQ1TNxY7RfKIA/tV+OYEVvIYKvJoCKTNxrSo7TZjabJYZyp2nLbM8Yp2CwPSUktq6vC0T+2Kv9aHg+xSzOpJj6CdIVFcE8fBdFeuS+PcS8geH/HHZeR7G3W5ameb/9ztSPpr2K3vzDQ==);lineShape=1;strokeColor=default;movable=0;resizable=0;rotatable=0;deletable=0;editable=0;locked=1;connectable=0;" parent="zylOgOcTJYqcycn7VupW-1" vertex="1">
                    <mxGeometry x="1156.9886234015285" y="382.99011710330706" width="4.0220202352174965" height="4.023853164263983" as="geometry"/>
                </mxCell>
                <mxCell id="zylOgOcTJYqcycn7VupW-64" value="" style="shape=stencil(lVbLctswDPwaXTEAwRfOafofmYlTe+raGcdtk78vVA0VgzIx7U2WsRQW2AUx8cPb/ul1NwV8u17O33e/D8/X/cRfphAOp/3ucrjq08SPEz+8nC+7b5fzz9Pz8vv1aY6cn36cf80nvC84SZDjjAr4sbzhCkx/33xdAMfD6QZQBCQZQMqAdQzIEXI1gFxA4hgQBdimVApwGgM4QrKAqinhGBAQqhiAMASHdIVoKYhAYYczUNjEOzXiTT4FisM4NHo3+VcnHiFnW6CV0SAeycYHCE5BsedbUmv6IF6KlYRA9hrW119FlcSREERbz0xAnkZbd1ZNa7/COF6A2J6PwGUcTwShI8yA2QEEkI5BgeQolCKQbVlRSTuSUEDqAOL2bP6CNb66jBwTkFK0pIVAnKpqlbgDZIgOB4FgfS/rm0GbxVImRHdQxKbK9QMVsuvL1M2JBOyVCLAjoDpydI2bFkR3MmI/J3SSVqdAOic6TRAkN3+xvs8qCaee3PsshybbQcO6/NWX4vjsbrynab3rOuNryx2JMkG2vozrEfcVlJsA1vtVmgrvU6CeA6N7d5SNkbWNxZktdXODa5M9l1ErSYtH9zLQu4hzF++ZTD2Cfbx4+eTNytKuq/vxZTNLAb3zBdC2TAvm5b/eFWs9o+963PiSxN2h9BPVluhzZRgB2OY07zCOKHSwsS0Sh7ZVjapKXReSn9L/bpr/ANCHz8X25XA8Lnvx7f/9IqyvliWaH/8A);lineShape=1;strokeColor=default;movable=0;resizable=0;rotatable=0;deletable=0;editable=0;locked=1;connectable=0;" parent="zylOgOcTJYqcycn7VupW-1" vertex="1">
                    <mxGeometry x="1114.9977557984957" y="511.1405548753901" width="25.86575378257885" height="9.329837807511922" as="geometry"/>
                </mxCell>
                <mxCell id="zylOgOcTJYqcycn7VupW-65" value="" style="shape=stencil(lZbbbtswDIafxreERFoSdd1171Gg6RIsS4o0O7396BlKLLr+i945Dj9Z/Hkc5OFt//S6Gzi8XS/n77vfh+frfpAvA/PhtN9dDld7GuRxkIeX82X37XL+eXqef78+TZbT04/zr+mEPzMXlbJOFIe/8xsmjv9ffJ3tj4fTwl6EQujsYyEBQArt7wZIppi3gawUSgekTFq3AR2Jxw4oiQq4Uh0p1Q5QpaIAqKT9F2qmhL5QqUoPFBqB0wZE7gElQYCd1/swHTECIBGzB0oAAFMaPVCBSmrnyQoAPmihoB7IwAeLtK6AkAAgTcSFrIwAptwnnwktAgF/pUyCVJIm4g1IMJc0rZLPZACBs2Rm9QDyoUYKqy9EoFIVUvYAFwCYJskDGdT0lP2jV0nQlSxzoo8DA5ViCL6TWahhBdVVyd1a1ZYT66KuqOQyhVUFJXQlaV1lWXIMgEC5BxY6bBWpb2UVNkvL15Q8gJLDKqKolyl9UHOryMG+8Vmg1DaibkCgCPLVhpZLv1KIQe9L7EOdtKXX1uDVHpACQx2TB2Jtg/JdIPhcGqEHq/IRSiCPzLwvHqYCbh+o9PUfqYIciq2u7uaMxGxXbeahja73g+WVCXDlKb7GzHc0ytuQXJijxsVtgt3tI7h8HNs8utuPyN76pjh71LRs/8vVaY/m2Wc3zo/t7eG+3r4cjsd5O17+79dhezWv0vL4Dw==);lineShape=1;strokeColor=default;movable=0;resizable=0;rotatable=0;deletable=0;editable=0;locked=1;connectable=0;" parent="zylOgOcTJYqcycn7VupW-1" vertex="1">
                    <mxGeometry x="1125.4240207441603" y="490.42026965355444" width="16.465024231435564" height="48.7701485726011" as="geometry"/>
                </mxCell>
                <mxCell id="zylOgOcTJYqcycn7VupW-66" value="" style="shape=stencil(lVjLctswDPwaXTEkQRLEOU3/IzNxGk9TO+O4r78vVA8VEVY245vicEVgsQSWmvju7fnhdTel8HY+Hb/vfu8fz88Tf5lS2h+ed6f92Z4mvp/47ul42n07HX8eHi9/vz7MK+enH8df8xv+XHBCMc+gFP5efkhUw/8fvl6Wv+wPq+UxUIjD+hhJIgAw5RFgO7QCAELCA4ALVf0YYO+LbQBkodoAoFJMA6AI5QwASjKSVDPMgY3EMQcx3hCgko4sSYE5cCNJPiSUQ06+cGUp/TagkIy0ltD33ASURLmMdahUKwAoqQM0KvIxoBpLdQypEoMdJJHqyJJQAknLEsBSh0YBABoThwHQKhWg1iZefBphpZUpjHXQAFnS3FNcQlJqDADFJ22AggBWh+QBMIdGsfocEgIoxeJZSihp9WrVBHOIwU7kWDljWkGpN7YoxOBQz0mMhTDiKuiVM00ua4Fiui7E/AoEsFJXD2CUtImJPSAgbZhcxefAYKJYnaJ6lhJiKfZxsACsGyMxGcCxxL1VfQTQKzEFtEMicYUL1FAduJ/IFQDSWnzbmM8oCqlSbjcBbO7KVUhIGq3PwBVAUaW1q39NK2JJr+pghQP9fga4M51xHZSyA5j4wJCzpIvL4RN53wpopQthcVjvrWobEXsbWiURQbMU6Syu2zGeo15M5voAwCZ1dgYoQvVVm2ljIar1b+w22tgFSqEGQsrq5Wp7KtCGuRd1rk9g+87Z0yoZemNeeu9Cq9kJ5PqCz6FhL2BW1/VKYai+lHvvXScNaE0WkjPTiv197VZh5SuRvO2C4bwxSzeO22r194G0NM9tVruzWA5c7nN4c33wAwu//spnZDjegj/+DJ1S8MEnqCCz8GMwEerHOstIPR5rqV9y3pczXO6OcIBTlr3/wrrJVH0w6L5TKItbXsDbqxdBhBe86g0C7p833so/XW4P7x8AnvYvL5fvB+v/+w8G9tPlYwPf/wM=);lineShape=1;strokeColor=default;movable=0;resizable=0;rotatable=0;deletable=0;editable=0;locked=1;connectable=0;" parent="zylOgOcTJYqcycn7VupW-1" vertex="1">
                    <mxGeometry x="1150.2323233396655" y="497.225902421711" width="48.251566853730765" height="45.946194923538314" as="geometry"/>
                </mxCell>
                <mxCell id="zylOgOcTJYqcycn7VupW-67" value="" style="shape=stencil(lVbLctswDPwaXTEkwOc5Tf8jM3FqTV074zht8/eBqqErQtYmuVESVgQWiyUHuXvZPzzvBnYvl/Pp5+7P+HjZD/JtYB6P+915vOhqkPtB7p5O592P8+n1+Dg/Pz9MkdPq1+n39Ie/M44LOZlQ7N7mN5kk/3vxfY4/jMdFvFQqvouXQI63AZGp5g4QC4WyDUiJfA/IiSJIKTNl7gCFiQUAIsXY71CJ0Q6VgiEpkwc1FKEabA0QUCixBQgAVKW12JRyBAAlMfUsOfIIUKjWHiAkgFbvHDnXIxLVBLaoFHtAdZRQTpliz2vF6tPP0vOqPGRQhCbge16VhwC0UVZi0qocarWjyqsdAECVkMuqBsBSllVKyhIC+DZgyz6glDw5I6bU1LI1oxagYgLSyKGxvpQrmlE1MjNyOhBgBzWJ0Ivvg5ErufX1k0NdPSVnU0I11NiEsDQmPKPSG9NkfQ5OXDGA2NzzswA1w4BTMiPK2AQUEL8CiJG419LCeW4iglBYyTX7bQDXZhINoKcSEpMPlqbg4QQ5Kr25eu0DKME1m7vGCyx5ZcXeEYM+az7m/KEIwtkeiBEaTLB0aoeRH1Hq7xgeeoWWVvqxcU1SW82SZOIRlz5Tifb/iBxPPpj8GWhB6THWxW3D2/FXn7qKrR0pt+O/eMf7OF4X/y+UT+PhMN9Hl9/tBVRfzZdXuX8H);lineShape=1;strokeColor=default;movable=0;resizable=0;rotatable=0;deletable=0;editable=0;locked=1;connectable=0;" parent="zylOgOcTJYqcycn7VupW-1" vertex="1">
                    <mxGeometry x="1199.0598768662867" y="522.0472453876805" width="13.417488641745877" height="16.93166862488488" as="geometry"/>
                </mxCell>
                <mxCell id="zylOgOcTJYqcycn7VupW-68" value="" style="shape=stencil(fVbbUgIxDP2afc2kaZO2z6j/wYwoOyI4iLe/N7gWSGHztpSkzTk5J+0QF+/r5dtqIHw/7Hcvq6/x8bAe4t1ANG7Xq/140K8h3g9x8bTbr573u4/t4/T7bXmMPH697j6PO3xPeYmg5GMW4c+0koHj38LDFL8ZtxfxHCGQiQ9Q6ny8JOBk4hEQ5+MzQ7XxBMjz8UX6ejIUmo+vCTDY+gWyl1CgoC0ot5XbCRWqZTTqindChmRL4gDZ4bQGiNUkCEEoDknUenoiCRsNt7ugBYhNSJCS02YEshi0keiAThXQYtAzxcGgJLItSaWVvQQCsaBZS3IwUO2lkSKk7CdYDFE740hDSypsxVd9DKqcTq0IwcGgtLK1Q4ToQNC+/ZN+tmdwpJcJiLr46owLVV5nZ24Fzkk7W7cF7YG45mHbA0VcHYYCngbQiSJubZmbAGINnTJULyFCtm3mAtUBURiyZUly22I2ga8SHNRFhdkZWjF4czi1EdQSdNKKU5IIJGs3pYGdE1h6DEo0OlpKArG7etC/TOIVTTqcyfGbqlO6BHZnt14eYg1a1UDOZK0Q7AHqEM9wKqVurlI78Wa8+tmKW4Kr1SszMEJx9j/tdnG5FSM8/Tg/Np7GzWZ6q1z+3z9OdGl62MT7Xw==);lineShape=1;strokeColor=default;movable=0;resizable=0;rotatable=0;deletable=0;editable=0;locked=1;connectable=0;" parent="zylOgOcTJYqcycn7VupW-1" vertex="1">
                    <mxGeometry x="1189.5352190490307" y="499.12903225129503" width="5.621034064455216" height="5.336970915643633" as="geometry"/>
                </mxCell>
                <mxCell id="zylOgOcTJYqcycn7VupW-69" value="" style="shape=stencil(7VjLctswDPwaXzEgwQd0TtP/yEyc2lPXzjju6+8L1UPZhKTt5NRLbrKMFQlgFwC5kYe33dPrdhP57XI+fd3+3D9fdhv5tIlxf9xtz/uLPW3kcSMPL6fz9sv59P34fP39+jRajk/fTj/GL/y64kIkLSMq8u/rm0Ip/H3x+Wp/2B/v7KMQc2dvb4qsAyRRzR0gRYp1HZAqVbcjpszrAPs7pg5QC1UFgIF06ACqFPM6oCYaesAQiSMAZCq1BwgFECXbMYcekEjQljIN2gMy5QECstsSjpI5rdIDKilIXBWqLkqKV4gtrxNgoFQAIBBnD1Cc6Rw7QGBuBF5GqOf3uARIdSmU1QMEOFEyifgwIQUVY0LyiSjA62zfc/zmFrhlQKTSs68YXcEKyZzuNZpMIqBsJCHtfYhKCdA15abIKXOTppZ9CJSdD8QoDUKp1wPDtFVtMb/ZIyKZfp2iI9SnqVF6qkpL+7K9layeqIkKsjdpqYuPgHjeCWViUSPu2gLVa625tOaBK5LWjAJyodDgOCE4prPeE1IrCMuASMIeoMBpteIwXwHQQk26ZeYD4J1aoS8+SgycVlOi+DyghmsAlwfF9iZNrzSUZy2+zNuCKERWGXp7UwKoLQN74sVWkpftxSsnNmks20+N9bYf1PzH6pycvwFUXxNO6BOW2wS0Zj/08Z84tWrvWhqspON+nAgCpKg57AJknA4IYBF1FE2Qcrfp6V6XqPoylZkuUc98N8AGBa0+SowaVPUNJ1SKQMjZdNZXbEs0EoKt4BJtozYaIm2ySL1yxlkarGADmPRRqhU6/b8mZ9BFPibnj8l5FcBt7L1jXwIrZG4uTr0T10qps/N2hpK7NY9J1MY+NLgFP/3HaVRcBMzap30BlRmLkatjDGvAwhxZQVGyCtQn2eomkDP7g0WhCEgXWtu49VrUm63T+1aOSnbyZxATNpKMb7QC714q1eTN0UA+P1BA3vDsogbuxljiBtMMafPem6Z/29vD7VrrZX84XG/F7v/312D26nqFJo9/AA==);lineShape=1;strokeColor=default;movable=0;resizable=0;rotatable=0;deletable=0;editable=0;locked=1;connectable=0;" parent="zylOgOcTJYqcycn7VupW-1" vertex="1">
                    <mxGeometry x="1210.3364245929397" y="510.31049128840414" width="24.510617699058002" height="30.35176661772175" as="geometry"/>
                </mxCell>
                <mxCell id="zylOgOcTJYqcycn7VupW-70" value="" style="shape=stencil(7VnLbtswEPwaXxckl89zmv5HgDiN0TQOkvT19x3WoGqurEl7a4HebImjfc/uSju9erm/edrvgnt5fT5+3H893L7e7/TdLoTD4/3++fCKXzu93unV3fF5/+H5+Pnx9vT/6aaf7L8+Hb/0J3w74dRLLh0V3PfTlayS888r70+Ah8PjGSB40TwDioSyDfBRcp0AxUtqBOAkxhmQpRJAkzibUIOkSAQEiWkGFMmOAKq1ufkh87KToLDOAJXmtwGaJfkZEKWFbUCEV5MFeN0GJCe+WBsy8VIK4/biJShJvASAzhIKMoNIiFVcsLnHAhdhw6xSLKJEJWS3cau+ETgVbRMAsY8sWYuk2YYmhcTNq03WJI5Vj5PiZguoxb14ZouDlETPazXnPdcnz8/348Ll816ccei4sHW+zOfdSPStWjb8BYOYPro+T/WJw31n55n/k9RozzP9wRRWH1YzyLdSzfnEnl8lqTnfWHybuJnqUDCVU+NsL9iY+KerO+sDixoxGPURZ0Co0ljNq/g5Q+OS45dZZcVb4EolLbAz45wTqY5HXATkYGkoR5oV6JDGq2iyLO1KtWmUOW+hH6VqJbC+35IEtYBE3NqQ2ckCCgNUCcnawGqhtVHqZwDWNAFoM5lmsDWX0OZqKKAjLiHO9IVQRubWOjreAgABMy+hpzoLKCQ1ELgcLKAxlXRlNAAkW1sYJX8GoLm0agrdaMLazQ2fnLmV1XRFXM0sshDPFqCaemjcBmcbP5KvMi95GwcAPC9Rty4gJmE1afcSJbyEEtVgAZknX13Z4JiX2qCtMwCVgMBlGwdWQN45KwKhVhLqLmKmDSQTDUS1tAEAraCyWnkC7dIIhF+XHCuIbKf5NwAVXdHYoJQ2SrKTcOcZ1uTA997GIRGuTGWV35myccxWpezoCqOYHeZ0RetmkcawkWYJ0Y+M3xrHzGaI+YdxJeZb06gxQTEbqiXjNmaJzX3BbDz/94W/fF+w8/lb+0I25/+lfQG3zQqvdHQO6GmzPnzU1lX++2Vgugxo4meOwCMCiXCslknBS4xUUrYjHvYBxnPZWxYqZSi5tV+YmbCiLZOs7tRrWCVRroaJZnjpwzdzaxxv1JY4OF4JyIxmXlDVwfebVDe7qUVa+2qXKgx9juTqarCo4DpWO6OylrBFaWQQKTaRMBtRLko2txH4xootjdV66X9NApEAldxcbdhs2ViBagzBAgp7fdzsu9cO4AVtXkN2lYhXFR1BV0YzwOpFZ+Kjv+qYL8/mEMoxuhpq3RiWtgB2UeVrZJew4hjPVVJnAWwehJcMKWWlneePvyz8BgA/fn3IuDs8PJy+g5zftx8+cOn00USvfwA=);lineShape=1;strokeColor=default;movable=0;resizable=0;rotatable=0;deletable=0;editable=0;locked=1;connectable=0;" parent="zylOgOcTJYqcycn7VupW-1" vertex="1">
                    <mxGeometry x="1243.9176962772235" y="475.3157217994444" width="35.00381606094561" height="66.2221152778684" as="geometry"/>
                </mxCell>
                <mxCell id="zylOgOcTJYqcycn7VupW-71" value="" style="shape=stencil(lVbZctswDPwavWKIg9dzmv5HZuLUmrh2xnFz/H2haqQKlIRM3mgaKxKLxYId370eH14OHYXX2/XyfHjvH2/Hjn90RP35eLj2N111fN/x3dPlevh1vfw5P46/Xx6GyGH1+/I2fOFjxLFAygOKwue4UyDKv42fY/ypPy/ihQCTiacImfYBEQHRAAQhpH1AClCrAcQIUvcBlSDYE3KCHBxAAgkWUCE5SdfaJl0YOO8DMAQI9oiSIXp3KlDIACpCLA5Aabd30h1CB6CFYAvIUJ0TitJueVUeEu8DlEVaAapT6syAxQIK1OhoQ28sFqCldpJOAiFaAIN46kOoNodSIfqAbE9Q3tiRa+KprjMAQZwO0qQbWnOB4Mg1E5CVRo6QHJb0e+0J4uZQZLrxAhA98YWNK3mVVjFjaJP26qDKkaYO6gtOjw7abABpsqo9gDTim7Pa85lqvbWqHL2eppUJZEAnBzWVxsn0kuRoSaVG1lwXVrWtjbiyDeXBcYE098siCc/JBkD+DkCUdls5dR5xKkd5svcJkOKklm3/zq2+pfodBMWmwDQRvRkf2qmL0W3p1ThB/b5ThADc1ADYYRSnET7zA8krQDtwBchRaW5bmYAdLjFAsfG64XCJArWNR0fRuJrmfgeQznpu4j150tyzc7GgOPlyAGnE445Z5pb+OM2s7fhvPvG+jtfF//fkU386jc/R5f/t+1O3xrcr3/8F);lineShape=1;strokeColor=default;movable=0;resizable=0;rotatable=0;deletable=0;editable=0;locked=1;connectable=0;" parent="zylOgOcTJYqcycn7VupW-1" vertex="1">
                    <mxGeometry x="1305.9258528903551" y="502.9318229174455" width="11.738892834852322" height="17.539208300577684" as="geometry"/>
                </mxCell>
                <mxCell id="zylOgOcTJYqcycn7VupW-72" value="" style="shape=stencil(fZbdcgIhDIWfZm8zQAg/17Z9j85U606tdqz9e/tmZ0c0uJ47xP0I5JwEBl59bp8/1kNwn6fj4W39M76ctgM/DCGM++36OJ50NPDjwKvN4bh+PR6+9i/z74/n6ctp9H74nlb4nbmSKZeJCu5vngmZ6jzzNAO7cX8FVKEsBuBKrgKg9oAE8gkCbLeUhEoEQKSUDZDLeWYRKIl8MEDRmHwfyBrBG6Amyu4+kDxxMoB3jhwgYu7TVAsVkFcWCs4CTBEoF4RctKeOxHIf8IXYpikHikAIf+MNUW94AGSSaoAoFIE3AlOyeWU+p2E5S9yfQZcQILVuQOwZdJNoS9Ls3wA5u2XZTIHECqeJ9kDpSaauRiNVcAY1QhdBzeLBli5WazpkSsBLV25uRaqWRyFawTQzRRIQYirJzq5atkBqLfouwqUxLBepthWb10vrWZY6UOAeyKCCtDV625mm9gmUC4Wc3VLJMMIE1BsA2FW9JraVlQB7n3c9oMKhCLEvIM1zBPZ25/umNQ1tVEC2G+fFCC8g398O2hNQuQlVu752DBfA+q0ptnqO5JFmeuIuo9DY7KjY71UxdJV4EntifPWorW++R/dC4t7V3DlIB5cHx2bc7eb3yvX//QNFp+bHDT/+Aw==);lineShape=1;strokeColor=default;movable=0;resizable=0;rotatable=0;deletable=0;editable=0;locked=1;connectable=0;" parent="zylOgOcTJYqcycn7VupW-1" vertex="1">
                    <mxGeometry x="1290.867960842476" y="477.8753124585196" width="4.67253977211476" height="4.665236216356789" as="geometry"/>
                </mxCell>
                <mxCell id="zylOgOcTJYqcycn7VupW-73" value="" style="shape=stencil(7VnJchQxDP2auapsy7Llc4D/SBWBTBGSVAjb3yMz5WYspx/kGCq3WfzaWp+WPvDFl+vL+6tDCl8eH+4+XX0/vn+8PvCbQ0rH2+urh+OjfTrw2wNffLh7uPr4cPf19v3p+/1lP9k/fb771p/w44TLhQp3VAo/T7+kSrX9/uXdCXBzvD0DSKCSJgArVQGAQq1MAHtEyPuAIhRnkUokCfuAypTzBKiRctkHaKQoM6BRrgBQSWYdVCjxPqClIcAGsBuAWVul1iZAf4QCgA43bQCmgG4wAaIHKLCSAXT2dMvQ0zGYY8OMEKoJXtFmzzWLR6yEC1czXME3RKe1wtjofzsd2oiWPc8Je0BBgEJSPaCBhDAjuug7s/TTiPzEFYrMxEPkM0AGAMsIdXa1nAMZoYnCfENPIXBDzd5zVSlEwBsWnbOZOg0gZhLiOYVKgTRgZMmzDiVRBJ4zakwzQIxdgQ4cqOoMSDCrU6Y0ezpnSDRRSWalWWC4RvbRZxUCKd2IZ79F+wU4WjyR2Y3IRtHnW4UKB5JZnDKqxc5xV3zkL8cd42ViwNphWG4zPjSNyT4fT/C4lbU5FiKUPXnZLfjg8abueAJxkykUdxxRlhX95ThK9lF+z4QBmVspLaqiek8heUOCEFNPnuYm8PQYfUdUiUFJioXU+dVKPYgys444+a2GgcAxAXT2bY9URDvqewMzUQH0b6yQXCgzJaRDG7y3AfIIwD2RHJt3M6B4tqCYmaGbAYSoxWhxVlKsNFMTD2ggZyxwvEgKudDcVLLXAd1ggeDaG7MSyvqoy4AgQ8g9gL+BRzjuAarTIZJiHYqzUoAJZ3+3JR8SCo3kibeXTRR8VoabB6Dew4zYFoAiHepoTc50QIOaRY6v2xGTQPMUbGZA3XvPaefpDJvGni4ugcroCveU9sxaYZfZ64LjJR1jz57jXDfRUxSRQPIdWudCpEP0HYUBEqD7ZwOWSbBHNwhW9ir/KUivHdRrB/UCOqjmFz4MF0Qx+cnQBm5UwsoivdE16uiWPUaXCI9tOivMVvMAsdlg6FZW3EbP9jRAxvpoy6sCK1KOvkhKhKuV3PwNYnYDOshC/yVAkYpRsdsECgkA1DbCZuusbUAHVlL1/NA3gWg9JKPz3tYYBZLtf7zYAxn0uthzZngxiz27IcRFa7TYq34p1oUEsaFpkO/ZbhxxX7XQcct0zK7GG35FJLCeSPMjSH8Jgd+CuPgW60OADplHhm10HMee7Gn+br4VsRKAuI91qUE4XHlh178Mm7wOCNsWeA/gB7UCZ/gcli0BZlczYlimU0RlvcotAJQPOZE2D2CQouZpzcsNwEo5L/OvwDYyy9LUFti7WeWPy9yFOv5nvxX8B4B9+PMS8sPx5ub0DvP8f//S0n46vfDkt78A);lineShape=1;strokeColor=default;movable=0;resizable=0;rotatable=0;deletable=0;editable=0;locked=1;connectable=0;" parent="zylOgOcTJYqcycn7VupW-1" vertex="1">
                    <mxGeometry x="1316.2969553260796" y="483.87832221615054" width="43.598335247719206" height="44.98370599053351" as="geometry"/>
                </mxCell>
                <mxCell id="zylOgOcTJYqcycn7VupW-74" value="" style="shape=stencil(7VjJbttQDPwaX4m3L+c0/Y8AcRqjaRw4Tpe/7wjuU0TamjQFegvgg2y/EbfhkNImXj3f3zxtN8E9Hw/7r9sfu9vj/SZ+2oSwe7zfHnZHXG3i9SZe3e0P2y+H/cvj7en70810crr6tv8+3eHnCdeL9D6hgvt1+sVnmb7i8/kEeNg9LgC1SPIKEL1kAihBalOAFCWmdUAqkjUgV0l1HRCL+KwApYkv64CAoLWFhhg6AbiRkwHoUTqJwTepRQOydEcAVZx2qVcpkQCyOF2H3rhLQUrVgC6VAZx4Qw3nxJEgqlRvLRSS1iyx2RAa8WjmzSJHidzfn/mTpZKcOskmQ1FKZuf/ZGM+7yUSouJ81LTr4ki8blifz5fRSyvxNp2flqSS1vRdmi4AuruwAmTxOuLqqIXsR4Hm1oyjuy+rxRmtM2JmnIvSdKelJolYAMD0MuSFutQl6bRmyAuhEWIwnTZZ4BIZTdBZmidp7ZbZOY5mvQyAxzqG1KWTGOCxETDIMuM2LBSd1hQGuy4H7Swggo4srWCOdikiraQ9Sx1lmgFFAgGAzD1bgGfkS0OjFy45UoeKtFYbtCfUaNAM7VLyY2JfBngJptKQ2TcAuqfRQJ1UunabpQz+srRikmkLoLdnLZrsjgE6el64anq6jXl6mRplTOOFhca4hNmjyQddYrMH9E5GBBKNAR5nzSWIpyNbzNSihhp1dMiaBVvpNNR2TWbMQEmODiAIWdYWImwSC5DKpucDOo7F8G4ARriJAUMskJ7GTmEaKDsqZBjiVReu8G0S9DZ7BmaSY/PBSdT0hixEktZpwzabQ6Mu/dO+quvwsa9+7Kv/eV+FRJu+qVS/fLEBQD4Y50Iac2n56EnUBVqSzdZT6ByBppvOxOMzW/XK2co9be1snp8NzyCBFLnNO9FsYKwcl883GwEejkmRu7OP87wpO9bGYO9PmqCnUdLX853438vI92t+2DaPHo9mx6MiAQ1JZrWQTDiH892wmj6OLERtbuM3HTK66KmQImKzuvg4dvW1lL7vJdJfAHDx+s7qbvfwcHrltfzfvuPCT6f3Y/H6Nw==);lineShape=1;strokeColor=default;movable=0;resizable=0;rotatable=0;deletable=0;editable=0;locked=1;connectable=0;" parent="zylOgOcTJYqcycn7VupW-1" vertex="1">
                    <mxGeometry x="1317.8241669839153" y="492.0228119589515" width="21.141646518429752" height="22.605760163326067" as="geometry"/>
                </mxCell>
                <mxCell id="zylOgOcTJYqcycn7VupW-75" value="" style="shape=stencil(lVvZchw3DPwavbIIXiCfHec/XGU5UkWRXLJy/X3AyJwZNmd6S2/SLjDDA2g2mti7+OnHw5fv93fB/3h7ffn9/u/Hr28Pd/GXuxAenx/uXx/f7K+7+Pkufvr28nr/2+vLn89f3////qVb9r/+ePmrP+Gfdz912rpT8P++fxBdlv8/+PXd/Onx+WDeXMpgLvXaXMS1ONkHVxuxzy55sC9K7JtrAe3JeII9H+1/DvDUPooLON9Axh+Lq2hfiH2SMb1hn5wny5+yywnsJRH76lIF++Cv7bN3FZ8fyPrkOF5/sCfzzTb+DPYs3HJ1Acf/c4FP7YugfXaR2ScXZbIvzpP1Keokgj2Lt9JcnZ+vLpdrew2YX9UVsr+ax/YM++aUjEfr2P5hbxnqyYCqxwSTQCOoWkTMgCIcImp2fg4hSeOTc4fiskcHZXNQV2EOG8ycOzTnYQ6FpmXzLiR0KGRITVyc903URbJKLbg4A4XUAU3nDtHFMju0kRvnDpYKAI1+POLcIY993RxkoNOVQ5uH1E8D9oYygn9z4HDU1AWYQ3bKHXTOt3BjH+oy6cb3wRJ4RgA7UxIbUsN8iIm/oY3nbQ7KJ20YAYeOHdMEtc2hzfmQ7Jxjx7L3A0Y3HBZX+Zjg4MmFJnWf9bwRRW5tBEyi5JG1Vw7ARYo9gsy6B9M8hx3Or+K7zdFneK6BZ9A8BwN0ZUNKrs3RVy362LJufGVziHSrOzDNKWf47NmkPVKAWqmDfQ1ntOFzI2hsJ0qcQ8Pglp26tiY6v8GWQciQVJFm2EIrGVIPhDk0bO8D2WkjGjovq0VXYcwk4rJ25CFJXfwyhzYGec7FbAABHVhoGNnzcATtuHDuERBdO/SQnTN+C0fKDiRXBBpjo7nMGXrz6MBgI1asqGwjlDkUJxB96ho5g+KWkQcHIctqJw7gjEWfZ2+wbYKtTryuWsM10I2zc9kDcfV044xbwKFluCDkDcaPYKcNF1htYqQQkSyMM+bcISBsKA8+8Us1oLS8bUj67Hxg5U9FGqqJrpEiVzecYuWYRQ2Mx9PzKmH1bydoJfYRiXrhJCAMTrHZW5gSlhFw/MV2mMxXsBrLHI6sWAISo4PnX9gDZudET2eD7BntjFVFMn4/YGHjbZXmvcekTGlg/pU9PN/T8nN5vmEff77M+xUDrSU9MmGL8ELXp4LaZFUTS+ClerYjk0HKKAKPdSTJ94AngdXOgdpD/AgH0YjrXylriWNyu9hRqTlkex7TuQAHoNeRlszJVSi8aLFpYA4lPH16Rp7saUVUkCV7KsMVLG48VTgU04qzJsUs2dLswhykB0+3SREDNxC6MM8BzBmpVIxgz/Wu9eks3hVZt1AZR7HQEF4FjG93cyZOFKzdeL1aFtGK6m4FhWShlLC4jDHTaABnTA+lY88YwJmbYxBQ0dYVNBeaq1rBnGHwUpP7GzEjGJHcPCyDYXrtoCeH5KNIsKx7JFM9Sb7MzRE4mPZgY19CjAIH6pU3YOlD5gW3aZMtLo4DKHUjhdSM53aigJ3w6ZluU8KiWKleEof4tx/y9IoLOWW/ESBLExZcilTPDFiGGQdiMSzLhUOjwofgkRD4eARRO/AazI8LywMHDZRTgqLcOS6tAaByTjytlud3jk7Wx+N+9RqAjqfBDZpQpUoGQz3UMKzmEdT0rUZi3CngflkNxmrOgCKs1XieXdkiTFkNyeab8AbZatTINC2MT6uBGfQUrBmsxmbxpqNC3uy5mF8XDSLS+Gyof/U7R6a7CLIo5Xi13w8eZBR2oEvGKVcZhdyVFAR1Xk1U9AuLDlmVKvm9r2CRs4RFacXSvAXKHqPHcqnFwVTOHQKKQY3rXzEtQyq3mh1QQeapHCvWcObA2kG6+ArybqXXc2np7+jiK1nWLiBXdGDi66lEzZh2XpXORlcpLzyrXwkyxPDYhNGlf35XgLGkvK1iYYoWGpT7BWQVbSvIzx0UpTkLbxYa+z3WIYGYdtP7DOANXKyylAfkq40yF3ueh5stHeF47iB4ltsgM8PiiHOokb8hYf+SrRs7Dfs2AXpXfmFYcKftfGCquYUa5MMeLFcOILbcUJEt+oGSlEzBuGPEvEpFhqZy7tCQ8Pfban69jSzp5n04bFwqgxhfOaB2G2idu18PbkSVg0CHXhDsElXPO6jMoRGFqjtNl+68xrsRF00l3Gh9KKhm9cqQN7kA/TcCyKSPljEfOsNkb0iorRj7YAS0LQXeDa3HgBFuJIPnV/SCF4xWg9FYWrvEKmUzhqSwrLJpF+cOC221MpIlkEEvdEreqDtrwd4hyVS1Mg4JwpIkqkbWgNKSUV/GNaofl64HB6ouKfIlEXpFr2kRJT2lDhpwlRolxqWh1lEpDyhLRm+S77n9Io6UWw2iiz1tiK2j+Nq1GnZl0htcofGJaju9gXa5NCHjXxt0Mz3PU0WalGm/Z1rK1cwbkmUUj7v0xQKuN0jDlSFtzekN2CitMbwOSwN5pHdWawN5pBpo7xxNH7EPY/kO42FYPerSw3Sp4Ntw9ROVZOvHzHUxp/choOwk2mW7dULv5kw3WrTtRNtwFOM+jUS7Mse+dC7jLz+DaHSq0KsYeZc2Hl2RNt/o0mHKIXzhffQi9YM/ELlpbn/sv0X59vj09P5TluP3+NsV++j9dy/x838=);lineShape=1;strokeColor=default;movable=0;resizable=0;rotatable=0;deletable=0;editable=0;locked=1;connectable=0;" parent="zylOgOcTJYqcycn7VupW-1" vertex="1">
                    <mxGeometry x="-19.174432943032343" y="233.40527571120356" width="345.9101961623187" height="290.8160335251573" as="geometry"/>
                </mxCell>
                <mxCell id="zylOgOcTJYqcycn7VupW-76" value="" style="shape=stencil(7VnLbtwwDPyavRIS9aLOffxHgCTNomkSJOnr7zvuQo7FdabNsUBvu16PJYqc4dB7SO+ebi4erg4anp4f7z9ffT9ePt8c0vuD6vHu5urx+IxPh/ThkN5d3z9efXq8/3p3efr+cLHcuXz6cv9tecKPE66p5LygNPw8XelNNP2+8vEEuD3ebQDVpNkEsCJaCSBJqxOgRdH+OqCsGxiAUqSQFUqQrhMgR8kkhpylzUGnIJFsKXXRNgE0Ss8EkKXMK8QmIb4O0CI9+RUK2ZKqxHkFNTGypWhS4xx0ldoIoIjNmc5JEgNkCS4PRmOI6hNXkLhCAcmVBupXCQDPm4MuaaRyHxBEgwd0siXQoc/3Z7ojFHf291fy/CK1nt3Palti8vcnQh71VEC8Ru5HVTZ/fyT7D9Lceaqosfuji5erRZDgno8M0v2oq9E+rrwSr84kSCaBnH+SMu9H+8j4vjxKcjQOlMbm8wXWKREWMMDRnsvEsvx8P9dSPK7PBbFmZP98zBNsVe/9em5DaNcEjBPY50sVm/fThhTvnz/oMRMYEmAkAHSvHHwGWEWYis2UhBQXkrJePWfAaqbU3c6Krow19wFdqqu6JolVUTjj2ZJ4ohNYopQ5b4E2AwThtD2pBMJkHFOeM50gReyY8vh5A2Bc6HEc+wbQSQzWvboAUMm5GlxB90E3QgeYLZfqFIeD2wdkz38IkhEBBqDMMSDTTCEX/+esS6UtyvDzrKkoV9aUDaLnYsi0KSBx0QHSsK37AKRJPcAYR8sohM2WmDmCrXY6iaAz0RkQyHeGSoUJAL+C/WkF511A0cA4jdbhyhsMYSu04Q025U0Zl30MC4HYseqQ0hWQaf/pYfjwzQqNcbpJKx4QWLW+FdCKRKetfFjASOViQJM2sgKaYp5dFVpQI5mGKQrOZpQhC/ttvUiYOb04abIlFLMzep326cVIuh1VbtzsTJYwK7Bp5GzeAR0Yf+KZdYC56URlYvJjZK7j2P4PSP8HpDVj/9aA5OYF1DQzJNm3hBxHRb1SD8F1hEzdMwrUaR2khr2gAo2zky7jrOy+RGOkZgH677bUxoX9I1L/MgjKYSTHeXXvK6APj7VPGh2c2po89o6te9onuAeiE7UMlmx1gtRFUz+41U49WzNvVI17NgxizlzAxTFzgee5xoyZg3VBO9NrOKDEzLaO4XoFGJ1h7GwkWUwZAwRvtmH72EDfuj9WANixIg8619JmWtxH1NExNkuwxgmHVLsHMP/Ssp8+X+z0PiCN4XRzrnQF9W4BgMDr+21v2v8CgA8vL/avj7e3p/8Ftr/7PwJw6fQnQvrwCw==);lineShape=1;strokeColor=default;movable=0;resizable=0;rotatable=0;deletable=0;editable=0;locked=1;connectable=0;" parent="zylOgOcTJYqcycn7VupW-1" vertex="1">
                    <mxGeometry x="1176.222375105201" y="414.457277910838" width="31.886607694937084" height="48.25524818922804" as="geometry"/>
                </mxCell>
                <mxCell id="zylOgOcTJYqcycn7VupW-77" value="" style="shape=stencil(7VlJchsxDHyNriiC4Hp2kn+4ynasimO7HGf7fcCoOBIwmlZ8ysU3aQZNglgbnJ1cfbu/fr7dxfDt9eXpy+3P/c3r/U4+7GLcP97fvuxf9ddOPu7k6u7p5fbzy9P3x5vD/+frITl+fX36MVb4dcAFqm2AYvh9eNAzhfT3yaeD/MP+8US+UmIj3zpx2ZbnSiFYgG7J2wAJxNkASqcGNEqZYjGA3Cm1bYC+rlalzFQ6ODNTFgNIhTI4dO3UrVWTUAOAllc78FTyPKB7gKgfwBl6pFotoFACKmkcRGslEUpoh0rROk6wp1WlbneImQoAjFCLFhAoA0+3RMUCWA2dASBQtGZlhjvU4oOvUQcb1EjNukETqm7La+xnlw3UgYnKko1HeRRHpVFjJy9o/UbZyucZV1vy4nKNGK/P1j6JBK/PLg+o4PO6qFaHCNa/OPkL+he7PsOkUflu7RmoI/lOsTn5ArJY5Ut18hnYpwYKfv0M7FMTJXHyAa3fZuE82ieC9du6bM0AOS+v4Wv1z7jwdgo2vzRAIqhZTN1VFIbdqYsPUG7TZFtVke0J9MiCAGFm7ALQoEI2rb4qSiYBZ9Aymm1QpwijqGk/df1P6xhiFRqm1kq5YBqieWnPUNQzIDBqpZosoMBms45srfUdqSQzEBaAch9EK8Q3TN0BBas2j7pSKaId4oycBZBh8CmAracrrr8KCDafx6lAAinAFeCKK6q+dkxH6RhjPzjGqUUtIZXE16RRBXHR4zUAx5J3nCYtogl5GvHk0FClvDrDhXzIPh+G3S4AnEoJezp7qqBPBPWG7EulhjfitHVF70YCYT+EdYoieqeUN/kdOgIonegekHE+pOytVFF4x1XwpUsA1+L0VLDyxZUfIiSp47XLOJ5227TSKh8KCm+ZVegEwDin3whY9biSIDMcldQx4Y6pVZkJuQAiTtE+69zJ2InKjLbdaoNPGpyER2O3saQjGxovlF45xyk/R/xT+ZXjz1znxLRFTpwfOM2OsTU6u/sCXsywRSldEei4FrdVi4Mjz+iYfmRDRel9xPv/I1528u8j3ok8+4GE8YindKo6eXRebcHsR7yG7mjYj3iYyGvNcuflgG++AjUHUDoGInRcmVoewp062kFD1I1sOAc4BE9qRWZbP7+FGsVWOe0FcIwUP2knnlpumcldfSWB933DEW6MLHiYD97Tqc0n/ziNZIaktgSf+xmrlFbBVGTeCJy/zmbfxAdtBn7gNjVebiQWXnzeSpNfLu1MYD/geTmwyHeq6Abfk2yVR1ecPEfSY7rhO6HgedHYAMqXlXwBCgVP1FQepXPw/UPTtYKoCz7ojum9Je/Wr7ChLbPlIl8gbwyzfZ3Io+ISpjUW+QwbZvAMTeXx+m/7xHRZXn8cv2fd7R8eDp/DTt/771/66PDtTD7+AQ==);lineShape=1;strokeColor=default;movable=0;resizable=0;rotatable=0;deletable=0;editable=0;locked=1;connectable=0;" parent="zylOgOcTJYqcycn7VupW-1" vertex="1">
                    <mxGeometry x="-125.4378755265111" y="482.06247883317883" width="106.4441495266542" height="55.37816681058666" as="geometry"/>
                </mxCell>
                <mxCell id="zylOgOcTJYqcycn7VupW-78" value="" style="shape=stencil(rVjLbhsxDPwaXwlRb57T9D8CxGmMunbgpK+/L1VHW4lrj1ugt7WXsxLJ4ZDSJty9Pj+8bDfevb6djp+333ePb8+b8GHj/e7wvD3t3vRpE+434e7peNp+Oh2/Hh7Pv18emmV7+nL81r7w44yLVEsDeffz/EdylPPvfz6e7fe7w2DPiZzMACZO1wG+kE8WkPk6IDK1dzMguOuAlEjmLUWhBLaUhTzPgEQVrFCd9SEIBRClWq0PwVEFAPHkZoD3PdDXAHEGcCQfwZY0JjOgUgFpKNKztASJpIKgVophss+UArB3xPP3mal6kOZCYU4CZ4rAg5StBxrTDEKkK6RqsyaAF+rDOwsGXsAgRQrzCkrVjKhaqJj6VPICXhRHMc5pqH3NywCmNPtQNKwYUOcVaiCHmMQ2cVoeCYRVfXh/3QHK9gy2pDHheUuiuUdcEqozNQQrgGZasgUworfW55w4iZQLpAaLBUSQ6ayyF1YrIB+U3mwBN0rakE+dRtKtwpqKzUNEWxLLJdF2gbYkXVQWQCUGwqo+ZLEAASKgUYqGfDe6ycKcASAoSpHczCV2jhwKk7cVpEvcoGvNFhAAXbUgSrRhglopVr41cxWpsZAzmcskuEZNw1KAQ6l2K24k6HTmzoShIGBYg+0oCkjAB+WGaRANgLZUupSOW0KAuqJrgnqfZbWlTIx8WGtlxrKhXDJbKn3K/E+ApS0vAO5ieFWNTc+qcGrVTJtRoDU5tELo09TQRguKku9ddmnUAtuo1kOendYwOBClNhfPBdRme1Rx3MtlmU5c7wCXR/XSXVzmH4YV1+bsWcj8MsdeBmTyc0fRMRcNTOqimbxVx5DwZZtoVWc8wZmOpccVIEol9jGh22OpV5rlbOyRwjTiz/6GPgtdti82xwWOJUNrGjIQAE9bu1yN3UjoVbDs6cr3mfRyjLIFRI8n0NB3PIzdAZVOtS06aX0jnjIVA8ADZTsdzTxSJqIjJQfbrNoKINO6YbH2SMG8reUU4eGH7Yih9vDmoNfVYI+O9a5Pv0MK0BHa9S422KMcr3idPIyns4Ws9qgOVoeYhM+3TLyyR41cv1atPc6vaeMqlahBhT53/OXN0L/eJN2214c/11ZPu/3+fOs1vrfXXPrX+Yos3P8C);lineShape=1;strokeColor=default;movable=0;resizable=0;rotatable=0;deletable=0;editable=0;locked=1;connectable=0;" parent="zylOgOcTJYqcycn7VupW-1" vertex="1">
                    <mxGeometry x="-125.46811981989867" y="546.790434797736" width="33.89278572941657" height="66.62552036170428" as="geometry"/>
                </mxCell>
                <mxCell id="zylOgOcTJYqcycn7VupW-79" value="" style="shape=stencil(lVZJcsIwEHyNr1OSRus5yz+oCgmuEKCAbL/POI4IknBjbrY0bc/S3VLHd4fVYrfsjDoc99vX5Wf/dFx1fN8Z029Wy31/lKeOHzq+e97uly/77fvmaXzfLYbI4elt+zF84WvERU8qDCijvseVZCn435XHEbDuN2eAYEjbEuAoxWmADZQqQCTmaYB2ZMuUFCk1HS/bVbwhb0C8peSKeK3IoB9EsmUFRueaLgJYkSszYk8elMyatCkAzlDQ8A+KC4CP5ADABLK6AERDHACAyZVdSoYiKFrHvH0254jmzBQq6iVYtHwu1sxjxDzyqSzZE4M560ybHB84N+1i/ImWp6FFUiCfJt4KjW7Jx/jMq3n1Sof/Vqb6WcZbqJthXmX/RTbg8y0hhOU3MS6QBk40ULrsjw7ksSwr0YjuHBhAK0sxM8ayrITvmRj0qLWWELMhzzSvmCgi4TfumAJMabBfX9kjNuDWsK8h2jNBuA6qbg8dSwpQtT3VHBnADOmhreyUHIgXK3SV1BR003+nOgE8pJ4MqRa/heIX79RlSmxJI/tVrR+JAQAqXUA4GT2qoknKu2ziM8sOLo9msrHlpCPDg7AdnQwfuUbLjcRZITPJd+VKNQMgD/83uOd+vR4vgOf79Y1PlsbbIj/8AA==);lineShape=1;strokeColor=default;movable=0;resizable=0;rotatable=0;deletable=0;editable=0;locked=1;connectable=0;" parent="zylOgOcTJYqcycn7VupW-1" vertex="1">
                    <mxGeometry x="-111.32162335790963" y="595.5741353457388" width="15.47753312601617" height="4.851729308522408" as="geometry"/>
                </mxCell>
                <mxCell id="zylOgOcTJYqcycn7VupW-80" value="" style="shape=stencil(rVfLbhsxDPwaXwlJpF7nNP2PAHFqo64dOE4ff19uF9qatHfaAr2t15qVOOQMqQ0/vO2eXrebFN4u59Pn7bf982W34Q+blPbH3fa8v+jThh83/PByOm8/nU/vx+f59+vTtHJ6+nL6On3h+4xLQrlPqBR+zG8kkuRfbz7OgMP+eA0IlJsBZKbMAJApFwMohVJbBwhTs4BaqPd1QBHqyQIqVbBD1aCjPZICCgAUqtUGHShFcKRGLRgAJwphHaAkFgtIkTqIgRuxPVIqFCrIQyF2R6oUQAxaGlVsaWge0A6Zyg1LiFYFuCNloSIAoCy54muUAK1ard0VX4QsxUpigy6JOtBDZBIroKKHBIBOOfn1ASQ6U2cfAYO0McXkKUL61K85SjOFtL4+UHPrI0WQ5OhTJpUY5FjZc4bEsOpUmlbLk4GBkoiBxBLEnToCyB1AAQzFNhK0HCkMdd+v0uiFI4kq8lQZlC+APAxn1YSt0qSTYC1np2UmRloW4mwBFftRHGldCht7qtLqKkmliVqVJq456fDoRWul0aIHCDiSRlj8iQLIGw8rWThSN0AR+ACyts7/uL755j+5AZJC9Z02pmE39wMONz0Epkw7TLMbBNg2p/zYmlApoUbefMfpw27uE9QHf3/JUC9+2uFMAmtuifDKUDMouq5Zcy2qQIfviZpNc1PLBju0G2nqJ6AHV4qWpt5hk9LBwCnhiof7lSSjSy5blOE4a3YRbRBNZwVAk45P9kg69aHM3eRNxZ9h42Rb2toIBazX8cu1nQzNJd8ZORs0L3Hrw1D3yuDi2uD0BiUgeu2r3wgQm/p1Yg8ICKC9P3tAQoBOUXwMAXW1SKl6khh1NR7D01UWIm7lyYpTKx15tgK6AxQ8XeRB4tX8EvAO/3gn/DNAH35fQV/2h8N8g73+319Z9dV83eXHnw==);lineShape=1;strokeColor=default;movable=0;resizable=0;rotatable=0;deletable=0;editable=0;locked=1;connectable=0;" parent="zylOgOcTJYqcycn7VupW-1" vertex="1">
                    <mxGeometry x="-90.00414329013847" y="584.916365789984" width="20.49840650650185" height="21.141516780201982" as="geometry"/>
                </mxCell>
                <mxCell id="zylOgOcTJYqcycn7VupW-81" value="" style="shape=stencil(lVfZctswDPwavWJIgudzmv5HZuLUnrp2xnGvvy9clbIASevpmyxjRRy7ADjw08f+5X03BPdxvZy/7n4eXq/7gT8NIRxO+93lcJWngZ8Hfno7X3ZfLufvp9fx9/vLzfL29O384/aFXyPOJ0rlhgru9/imUuG/Lz6P9sfDaW6fKTdlL4CYAKBSjQoQI7mwDQiB2ClASsR+G8COkleAEshXACiUs47ZkXcA0CglBciSBhB09NQ0IFbybRuQPAVdhtAoAEAu5PUJHKkAQGGq3tahlm3APSdTHSKFCACZYtVZYkp5G9AysQ66yAmgDm2i2gQokEutUdEx1IksW4CmY6iRGJ9gClcrOZClJuRjBWhSe8DWlijooBtTQTGIgDS95RMO1KG27sAMgOoglf6XkwkQyYMsVSGfs0E3BJC/F2mtiHyenE5rfRCDAHQjkzcM6lBDD3FGvoIEFK1LQm8IkKayaGQZudQo67QWTwWxdfreDNBA1xAiJBM0U0SaLrbdl4RPaMS6DqX1AbA+UJwjZ0TNWHLN5lUyXcGQkz5jRN0c1mgmr08QjTqkUV5oVLiBYnB9Bs41CvJayyKG2NOwRVezCQhbCmobqwDAb2FzMIKocATlZAuXJ8avj9Fog04BVjov5q5MxQxcSrXnZHLJUwXUSLk361kXcMAl8biZTpYhIGYKhhr50f4TtKhnmtrayZyhq6MKuOEDJdOZuB+6Tqbu8SytEQVN0WyVshAB/SwCkK0xgAAWPcY7uPG53oHuazRaG2QL0TXOcEL7RbR4he5DYFomYUeNduH2sHeJq1oyrst6XfV2FcZUa1SDMWd0H/G2CfmuhnV7tltt6B9Yt4921Ym9c6/bJ/KmP+Dr0f/evx7ay8P9svd2OB7Hu+L8f3s5lFfjxZKf/wA=);lineShape=1;strokeColor=default;movable=0;resizable=0;rotatable=0;deletable=0;editable=0;locked=1;connectable=0;" parent="zylOgOcTJYqcycn7VupW-1" vertex="1">
                    <mxGeometry x="-65.11510660920658" y="578.8748225315207" width="27.166037722219244" height="21.93088886496116" as="geometry"/>
                </mxCell>
                <mxCell id="zylOgOcTJYqcycn7VupW-82" value="" style="shape=stencil(5VjLbttADPwaXwlyuc9zmv5HgDiN0TQO3PT196XqyhVpa9IALXroTZY03iU5w6F2o1cf72+etpvEH58P+/fbL7vb5/uNvtmktHu83x52z3a10euNXt3tD9t3h/2nx9vj76eb6c3p6sP+8/QPX484KaR1QiX+dryTmIR/3Hl7BDzsHhcAe1y7A2glKQBQqbEDFCGp6wBVquIAtdD0cw2QmTg5QDNAB4BOOTtAz5TRCoPK8IBKDLJUmFoANKoIIFR8HfqgDNJqgN4cYAiMwQDNp3XoSwAOKxhZBGZp+KBHg1myOpTiAZ0UFa5SDzEMDMjURwQMBYBEw7NVmHEQTCPHJX6y5TK/B0mOUTewJz1RZ5FXxI3Uqasnk6k2QwD7QpjkGJRahYaXXLYtAVHnUxJPbYMpgRVMQaFy1qoGAFSh6mMo1EGSWqLkd4TrbDnvvvGdknb5fWOmL7MwKVhgQbQT4sTGtSU6xxyVBgBGNN9lxIIAxBg1SnrKEoo6U/VNIwkpUMNIkXoGQHWe+iJHAAq6X4oBbakb90fMUkFb0kgNMU/EgBIKp1A+BggxGJk6aN4WQwoGRBk0SrOn5OtWZ59fq0LzDaBAf7Myaw/vKwjYeDTi+wPRyPbv1daguZkShm+RYy7JqtR8fkybqENOPhOkZtJAEYzYj8RiQilqseEJHhnMvnMQglk8MB4rWrA2A3QE4HnHC0DDtGtB/Twneo3X50EnULhXA5qc9cg2a+my8aTotsZVBoUreZ6wFyN0ReZ5Zs/mjnCKMXEFNedZr2sA8YCWof4vTMRYoH9oIgZe9d9OxL4PvzwRhwH3r0zEJS7xbyfiSWCh3WO/MvvQMELr/JW59l3cgoJk/vC9PO4piedGqbC51vjRmoUSiJlnLi/aEsrR2fSZbEoBTOJ5clz0+gpaN1PxGbVG3IF4ZN7tYgoTkJ8UrcSGMNjzzubzAvdfI0ntfcSIHvNjAwA0z2i29v/oJEbO2pcBYEI1urNlCEnfNhzH1A4n51efJv0GwC5+HV7d7R4ejmdfy+fxsMtuHQ/K9Po7);lineShape=1;strokeColor=default;movable=0;resizable=0;rotatable=0;deletable=0;editable=0;locked=1;connectable=0;" parent="zylOgOcTJYqcycn7VupW-1" vertex="1">
                    <mxGeometry x="-36.99987755868733" y="580.2419540544165" width="25.346640011729505" height="25.27939762764072" as="geometry"/>
                </mxCell>
                <mxCell id="zylOgOcTJYqcycn7VupW-83" value="" style="shape=stencil(lVbLctswDPwaXTEkwRfOafofmYlTa+raGcdpm78PVA1dAxNt05ssY0UsdgFw4ruX/cPzbkrh5XI+fd/9mh8v+4m/TCnNx/3uPF/0aeL7ie+eTufdt/Pp9fi4/n5+WCKXpx+nn8sXfq84CdT6gkrhbX3TGon8efN1BRzm4w2gZarBADpTyduAGigkCxCKAJALcTYAyZRBShypRgtolMEJMVJgA4hBswyANRX2JwgDDsRi4zXHAjIisZR7pB634wNlW9MqkPGV3YgvhTrIR11hv58T/H6iYhXgQBXUp1C0rtMK1Lod3ykXK1ilDOJVYWkWUKg0AChesSgUgOliJ7aWSBVS0JoWqwGrS0FKS0ksh6KyA5MqoNkTaoYcNCXXONr8EdhOSTsOvVMEKWlZ3bSQQoIAiZIDyGC14QxXJI1HFFRn6zwdLhGpMES9Mi6j9zY6p7uSMjVgC+1MG1/DP77PNp9cqSGf+nxYZxOoZ6Zk45c3oD6N2E6K2KiBzo9aICvw0nqoM8Pg90mAjp5WPSCjYa0LzAGUM5h2RU3vxjt1EN/SGLbXTh4qfuxp8fsJbyddLrm6eAYeEvam0ASBh5aetSK3UbGP4xtV8QUNYN1oz7r9pBlBxuJNoaqjhXyz4K+NE8YE3zqiuh0ocIeLjiI7WtQnSGYtU7Iy1zLuAVs6uOZvuudQSkzRASoW4n+vg58A6MPf2+fTfDisl9fb//1tVV+tN12+fwc=);lineShape=1;strokeColor=default;movable=0;resizable=0;rotatable=0;deletable=0;editable=0;locked=1;connectable=0;" parent="zylOgOcTJYqcycn7VupW-1" vertex="1">
                    <mxGeometry x="-7.368342187834969" y="578.9441520583105" width="20.4307451612126" height="5.272160011098094" as="geometry"/>
                </mxCell>
                <mxCell id="zylOgOcTJYqcycn7VupW-84" value="" style="shape=stencil(7VjLctswDPwaXTEkQYLkOU3/IzNxak9dO+O4r78vVIeKCclr+56bLHNFPHYBkAM/vK2fXldDcG/Hw/776vfm+bge+MsQwma3Xh02R30a+HHgh5f9YfXtsP+5ez79fn0aV45PP/a/xi/8OeGiI+9GVHB/39+QC/9ffD2t3252Z+u5Uqjdeh+peAAo5PoNQiGfLwPUIu53iEyeAUDI9YCU4Q4pUvUdQCpFsIMkqv0OWcMAopQTcb9DERilksj3O9QEnVZALD1AyAOTSqRkABolZFKgFHtAgdTQmFiTChUHo5RyD9BPAJOyJ5csoACTRGPSm+Sda3xcRngK0W5RIyCTUAoWIAgQrIIUgDIXpyiexRWFSQURTJgyJQGASNmYJCQgSqkQ904XXDbEUelNUnrlBCUXem4UTxmRybcgTgDXVLsMyJSLBQgAjAoSCygg09VRFutDBFFSzWdvo8SgkikRak+NwpSAD2f0P8sc4veo4Z4bWsoYJEKdEAPITSIXw9RLrii/AV3HRBhAJQd8GFMtFuARN7ztimUKw0W6Jgt4Lz0XBRFtlFDBX5BcappaBmSqxqTYCvQyoM4EoY0XaZRJZnR1oDBpmzX1WwWBojR2iJmoM8j0qJd4F2BWXK+YVCMFnjmN6K1dU2ZhBfQee5rJA06cApLxQamBd7gP8Dme3DqeiAVcG0/MMH3DeDKbgD7Hk4UjxKwaB6Ag5lkf1VkAOB24GTCdCKZjy3LjZUsmrc8ZtHahaM5lTBHkLdiOdeWY5dp55MZz3GxuwAOfs3LmVvovWM/GevKIpK3dT8YTo2pE0usSD3o+NEl9rA/g8z6TsFmPRKzOxXzP+tz6xW32sG9Muc1fTrYt43BytorH2WJtNz3XMBnuvZO4vl4fPi5AXjbb7en+5Px/e2Gir06XLfz4Dw==);lineShape=1;strokeColor=default;movable=0;resizable=0;rotatable=0;deletable=0;editable=0;locked=1;connectable=0;" parent="zylOgOcTJYqcycn7VupW-1" vertex="1">
                    <mxGeometry x="-0.7237480071248683" y="561.2888104688318" width="8.598167889340402" height="42.61728514934248" as="geometry"/>
                </mxCell>
                <mxCell id="zylOgOcTJYqcycn7VupW-85" value="" style="shape=stencil(lVjLctswDPwaXzEkwRfOafofmYlTe+raGcfp4+8LVUPZBK319CbLXJEAdheQNvz0sXt5326C+7icT9+3v/avl92Gv2xC2B932/P+olcbft7w09vpvP12Pn0eX+ff7y/Tyunqx+nn9ITfM847ymVCBfdnvhPJ878bX+f1h/3xdn2g6Lr1vhBHAEiUfAfgQM6tA4KjxP2JKvkAAJk4dYDsSPw6gD2JdIDiqBYAKOT7oEuhmtcBkSmEDlAzCQCwhhg7gGTKKOhCJfcATyUBQCTps1TjI0A1QWcKIEt6pGDqUCgJCJrJ9dRIQhmQL3pbh8Qwrcm3ui4ArT1ga2aK5kiRIshSYWKxMSQAqJ5yX7icKIIYah3I54kBNSSQDIWrQA/euabIhRul8fH+mZJ1ARFisEXVvPZpkkoOkKmGpvkbQSCf0bxGo6AI06QAY0yauACMSY/EvTGJo4CDrv0OWsuESp2s5LQOEQhCn+f6tE4+AwB64sh2Bw9i0JwksQAB/J6ybnZQaoBKSxqo4Zt7rgHEUENFCAqnABODLPxdiyEZLqm3ASfTLBmfUXoXBHCDfQsVxNZqC3ej2vuIPChIoB1rP3BDEAlJLgwKwl1uktxQCIcU5AefWcxtDSDVarSiGNg2LaWrwxq1ktNWjHYozRlvAA6VWmyHmESNFOTbuHOzQ0b89rZDPABMMRhqaO/GXW6cNpBXTn20BxSdP0CWss5HvUaztNrfnwW4SXgBRDhX6hBXei7pngWYq46J1cyVuU3XawBb6UQejYlsXUBLidpoEDtiqWgDiGEa/8XWAc73tTFnyRJDxekbhBl1k4M7ZIo99zQLyCqDPdB0RPB8tdE+pwm63jAraX4A7XRE6EmkNIRPr70MQqvH/WRS7qvlYScMjb9tub79oRelNktcl3tAttQUfl2OGlSm5OzTkUOMZ0/Isuzs5eFEK2MiBeXd2SmHYSP779fsh+v14vpO/7Y/HOZPArf/228Aemv+fsDPfwE=);lineShape=1;strokeColor=default;movable=0;resizable=0;rotatable=0;deletable=0;editable=0;locked=1;connectable=0;" parent="zylOgOcTJYqcycn7VupW-1" vertex="1">
                    <mxGeometry x="18.20951698405679" y="563.2018618767538" width="33.46856067790168" height="37.17107802662849" as="geometry"/>
                </mxCell>
                <mxCell id="zylOgOcTJYqcycn7VupW-86" value="" style="shape=stencil(lVbLchpBDPyavao0modmzo7zH64yDlQIuDBJ7L+PCBnMaNmmclsW9Y4e3eqZ4sPb+ul1NQm/HQ/776vfm+fjeopfJpHNbr06bI72NMXHKT687A+rb4f9z93z+ffr0yny9PRj/+v0hfczrhSqekIJf/x7QyH9ffH1HL/d7K7iNZHGIV6EAi8DqlApAyBqf3MbUKmMJ2T7hC4DWuoZX0qwGhoAKGUZAKpUwzIgMBPzgKjWN1BEsJTrAGiVBPQ1U25jfKEE4gOVsQTrgoAmBQrjFFqglpfj7Wtj/rWRCmoRlXEI1XqKAI1y9S1NcRkQmcLI1JphSinMajAAqDkHUvUpZXBCYcrRF90ALYyYJfu2NqCe0ig5HgnUZ6len0aMhFKyv8eijXkFiCHrjEqVIjghmdwcoPW+3Z506XrvgCsB3kSYfNzOaHfoagD2RSioWmcHKDHYMTKrORODhJha8HNW0CPp6+cSz3Bf2PZxC6xSAh0NheJMnhUlVGZayFQrmLL6ERgAGUOyjMWnhPa8MdV5m8kzYWq7rt4BxER5HJuaFhC1o7eeon0yt9ta+8q6uGEkRcSTzsuL3zYSZG6B6ri5JVIFKZkUxybZzgPMm1lngUYYOml6eOrOuOCbjkSRGJDObKqNxQbs/Op9mbEKsl+OTAJkb3yQ4OLRopt7GkMJmGYau3gF/cm57/7P/iiym0CcfP+RnyUvSbMfkP//Xk/vx9vD5134ZbPdnq/S1//7u7O9Ot+74+Mf);lineShape=1;strokeColor=default;movable=0;resizable=0;rotatable=0;deletable=0;editable=0;locked=1;connectable=0;" parent="zylOgOcTJYqcycn7VupW-1" vertex="1">
                    <mxGeometry x="-100.95906568840564" y="650.0283369058866" width="5.854052493015388" height="28.010207323408395" as="geometry"/>
                </mxCell>
                <mxCell id="zylOgOcTJYqcycn7VupW-87" value="" style="shape=stencil(fZbdcgIhDIWfZm8zQAg/17Z9j85U606tdqz9e/tmZ0c0uJ47xP0I5JwEBl59bp8/1kNwn6fj4W39M76ctgM/DCGM++36OJ50NPDjwKvN4bh+PR6+9i/z74/n6ctp9H74nlb4nbmSKZeJCu5vngmZ6jzzNAO7cX8FVKEsBuBKrgKg9oAE8gkCbLeUhEoEQKSUDZDLeWYRKIl8MEDRmHwfyBrBG6Amyu4+kDxxMoB3jhwgYu7TVAsVkFcWCs4CTBEoF4RctKeOxHIf8IXYpikHikAIf+MNUW94AGSSaoAoFIE3AlOyeWU+p2E5S9yfQZcQILVuQOwZdJNoS9Ls3wA5u2XZTIHECqeJ9kDpSaauRiNVcAY1QhdBzeLBli5WazpkSsBLV25uRaqWRyFawTQzRRIQYirJzq5atkBqLfouwqUxLBepthWb10vrWZY6UOAeyKCCtDV625mm9gmUC4Wc3VLJMMIE1BsA2FW9JraVlQB7n3c9oMKhCLEvIM1zBPZ25/umNQ1tVEC2G+fFCC8g398O2hNQuQlVu752DBfA+q0ptnqO5JFmeuIuo9DY7KjY71UxdJV4EntifPWorW++R/dC4t7V3DlIB5cHx2bc7eb3yvX//QNFp+bHDT/+Aw==);lineShape=1;strokeColor=default;movable=0;resizable=0;rotatable=0;deletable=0;editable=0;locked=1;connectable=0;" parent="zylOgOcTJYqcycn7VupW-1" vertex="1">
                    <mxGeometry x="-105.1320391575241" y="638.8753124585196" width="4.67253977211476" height="4.665236216356789" as="geometry"/>
                </mxCell>
                <mxCell id="zylOgOcTJYqcycn7VupW-88" value="" style="shape=stencil(lVbLbttADPwaXYldcl88p+l/BIhTG3XtwHH6+PtSENSadDVobrLMobjDGS4neXjbP73uJk5v18v56+7H4fm6n+TTxHw47XeXw9WeJnmc5OHlfNl9uZzfT8/L79enOXJ++nb+Pmf4ueC00EgzitOv5U1OidLy6vOCOB5ON4heqVeHsBytbwNqpdQdYIz1o/8ESCPODtCVVLcBnKgPD7AzDPAF0uLiW6IKjsBU2cXXTq1ux2eSEJ9ptO34RKW5+CI0CopPPr8UKoDRFDvAhSrMX9WLohKDBuTIj9EjiM7QLiYBbBZinx0L1PSZQ/gAxfTITaEOWjUo+/BszQZSG6TBX6ZlEK+UAzcK3WX5fT2iVEBrB4mvpwxicN5O7N1udmbIvnr2q1IF+cta7Y0VBxADr+z9yW8MgPyZmpdyLWvDN6TfAz9t1dNGfA5WNO1j6/r8xjAahonEj4Zs/QL5c9SnyQ3SKeLLx6OZug+3yQW8Ve+di7XzofB57Hit2ZhC5djFEsq3AwkQj2ldvDqNzgrUYJdjtKNNfgBQuxxDA5gYnEFbNKQInP3aSbwDjIYCHKAjAkqGI0LvZlbpVFFJGvtgphwMRJ3ubNMYCtU+ERphKwGaEwZontc+4CAyQPKA0eC9ZLyGtUYzXGusc4FXa35Bd0eLe4EViRz08e3vfxD28HfdfDkcj8u2evt/XE/t1bLayuNv);lineShape=1;strokeColor=default;movable=0;resizable=0;rotatable=0;deletable=0;editable=0;locked=1;connectable=0;" parent="zylOgOcTJYqcycn7VupW-1" vertex="1">
                    <mxGeometry x="-92.51007184754008" y="651.6894798382077" width="33.19914016553503" height="5.0073039849444285" as="geometry"/>
                </mxCell>
                <mxCell id="zylOgOcTJYqcycn7VupW-89" value="" style="shape=stencil(lVfLctswDPwaXTF8gzin6X9kJk7tqRtnHPf194WqYWtA8npyk2WsQC4WS3DKD+/7p7fdlML75Xz6uvt5eL7sp/xpSunwut+dDxd9mvLjlB9eTufdl/Pp++vz8vvtaY6cn76dfsxf+LXgUiWOMyqF38ubSNL+vvi8xB8Pr1fxWYiridcXIL5mKt1+X0bGTUBrlGyCHKnLbQAroBhAqZTAknqlYLdcO1ySRArJADhQBRmkUrSbZqFWAYBJ7KZ7owg2HUOgEGwdGnECKYRyswAepby1puIydGpgTVIoZwsQKmhJgQp7QGdQOS21zXDFwzYiUag+BSM19RVNMgS5DahUq6epAHFwJkm+EAUtKVOzAtdSlwIAhdgBKiwEMwWxgDJ2tU3runK6K1QH/V7wAJhBW3KVoYJNS6JePACJSUlM7DeN6iDdW6XSmpENCIkDtHsAXksDdVAfLnEtPlCHWQhreWPv68kDkOF3pmYz3O3RvDIawY4vKzEJbjmlnT1NyPu0g/KqED3DHq3W8Wc7xk39YUCxS1I3RIcQp3GQ/wMESkBMTWm1cuUIra9litaOqx5zQEw6DHRbuNIG0ZuAkilbQFYaQAadRpy56jzTgfhi9eNGTFRApaPfc4Ene/CTgFLQUbg71fNw5hvhzYanwdeNtYu1yDhEuD3reQGFMaVsy4FqcuGoKcUPhkoV8HctS2MXj1xFC+vMN4xRYDtePPXaLYB65Y49O2iIVJ24SUSbC5D/0cH8frw+/L8FvByOx+UScf2/vzXoq+XGkR//AA==);lineShape=1;strokeColor=default;movable=0;resizable=0;rotatable=0;deletable=0;editable=0;locked=1;connectable=0;" parent="zylOgOcTJYqcycn7VupW-1" vertex="1">
                    <mxGeometry x="-82.64411255164714" y="634.3549485541603" width="12.251286142864956" height="49.814305195795896" as="geometry"/>
                </mxCell>
                <mxCell id="zylOgOcTJYqcycn7VupW-90" value="" style="shape=stencil(lZzbkt22EUW/Zl5ZxB14dpz/cJXlSBVFcslKYv99GpkC53A3z6LmTZfePATQl90X8CX99MfHX37/8BL3P75/+/rPD//99Ov3jy/pby8xfvry8cO3T9/tTy/p55f0029fv334x7ev//7y6+vff/9lSs4//evrf+YT/nzFxbqVOFFx/+v1X8JW9v//w99f5T9/+vIo37Y2RD4UkB9b20/y+9byc/kUt9pFPsP7pLblJPIBnp/TNorI7/D8Eraoz98ryPctZZFP4bl8zVuOIl/h+XVse5P93/tz+RbX4x7ON4J82XIR+ZFAvm31LB+3RO8zthJEvsN6u6nX+f3TlgbIx62dn5+3Hfa/56Uub/K0/71s6bz/Bc+316W+b/KDnt+2eH5+3Sroc+/r+Jd8Wwr1TL6fn9+3SO8ztnrW/7EO5FJ+7Kr/YUcFNYAYpAFoh0bY8nnFIWydfsE0+HwEwXQO9nTELcoa0h2gnDcp5DtAEysuvIa07fILFe3SAEn8etsG/0KVRQ8+OPOk5zVM1wuhYOSlaQfAnCv4XgNkAcQt0CvlrZxVw7wFRQMDyKLN/AOYjwEknJk936yhC6CigY6y4tEBsJBL21rU4sxEI+2SqdpZl9LOulSXyz0AcW3DM8AQp50x6oymUSHVtaprgLm9s3qnzn6pL1pzAAZbXFf1zmFZ+TVgbOm8aOMaAUKVAYTq5BuvMdYxHQAODmHfVZlyXz/69CfO3riYbvAixCBK2gqpqynnWZlK3SLpRldfaRwLt8k0QUJo2BK9UlMOVtOy2mf6LaS5mroSwLGq2tnkstKeFlYg/sGI0vJirs+iYjorU6tbA0B32mdcjlyfUQ2JikbmKnGltu3nXeoJlW+SsbMuGd0i9mnPk3OYLwmqYW8sRm18JRMfHnpwdjI7aKvtunjjGboJkJWBvsXJa0BY4eAAFMzxqnHQ8y5NhYdtrRaWZQ2WFrTnADN5BfSVR1ynbaZ85yBnfoTOwVypOIHB/j75xGrn1NBimqSe8ydAv9OuXH3GDAAYtxCjnmGMABaihh5EBoCRwiqAgiYXDot80L5Av2D57DlAmOdpAHBUoLO7N0Z23lTzCgXko67YUkbiuUETstbRE++qFZZSJ5QXvbOUPUE8dCG9DnRh+3LSh/zhZp/IS8JXmZW4/TFv0EGDohpB5SwgKg8rA8mnKeg5Ns+SDOhbUSZpzmnA/jjXVQq+T1vs5pDP6Ez7imA/Sqi2LHwqYgXDDFIZW1gh6BoQ3Q4FrKmYj9Al7MhFgkuSzN9nWLMlv5KhT14LAWf6OSkLtVUIuQZ0DcsGQDcxNOcxch7JDnb1pLlgqdNbTs6YSsYj/3jISMi1xKzFzhzx4Mx4gkuS0JiLxvG8L/9xDah6cBaoKaJNezv/gmWGGA+aBtnUMEDNitnZHixZpRqmASQEGoAMyABDFs1VhjjUyRs5SfRKQ0srKW2VVGNoXTXF9ZLPALqGiCc92dGZdaaACYkBRPlSuPuFJLu046InoChgv/kFX4uBc7gAWLr7XgCZ6AWA1fsSQMp3AaiLY/04gIo3/uDMjxAHM4CWGsvdwYkumS+kHGkqwtkJTOJBrnIsVvQAoDxvWpz8QkTVMEDJCgjkW4fG6Zk/MCBK84Zr9QaQsvVsh9EuHVz/oQpNgX361qgAyrcnv5I8r2+ZfyGcFz0r6RyBdA0NqxIz5ZFXqki5DSD28EaIngE0uWUDMoPUnknBZNgATdo4mU+6auPQaCOVAGLV4r4RUyLqF63tiM54Vualt33k008BVQE3u6Td1Z0pXHU1Bk6u3BsNVr2qZfGOtHjKS/aMpVWvFsf8wFO9k+wZi8P235KNVUx+puVoe5WqFyYv7qVgCXPavqQ+2ICazkUoOiaT3t1lTOanAxYWxmR4qD5E7BomV72ImLiZfNP2P72/MTptY3KJLWoGEzDZNnm1YEy2k6se3T6/qzw5OWPhQoID08G0Wq4P+0PUK60G6sP+0zhOUvuK2NOa76/6Qxnn3B99PmV3c/9Vfyh4m3xy+snysp8Ry8ymn0PlyR+mQ33f5JG9hzUt9XBetP9OPqyE++n7OPsi2hu0yhGwn+j3M6xc+Ol5SZDfCum/0wdmsF7fAmeASf1nWKz8B+3F9pPtPeh6qfzu7T1ifPH+JOJsgPdXPM7lx/Vu/P/75Z0/ofg744XaO9U25+SDlARuM9Eu8qT/0bfs8fk+/ua79Ef79TgeF7vuf8H9Mfms/Ao7Vt11GzBeRzfH0bhu5XKrtsr9T/mbdIfQn89UTOVvni/dqtvqpOPnyOfbexOGKwB5lAsAU5oJcHnYDUcvVQGDZ4x9aoh5WFsk6SH5vMmHpTg5WxC0aDdmaflwZkCSX6g4OGwAXwSg4Z7oOhSh4XTczAWGAiiYzdxRzqHjmIsBpNBtADzpsaLjQ/UG+fcxff1QULopTmolcL+LCGIPFpJvUhpZ9ORo/As6EhjvqpnDjTXesEZl7YnTpuAKrNxaMkAWHnv0UZ8CmgKQCQY3KH5TJL4CYBnaA24K3VcALKV7wE2x/gqA+Z8HDO6BBNf42bEC4lVj5vC8BjHR+QhuB0jNZGYlRGr3xYkOwA1L3XXAb/Ji0tZdDcgAN65SeMmcDuLCTJHWUrnzrdrXPCYRnsaHogBkAm7yIHGP3JOx1Llz2rR/kMZdgVVGCPOOs25zYkr6y4H5kh894IzEPKlUNDPPZ0znfla+zFdM3m7oHIDClXEXsnLFLDgMJSeZOxQWxsWmc0euMblLVwDOlRU3ejBWX/4akJT+lB1Lm0Y6hbeWgLUp48GSm5eIlwPmTZegAMoeuhtV4rljd/euZJSvWmwtBelY0WJKaXijI6t1lo6kOGnzoAysjkTtgNaAPaWg+1m5eh10FH2OuoGS7mvM45Bv2FXe9e5dHaiiuzqvFnGEKCihbwWDf9Csp3W80pDUTXS+DFh0WLoXbHE7r9I7csLgFjwvg/Fgmdy+G2mNiz51dGcVGoXnYoLGwNGQWswJKBmu7kzA3ACnAbDGn9XRzTFjAhwd8wcAlQAsgOk5DAzLeWjZewycgCpF68y2aMroq7P90dAWanWDzBVbG23XQVRTDSJg7b2j0s3dsxpMU+cksuwSt4v6ruX+sWMc71G5ee9s0n4cuy7Sdw1wHe7Oly1705JtD6h8fWgG0wY2HYdrUja+/zCiXiJudtJ0HygpxWt87X5eIzy/Uu3rKK8BRe/5Vj4H036poVVOefydvRr43qEbpDG6QMMAo+so+rw3wrfXxJGVxPcO/WW0nW/JDh1dm4PHfD9OxuNzvbuBJxEoMymZ9+Mkg0nr/s4zgLJ/vpc1fJ43cPJmNCUCieseoyqzSje3ZKuuwaIeUQezhyYZfUQmMJ27q0rQbM+8Syyts8F3WLPewLsZjhnuWwVz3Id/Qexh3lambU2u0pgxxg132yImNtF0UfykwD7vpQuAp3yHY62Rbx+Y95Y4HW6+cRC1/jRpI9mDm0IIXIoZR6J5AApbXNA4bdSXUs/hboqFdAcQR3YzfjdcthS4Ln7x6YiAymeBXWcO+TJBH9oNH9ht7F2ZA+e3Rk00rGPhpvuYi/l5d7cnKn+8I/vuMH5MxNW2Cn88Jbor70vRn9JP/ZgL1Xja0OYNR7bmepns41txbQ+c3mn+Ox84XTMvebtpFqrXZN3PgNM+xeknf1xpfswoijy9T3af+ODLz/NjTEOffzONo++Pc89Do03gAffuOp48317d5Dae78XQM4/DV/8xpht57QnfTTzrADPfSajaF+HpwTn8oe+P9bvqpzdvpn+1aY76fCWP0zjVRRgu7tSLaTTWH/fxLKqvvfvja7fy9oe3L7399unz59cPxT3+v34Zzv7p9aty6ef/AQ==);lineShape=1;strokeColor=default;movable=0;resizable=0;rotatable=0;deletable=0;editable=0;locked=1;connectable=0;" parent="zylOgOcTJYqcycn7VupW-1" vertex="1">
                    <mxGeometry x="210.4550131361052" y="247.81756566806826" width="376.85513127518334" height="591.6604586033914" as="geometry"/>
                </mxCell>
                <mxCell id="zylOgOcTJYqcycn7VupW-91" value="" style="shape=stencil(7VrLchs3EPwaXlF4P86O8x+ushyxokguWU7iv3cjDOhFY7cp33zQTeJu72JmenoaIE/h3Zf7D5/vTt5+eXl++vPun/PHl/tT+O3k/fnx/u75/IK/TuH9Kbz79PR898fz09fHj5f/P3/od/a//nr6uz/h3wuuJVNbR3n77f9Pmknlv09+vwAezo8bQK2mhhkQTbLHgNLG5QHAI3w7BmRcjjPAmeyPASkb5yZAScaGY0CMps1B5yYBIZs0vyFHU7IAWFPKDEAMIq0eK04TIFUTRZa8Nz7PADsWeQRIfgIgDUUUzgcT5iyFMsiyD4gmzkEHZ7xI6xq0z7IO/fLMJW9vAcIctEOlowRUAlTjVOGKiXUGlJGGfUDlwrlsWhWAZpxnQFFBN6Z3B4igwdaaOAYrqBGuDbkNWlAjgK2V0+rVG7wpBEDhRJZCGJe31BB1AMARwBmnRCCM510BfjziqA6UpV57VTjoEjVQNlmk1S3UiMiSkEoXFiELg477cm/aIq1N1C0x9WoyTjwfCjA3Q7Ojnw7uz/NsaN5koXrJxFkwGlRNr2dOKKabSmhkUe3TMAkSmbZMzyaeH7hvMLCdEu2RjVfe75hxfT3y/lCXeMX6oSyV86/EzjI/e73k8zk/GHOivnaozvV+Jwe5HVZlw8+m1H3h/3WgHPCNlBd2qYr8OLTHTKAM5VUdH9mJJDd6Yh9QeWQG3cLgBE9xjAfRA0hSnJvYeT3FwYE56DRM6KFNmGO+0vZonFEEVo+/wqxwsuljMHlm3Q1RacxqkEiJ3JKfarISUYwhGt/oArEgDIlKnqVKKwh7HGn0WUkiAEi4ek5FDDtvCLJoawyoghetnMNiNpPxosyw+DQsO09V0Hb4uK3/VYW+7s02bygKUAcxN0Er/UqFfRfSWjUgzM3cNxrCbALgKQYnRxQAibqt3QqaHTbSIPQCaaWpADubdeGo4QBQdhbUIJ9wC+CHhG6XpMi3aEwPWvV05DrcSCsAVIcbhcuLOerUEHUAgD28Jh+CDtRxoLcqnGflvtFA+boneH2LtsRvUCIAtrIuJWnJAWBd0kL284BkApGvDWnbB6wbyDR0ZH/CZfbB7srffYBjqYQTUkYVpqXO9K5ynuCynXWsyI3Cj5G8MTFNH3ZEIoaXScXlOq+oH0OJJaFINBJTkBtUFIm2wLmNQh65z0L21svty9t27W279itv1ywrY22Sb245y0aHCR8cOd4SpDmCb6fdnZWqBdWk/WZMt06MqMP6Sdvbket65OoY8Hbk+usfuSJLxKU+xtUbHNMbaVAHNr3SBGiarW34xU2LRjX3K2cpecnWsBiFlKXKhzr24leA9newa0QNWHWnN3mN3JRWDVymFi1Z7hUqKr1IsRX90JZZCK1XbG11Gc5hnKXtA0CEuacxbb3IUlu28wCovQIAtFeAX0hK7u0y4Rr0WQfRaEQX2XJ9TZYBTXgqAOhrwp5pDaAOwifqexQ8j6w2AOrbV6yYZKOnQb2hcAdtMr2PyGwdmj7p/elv5l8BwB8/fgjw6fzwcPkdwfY6/3AAH11+dBDefwc=);lineShape=1;strokeColor=default;movable=0;resizable=0;rotatable=0;deletable=0;editable=0;locked=1;connectable=0;" parent="zylOgOcTJYqcycn7VupW-1" vertex="1">
                    <mxGeometry x="557.2631726061668" y="697.6288846942284" width="60.399018825782605" height="50.038977120707386" as="geometry"/>
                </mxCell>
                <mxCell id="zylOgOcTJYqcycn7VupW-92" value="" style="shape=stencil(rVjZbhsxDPwavxKSKOp4TtP/CBCnMZrGgZP0+PuO6267ouxJCvTN3tUsyeGhkTZ69Xx/87TdpPD8cth/3n7b3b7cb/TDJqXd4/32sHvBr41eb/Tqbn/YfjrsXx9vT/+fbo4rj7++7L8ev/D9hGuS8hGUwo/Tg5yllF9PPp7WP+weV+tTkJpGQJEYLwM0iYURYNLrZUCuErp3qfXLgBInC0lyuwyoWXSMQZtkuwxoWUIbASqJuNSalJHWVKSSoFuXOLoUuzRCaytiNgJUCgMk0ZHWJqaEJPMGsuRAsgCOyuhQWJ6cBViREEdApaRakDJ6lKoocSmDwurzbIQjQ4hj2mAzJRK0+hhQjIWxqr70auSFAcBooQXJxCVUUh8toFRYv3VdXi+AHkVZ+6D0xkrqsEkyjX6bAZUkribp2QNYHkBiG1nqyDSLIfo89CqNxRCXblkB2NxDDHmcSr1I5qXRxgbqJo3FYFKzBxhjCSGaByjpuNqn0jDaQC0uHq9jYJMV5V09S6z4MIo1+DywMQOAFQ9opPgAcKO480mJGMJUrZH1dFw6eAUoBIA85MlCJ7TW6lmKAdOYtZxJUm+CbUAo19kntkGgIWZeqQXQNDV1ZBb+zK1VqpU1dZoyV5Y95p3jG4DAAOaVAxqi8B6NU1NnxhIm42Thd2b+DwDKobuxkfgWhE1zbDnoIdYQoLU4bYJdkUk+5GF0CZ8IxCWbVGhJVC5l9R0EKcA2akgLrxG5qMRrZwEa0ZgwVp+4aAtv54OOXsLVpcnPs5p8CFH6Gzp6TBufMZAmbYwY0oOshzIxJ5bo/oZu9wTpEtFZwGoormU3QWDGOSkDnwoDTLJYjZ81kt/Vc6SVWqZZjxOZkakHWdwdAJOblTaODpMsZoUXi+82AJjQyH4O50ZZTdMhlPcaGAx+PRNvYcpBpQFj4AW/PtHvhyllTBAHicWvj9Sf4tYb/T522u7XJ8q/jY2GI3onk0W9LDzeMpDvmz/0YL2R/JZlt3jn+n+99Xh7PX78vWK52z08nG5o1u/9lQwena5z9Pon);lineShape=1;strokeColor=default;movable=0;resizable=0;rotatable=0;deletable=0;editable=0;locked=1;connectable=0;" parent="zylOgOcTJYqcycn7VupW-1" vertex="1">
                    <mxGeometry x="635.4439883671521" y="692.0279546070628" width="25.351588616126264" height="72.78977803979978" as="geometry"/>
                </mxCell>
                <mxCell id="zylOgOcTJYqcycn7VupW-93" value="" style="shape=stencil(lVbbctpQDPwav2qkc9dzmv5HZkIKUwoZQtrm7yPqsYuO8Za+mWMtlrSr1Rniw9v26XUzBH47n47fN792z+ftEL8MIewO281pd7anIT4O8eHleNp8Ox3fD8/j79enS+Tl6cfx5+Uffo84FYr1ggr8MZ5UoVb+nHwdAfvd4QpQG7XmAYFCXgeUSiX2AA3rgJxIO0CmKOuAFEh8So1JASAyxeQBjSKooVERF69KCuIzVfbxdUrxdkIkxcczVRAvFHx8E0qgYCZR31EmBiTbWy+KXCFl1m5fbypQE6HvZ7R4UG8m9vFBiRMQKbXs47GChKnFHpAqAEQquc8oMwAUYu5LVkSxjY3XaDINRQBokwRm0mxUFQKCT8lGnwHLlhJ3ssOjL5mkmwOsUwmUPQ82OBkQrVT8B4R5avRtN+q7qm365MpkqudZI1SqmacnoaXpZGVyks+n2hcBadzLqAgpECpTDl4UuD/S1xt18srb3kvSxZuGQP6FmncWO0GqVmq+P/ZFNDb/G29WUT1hJtqGCuaF904aXNtm0nkXJWC9y3WJCVvuY6YCBLFc+AJXgek9dU4HCda8sCESYCqXzdhNJCnKp/UWYdaKdrfOxjwXEOHt4MpCZlGHaYHeizCZVCTrRVJJpx23WnY3yIUy4nneFrNTBNzYBXEmRWRdS2XUeY3eKb1/3DXvANjD36vty26/H2/G1+/7q7Adjdfo+PgJ);lineShape=1;strokeColor=default;movable=0;resizable=0;rotatable=0;deletable=0;editable=0;locked=1;connectable=0;" parent="zylOgOcTJYqcycn7VupW-1" vertex="1">
                    <mxGeometry x="638.9133702902363" y="749.8362036050057" width="24.17215256088957" height="5.934675988074105" as="geometry"/>
                </mxCell>
                <mxCell id="zylOgOcTJYqcycn7VupW-94" value="" style="shape=stencil(lVZBctswDHyNrhgSJEHynKb/yEyc2lPXzjhum/y+UFXKJiRtJzeawhrAAgtwCA9v+6fX3cDu7Xo5f9/9Pjxf90P4MjAfTvvd5XDV0xAeh/Dwcr7svl3OP0/P0+/Xp9FyPP04/xr/4X3ChUgpjyh2H9NNpFz+Xnyd7I+H0519cuRCZ8+eqtsGSKTYA6KjHLcBWSj0EaVMAjwUId97yJ5y3gbUSuI7QPXkPQT8S3EGBIqApVooGg8Jh5QoGA+ZcgAAtwipkhfAUiIRC6gMAM7SOgIASzmuhZQAwFHyi6SBB8lrtIJekkQ1LgoHQhIhTrY1HKi0FAp9SKVQAQDtzVJ7QCYHWkP1IH0dtJQF5FDYSlQBAbCkASS2AEF6YErGg2CAUIqWJQYhjZ3Th6QNj3LwTgeT6T4mqdiFAaRG3GYSC416BOA2JGZAoYw0qv290GhGpdbZ28/KOx62usnMe3WBRtnYr9EmwSAJVQQbD0IRiVRaK8yACJvj04AUrYRyogR4jbpSeg/i4Q7SNRp6QFTNgenqi9Uc5zYN1wHE/djwukZBRIvpXeCaXqgnQy24tgnmHU0MgmcqvXloA2S9Xo3rmZsm1XWdkeup0eiA8H1oy/5mz0ABXlXpjD2SmJYqs7H3YMBrusXaoyeY5huN6CmDfAM3+d3YR2v5s0/C/9vr4fb+fDkcj9Pz9f67fa/q1fTWDY9/AA==);lineShape=1;strokeColor=default;movable=0;resizable=0;rotatable=0;deletable=0;editable=0;locked=1;connectable=0;" parent="zylOgOcTJYqcycn7VupW-1" vertex="1">
                    <mxGeometry x="666.1065190992413" y="738.0994959328691" width="10.558184448170778" height="24.567421941945213" as="geometry"/>
                </mxCell>
                <mxCell id="zylOgOcTJYqcycn7VupW-95" value="" style="shape=stencil(lVbbkoIwDP0aXjNt06bl2XX/wxlxZdYVB93b329YBjRFgr4h5pCTnJy0Ba7O+82pKpw5X9rmvfqut5d9gS+Fc/VxX7X1hZ8KXBe42jVt9dY2n8dt//u06SK7p4/mq/vCT49DBzZ1KGd++zcOHP2/eO3jD/XxJp4IrBHxBoyZj48Epc++T24+PhFQEPHWgFMSlH74e0xgh5T3AQmSFQDknDgPsGYscUAEB9EqKSKQLJoSBA3AlKMAJAcYlTYhkKRUOkhK1RHBZwDug1I1OfAoAaVadLCQpHJlAEzzAM9NlAAWHxWpWScrleuqUijxcGddCgmMQmkK8KzMU5QcQVCE64omOd8sZflMW71qoE43OXvsH+X71xaOhMAuTF4mAlhlYXSjLReMHd3xoHnQQlA0uONPHwE1u01WACGg0iReMraURfMgaV2ivIhUDjln92Rmt6hS4kVsJKWbPjy4upcQ08OBSUVFO55N7ySALa1MB89C5h/eY05xKJ8GJCmloFIKw+yMynFKxT9sN7mJaVTmbvz0bAjDWnss3vMBpvCf8EFUJ29SLx+4aaGh2Rx59QZgx/5dF0BUGjqdCVT9/+yNZDmeH67Xn119OPS3p9v/8+sSv+qvWrj+Aw==);lineShape=1;strokeColor=default;movable=0;resizable=0;rotatable=0;deletable=0;editable=0;locked=1;connectable=0;" parent="zylOgOcTJYqcycn7VupW-1" vertex="1">
                    <mxGeometry x="667.0909308382275" y="724.9860821935913" width="5.932560392085179" height="4.027835612817398" as="geometry"/>
                </mxCell>
                <mxCell id="zylOgOcTJYqcycn7VupW-96" value="" style="shape=stencil(lVZJbsMwDHyNr4Qkaj13+UeBJo3RNCnSdPt96RpqIzEeJDfZIiVyOENq4Ju3zcPranDm7XjYP68+x8fjZuDbwblxt1kdxqOsBr4b+Ga9P6yeDvv33eP8/fowWU6rl/3HdMLX7FccxTB5OfM9/7HGkDG/v+5nj+24O/FIuW5Xj1KoxGWH6MiW3sGkZQfvKcXWIcIbXKZieodYQA7Eto/Io4iopP78nEFAdbfa50IM7C25tggpVQjO2htyLUCRyTGy70rmBQGH7EOLD1uIp6XELYlSReysPVPwbb4U7bJ5oNSa42gy2TZ6Qxkkaw1xy89AFgjAOuJOMp4MQocptRc4oQ8ol5zX4eMd1KR2CKJSgOgUUsvQxGQRQ1XSOVC5CtXiq0qXqqbaCopIkaLkqurLOCetD2uy43SWGlyjmSjxgHyVJoO0YqAZpXmOlMIVPUW6EuoRqmdJBZEopZqtPVfZLbVc14kygGhUh8bmegIwJIMeMUzGL9vrGWaooPDVkDTwfD2G8RAWLfkWTksekEHmlel7XALxl0ShxUcaQABqEfF1cpyaNMqgUGhnKgs/Af9P3iV/XZErBy/1CIIDSlsFFRPGSaUtlfeAeBrYnMijG1TlpPYIJ00NCTIgblz9BLzEQxb/b871uN3OT9bT/f6NKr/m9y3f/QA=);lineShape=1;strokeColor=default;movable=0;resizable=0;rotatable=0;deletable=0;editable=0;locked=1;connectable=0;" parent="zylOgOcTJYqcycn7VupW-1" vertex="1">
                    <mxGeometry x="683.3700775892676" y="724.1119716465373" width="25.50419541330575" height="3.776056706925374" as="geometry"/>
                </mxCell>
                <mxCell id="zylOgOcTJYqcycn7VupW-97" value="" style="shape=stencil(7VjLbhsxDPwaXwmKelHnNP2PAHEao2kcOO7r78uts8mK2p2iQNFD0dt6zVlR5AxJaRevnu9vnvY74efz6fhx//Vwe77fxXc7kcPj/f50ONvTLl7v4tXd8bT/cDp+fry9/H66mSynp0/HL9MXvl1wEqmmCSX8/eUNSfn54v3F/uHwuLSvJNzZKxVgH4VYO/tQ5xVXASlQ6h2KgULdBmQh7T1KhTJvA0omjh2g2Jp5G1Az5dwBaqLStgEqFPo9aCIBm9ZCGjpAY8oKAI1K71JLVGUb0MKc1ldApRAgIAyACqJkHsd+000pgsSpkg6AFmGUqnOpUUR5sKiLByDyaaA4rNAAoKoHBGZiwD4j00tQlksggFBuHlAQXXnIXCMBiSg6k3ORiArYVwo18QBBkisUe40amTJwyQTmuDExHtSZOqww0QtFybgWPADVGRN1ciuYIICCjK4jICPJMaU2AAC/TfOSPQDR1aIu6jedgeTemLPIQwSZXtB/UcoCqhvNh8lKD6NSVmeXFwAFPlmYvIIslzgROgCQIFbqt8yf2CJT1WEFsOnahlImcy63BJGDj1IBqTbJNRdWCwNyyZrgoNGG+2hRD0A9qFbvktE1ojwMTcsEoajg2yyQPCAjQJvJvAQgBUXi0SXE1jJvcblpxFb1I5w5yVjUjT1AQXGduqabNhj20XUAcukfGU+Gzv7Hx5Nxdvg/nvz18cQArlO3DJucnTmaA7wSeB0gvqMYW5BGs63Qlw1LZQKbTlb6+kzbmihKdpST3qVU5zfrZ0X2By07yilIXPNRDViiVlpdi4P+DJOJwELMvjXYqQ6omb36rd2Crw9HxDD3ifVs+WM0UwFbNX5WZ44kZk3Nf52BeRAfGlxUQvLzFM/bWbd/Vd+bPeqAoXnBMzwsWKyrIxoFMOkY0QI7+wLi89uXKr+0t4e3G5y7w8PD5QJo+b+/8bFXl9uieP0D);lineShape=1;strokeColor=default;movable=0;resizable=0;rotatable=0;deletable=0;editable=0;locked=1;connectable=0;" parent="zylOgOcTJYqcycn7VupW-1" vertex="1">
                    <mxGeometry x="688.4154051950172" y="700.4064954087412" width="13.346875518578145" height="62.89368915673049" as="geometry"/>
                </mxCell>
                <mxCell id="zylOgOcTJYqcycn7VupW-98" value="" style="shape=stencil(7VjLctswDPwaXzEgSPBxTtP/yEycxtM0zjjp6+8L1UNZhOTN9NRLbrLMFUFgFwCxizevj3cv+53w69vp+HX/83D/9riLn3Yih+fH/enwZk+7eLuLNw/H0/7L6fj9+f78++VuWjk9fTv+mL7w64yrlGUCCf8+vwhU6t8Xn8/Lnw7Pi+UhUGzD+kI1gvWJch6/nyggQKVYB4BZVOU6QCLFMABioKAAULvFHZCkO2ETEBNpGQCaqIXrgMTEPABypsYAkIhHk0ohASalQjweuppJBQAahTEOjbvfNgEa+vdmgJICkzT6Q7dMGVDJAGGkXisUEwAItdFLrfY9rwFS8oCMD51HdjfzGzKJqYgHKI6DVg+oGQBq98ksIGZ46okbxW/RQCCSUtWVTZiuJXlAQjvELuEFgBG/Y08Si8gl5CahMgrCyFRB5GyH5HZgag0DRi9VpYTP0EbJlQb5bW5NLrfOeeEaoDmAUQN5yQwY45CVGjApJ5KwAoBDl9CpNgNal/k2wAThzhApg0PXTDKSr5hEAKAFT746J5JtQFtxKcBMtlDkjBBYRm2L7AAmEQSopE6jqat2G5A9+yx/ZyBq+3udvxlww45Yiweg0m4Cq+xNQrmvtpVJSoIAxXcb5qUIRG1k8iUlQo0awB9aSBBdixe1kSmgM9RVcmUSFGmmNJpUG460kAYPEFC0zIlZPSCiHfIGACnI6O2auKk9wQJK2bsVZoHmE5O5IYFeYKqBzqQIGyA7g1dc6qLdBhRSF2nFh9buxAUAZrK46jYy7GfMiWnV9aGqaHHVVZpRQA2jN68SWQFxMAGFVaosaIdNANoh+DRjKlfg1qI+0lZREjDJamAZ42A1C/X32bLQGAdrBZBJmn1BsVYggh0M4G4QtgPSg1rqdYV67mW3AVagRsDUMIHMZ4CySpUMyPdx5eiAjyvH/7lyrMgErxxCwVUUoysCWKhXRY5BRYmt596F5ArgRsz+UmOJCTV9Ufx4JhfYh0ruPpmHJ/gGIewlZ5GB3bf2VDoPgKRnz+0i14c384QpQmZoLzezHBR+X3zHV6Hc2JcrgSFbXTUEVhLus7DLfC/Dr6tfjprV4KdKc3K6stzNlKxGga+LDxTDq2T0xHknafmGkHtF3C7J3u8MPZM7yS/L0bCg+CrAMB3W3q9fwgTvRf825H13uT1c5skPh6en8zh6+b+fP9ur8+w63v4B);lineShape=1;strokeColor=default;movable=0;resizable=0;rotatable=0;deletable=0;editable=0;locked=1;connectable=0;" parent="zylOgOcTJYqcycn7VupW-1" vertex="1">
                    <mxGeometry x="704.5423633377732" y="702.5489428456744" width="33.440498525817475" height="63.89738764150252" as="geometry"/>
                </mxCell>
                <mxCell id="zylOgOcTJYqcycn7VupW-99" value="" style="shape=stencil(lVbbbtswDP0avxIyqQv13HX/UaDpYixLijTb2r8fPUObxTgn6Jss84i3w8sgD2/7p9fdwOHtcj593/2eni/7Qb4MzNNxvztPFzsN8jjIw8vpvPt2Pv08Pi/fr0+z5Hz6cfo1v/C+4FIhHWcUh4/lptAofy++LvKH6biSz0LKnTxHChkAKpXYASJTKbcBRT0gB6hBCxXpXUgkAFArce4ANdwDaOkBTDUAQKFYe8Adk5hEe4A9ocDpRMGZVCkkENZMwh6gFSSutPdWgMq3AUmJxQMQl1KgUr3TGWiIiVLwYU1Ag1GtOqeFAghrFJK+HIwaKQJAptyzVZVGkOnElHryaSYGXDL2R6chNjreqrhYPIBBpueKCx6AnLaKG50PlgcQVot6dYDSAr0NUJKeGlqhSWOwJuG4wbAgTEV2qTavQVztt7i2kUkB++bG5EwynSDVpZL0qbYKKggQWoE1wCoO2+QYWy9dqUCNJskVwAgO2GQVUdWHiUFcreaiazQCG82nAWIjyg250pK/CeDsyZSZGJBpTJR7p2NsudzOXIvhvzGa2hTblL9it0LqGS+c/VSBv6OfbwmWTiLuu6rg4Ua1Z/VIFdhusSw94wIpeJ5tdiYnjxqq2eMmIS4ZyX5dCO3i1tAp6uQr4r/6ZYHhjLquSIGtMWU/lxO0/7Mr4X15O/zfP1+mw2FZX9f//b5qV8uuK49/AA==);lineShape=1;strokeColor=default;movable=0;resizable=0;rotatable=0;deletable=0;editable=0;locked=1;connectable=0;" parent="zylOgOcTJYqcycn7VupW-1" vertex="1">
                    <mxGeometry x="758.1108732473899" y="736.1002511529837" width="6.535596736104253" height="23.799708322098468" as="geometry"/>
                </mxCell>
                <mxCell id="zylOgOcTJYqcycn7VupW-100" value="" style="shape=stencil(lVbLbsJADPyaXC2vvc8zbf8DCShRKSCgr7+v0xDAG2LUWxI8OOMZT7bh2XE93y8bwuPpsHtbfrWL07rhp4ao3a6Xh/YkVw0/Nzxb7Q7L18PuY7vo7/fzrrK7et99dv/w3eN8AUwdivCnf0KQ+e/BS1+/abc39SmCj6reMaQ0Dchx+L9LAwcUpgHFQ9QdmIDRABRwXgF8gBRNQNKcI0J3OwmIEEgBkgdnkZYOqAAyhvNL3gcgoOYgY8hlGhAzhKABBbwBCCIcjwAGB++hhNErGdbgAOxq0mgoTcKB67GagDAY4UY4NEgLoOTaGtHigOA1QMznjA6cgbVwYm/LGj5D0qS7BTLMJxSDdqtDk0MiiNqtjkx7Z4aohXPCytoHAq91ECnJmFLJgHqnvUzJ2GmHIqxuEUT8By0061ggZpMEayEyDdk2Naagx3Sdw5QQNSCbHUTqOlyvc5hyU6W1ZFU2WnQAHgEMv8r34BwrN2Oy3OQkN6qwTEBWWNb+TmjmPUOuQsBBctP1OATpxUkEaNZXzhOvWp8TNwTEJTLckM33JRgtjxtS6r5R6+CWwIjW7kjo6ReKUAy+MtDqY0XmMneJqG39wKNYJx6akfrfI8njerm4nn9W7WbTH59uf6/PS/KoP2vx8y8=);lineShape=1;strokeColor=default;movable=0;resizable=0;rotatable=0;deletable=0;editable=0;locked=1;connectable=0;" parent="zylOgOcTJYqcycn7VupW-1" vertex="1">
                    <mxGeometry x="758.0784415025896" y="716.0882607822014" width="5.370679749350074" height="4.495231664090625" as="geometry"/>
                </mxCell>
                <mxCell id="zylOgOcTJYqcycn7VupW-101" value="" style="shape=stencil(lVbZbttADPwavRK75J7PafofAeLUQl07cNzr70tVkGzS0SB5k9ccLq+Z5SAPb/un193A4e1yPn3f/R6fL/tBvgzM43G/O48X/RrkcZCHl9N59+18+nl8nn+/Pk2W09eP06/Jw58Z1wtxmlAc/s4nOVCt/0++zoDDeLwBtESRDaBGSmUbUCr1YgCtUOFtgAbA1QCmIPs2QJhatIBOPW0DYqVkb4ghUAjbiETFVqknShGEtHhb7ZkY+I+Uu61RpQJSDpRtAi2SgIw1u2ybJtRAD9Te+i+ZOrR39ckNDkVcslvttT6C6umGLlVqDfWr2vhTpoaGlFKz9oUE+G8U7EynTgn0t5PY+ue0dPz9+igHbMIlwoGLdxNROsUMAWJTqBVSoC+kXUdOlQC0TAdArH2nClIu1B2JBWaciZ09LqlQFu+fgX+mwD7+BCnQnMwJlLlA0dW/wBEKXlJKowwpL5ZiRSNEorho7M2IRhA/U7H1VwoESEnXL6UYgwFdBeeGwkiCPmuvj0Bmn3AAAFkl6oMkTo2aZf10giiQPcekLLR+n2PBF1XbGBGJ2U8FlhXlSLU543ey5+X6q31E/svCqWs8FfSg67No41GlB7re293DTQGIli4Ovj4J7h4KcLTXjBnRLNwRWaUv45jcejMtPKgJmoS9QbQMYIy0StlxU5Y7t9rgFih9jxHZPr1mfgCgH9et9mU8HOal+PZ/vwXr0bxBy+M/);lineShape=1;strokeColor=default;movable=0;resizable=0;rotatable=0;deletable=0;editable=0;locked=1;connectable=0;" parent="zylOgOcTJYqcycn7VupW-1" vertex="1">
                    <mxGeometry x="777.1093221225997" y="728.328732525215" width="29.570761928354386" height="6.406412804365118" as="geometry"/>
                </mxCell>
                <mxCell id="zylOgOcTJYqcycn7VupW-102" value="" style="shape=stencil(lZfJctswDIafRlcMwR3nNH2PzMSpNXXtjON0eftCVSWLsPV7dKNpfASxU114+ti/vO867z4u59P33a/+9bLvwpfO+/643537i6668NyFp7fTefftfPo8vo6/318GyWH14/RzOOH3yHEkHwbKuz//d6jUfxtfR/lDf1zIe0eRG3mh6oC8UPKNvCqosg5EJq4NEAo5oCFFyq0G3XF5HciVODZAFoplHShCpQUqU+B1oFZK0gICja6FSm69WuCVBg2uBTLVCIA5TAsg+HVA2AZOEgnIDAnTjRdADQBIdwABblWfeLE2MHCrVBs4BXICgFCuNg4eAOzclJwLQpBfVYWxWmOJ/KpGtBWqRzAC9MrVAhnkxhCIbAFBkQsWWPhhNZvYqqjAsZqvRSyQcM1FsX6VBzWXLBBA31AgG0B3kIZqW5kCDhdpMF7KFFGo3VQwC8CBviGeqgG0SIHRErcCmcq2K9WtRmu3DlvcOmTzTXdFgbvm5jI1kA1bgVJuspXJgwLSoWVKrnpKQEPKdgYVRxkUdfR2BqU0Dcr7o32ur3lSV3LArZynITi/BQI5UNNz753bDJMDJjjyrQUB3uemdftpqK6Is2l6sNE727YZdhe2k8dRBeH1NqXdlB/3gztV1FWcwenZmqquAqYW24UeDAP7YNPLgNM16CxGPoD+wBrGYOQL8nyYCukaKQ+ybOuT+bG8Lq7v87f+cBif98v/7Xtet8ZvgfD8Fw==);lineShape=1;strokeColor=default;movable=0;resizable=0;rotatable=0;deletable=0;editable=0;locked=1;connectable=0;" parent="zylOgOcTJYqcycn7VupW-1" vertex="1">
                    <mxGeometry x="783.4167439985472" y="704.4227064589322" width="21.845935866095715" height="64.8394759535845" as="geometry"/>
                </mxCell>
                <mxCell id="zylOgOcTJYqcycn7VupW-103" value="Text generative AI" style="whiteSpace=wrap;html=1;movable=0;resizable=0;rotatable=0;deletable=0;editable=0;locked=1;connectable=0;" parent="zylOgOcTJYqcycn7VupW-1" vertex="1">
                    <mxGeometry x="1005.42" y="-100" width="120" height="60" as="geometry"/>
                </mxCell>
                <mxCell id="zylOgOcTJYqcycn7VupW-104" value="Imgaes/video generative AI" style="whiteSpace=wrap;html=1;movable=0;resizable=0;rotatable=0;deletable=0;editable=0;locked=1;connectable=0;" parent="zylOgOcTJYqcycn7VupW-1" vertex="1">
                    <mxGeometry x="1175.54" y="-100" width="120" height="60" as="geometry"/>
                </mxCell>
                <mxCell id="zylOgOcTJYqcycn7VupW-105" value="&lt;font style=&quot;color: light-dark(rgb(0, 0, 0), rgb(255, 255, 255));&quot;&gt;Page layout&lt;/font&gt;&lt;div&gt;&lt;font style=&quot;color: light-dark(rgb(0, 0, 0), rgb(255, 255, 255));&quot;&gt;Page organizer&lt;/font&gt;&lt;/div&gt;&lt;div&gt;&lt;font style=&quot;color: light-dark(rgb(0, 0, 0), rgb(255, 255, 255));&quot;&gt;Page validator&lt;/font&gt;&lt;/div&gt;&lt;div&gt;&lt;font style=&quot;color: light-dark(rgb(0, 0, 0), rgb(255, 255, 255));&quot;&gt;AI Model&lt;/font&gt;&lt;/div&gt;" style="whiteSpace=wrap;html=1;movable=0;resizable=0;rotatable=0;deletable=0;editable=0;locked=1;connectable=0;" parent="zylOgOcTJYqcycn7VupW-1" vertex="1">
                    <mxGeometry x="1337.45" y="-100" width="120" height="60" as="geometry"/>
                </mxCell>
                <mxCell id="zylOgOcTJYqcycn7VupW-106" value="" style="shape=stencil(lZzJklzHDUW/prcZOQ9rWf4PRYgyGaZJBUXZ1t8L6farrnfx6pR6R3YDVTlguLhA9kv54bePP/364SXH375/+/rPD//59PP3jy/lby85f/ry8cO3T9/tXy/lx5fywy9fv334x7evv3/5+fX/v/60Jfe//vX13/sT/vuql0PtWynHP15/EENM//vB31/FP3/6chKfWcTTeCxeQp4iXguJzyHi//+6S/EaRjyJp1Bh7T3EchLPIcOnzxDPJ2ObqY/FUwz9/PE1VPj4ZB93lm+hNpC3X59323H5qYdZRL4vkB+hd5GfJD9DTiK/JspPXT/KrzCqynewzBRK0/VHkC9hLJGv9Pm343i7rwX2UGLITeQT7LeU0M/nU0OB8y/j8Lw3++zgWzWF2EQ+gr3VFtr5fnPosP5m9q/ydJ6thVlFvkAo6TEs/fwC++22/qXy4C/d7G2qPESTUUIb71j/cPeVjw+4Dj8xDJUnf5n1CE939gD2P0co5/2avYE9r6jxsIUI9rksukaRp3iyaogaHwbYz7L7Pa9nHA59LW/h45y65mFQ1/IjrLP9WISPcAFrHuu9KaQjZF8rLM2OlhMo+ZpCP7twqmHxNyzJkCNEShox6i1YHCY3sK9QN06H4T5SqJKGK4KCfa7i+CNUuoihkd1i8YBQZ6Yhrl8qX0TTXGbRGG2jHrnrpmDnRtZd1TZqZve0dHY271oxXpuC5KfKCd8cWjZd54HXHimUcwSzHDHA+lbSU2pPNp00R7USFt10PH59U2i8pHiArJvC4LC63KbNawlmzlAk7iUEOha4owCXGhpserYD+N0UBnqcpZJ0PtYRMZfPWyq+KZQjOj9KbvV8SqMjehlT0cXgYx1dN22LpIsbVWOlnRsBjFEUUNnNTLiHkTQjLs4oBkmaKCQ0b7vXdT5W8/JGJZGd0jl6W+ChKqG7KmTnYYJt1W26Y0LpWV30LXNfKyQtFCwBVEaSkkYtxUQwje3BXRUQ207FbqawwJYsqOimFxpfc2hysT+0fkTSOwWK3hYY6zny3YGDa416AOy/rJEVk+1FUZGRFDy8YaLrKsZQvVPI8A2W06K7OkqLljXVSdk4LC/rpieijVo0y5mBN9pDdnswc6EleY/omBYNvaSlChluujh2weIGhePSQ5JTquhCBtmaU8ikkDXgW7CsVHEntW9DOAO+IS+tCCx+T8AzVpIUOdaImzYknM5ePdmB3kiLm8LEe/Ak22Soa2Wn8DCWRzPYktULgistU1NltjnHMzY2OFHAvJMHD+OoKR5xYUIVGjpAMqwpeTPyQY9dK9TDIW+YbB3ndq2QFd9b7sZNJ0WuPWMeXXrRlvaI252O32ohEThR6tiqAVqP4592fUJhUjFozVgcF5W3oIYE4BEcbvIdUXTS/ZaChXHS8yy3n1zKR61yN6EB52mQWwr1jqkzKr9rJ0wQ3fFDmd3YMQ37BCA4xoO5uGMmKEfdsPVNfqJLuv2mfoSNB/ISqxMTYlFDRCoH+H4gL/ZjIYAI4eTOJyGETMoXpojFdjpIl1tu4n6FAq8neUZXPw5O5oF4XiIewbdyaNpLKPjpU2gFRkOeGU3Y5ZK1V0RzRdde0cyKCztYF1QFEIWRooLdfGSNB+LTtdyoblLeIXGJootJx8k+Eu8qDvbejnO7E8d01aeKg3s0dY+E3YmmBSW3OpvmhhQaVZNevOM1Dd0q+WrT+jwhlnJsFdNhTRmMjMVUO3ztL4urEfBiql4Tb7WqEfBBakX+5JqcOBtB1WtiE6tqBGzATT+d3UOT5TPne59rD40zHDi0sYPZ48KbqKx0vYTERI7/9MFb1bVT3+HiZKjJ/W7x4lrEeDKCCTLWtlUjcEGisSohxvDcsq6mYSQ8NGBXBJPlcM03CBFpuEAhBJOwRcvZG7nyAP7I2ju2z7Km4YGDL1nnXmZIcJBJmdGJRpC0il1c6buAHbGX4oo0A9kNNuuGLhJ3/aN2U1PBrrYbOrIihIucKuvhqaCoRfIuoiB+xOO390UaFo1ynvuEueiSCJJxRMztdyNY/HyJIXsq6D1Fl5kn7dcVUVbkRyL4NOqUgkk8a0DePCpGBknLZWFYq64YyUgKNNeV7rj+oee5x4rgfqeCllaRYV1uiGuifLqBoDsWjRzY/Fu+obdjkOQREygu1icPxrlaYKSjzHrEZgpZP25l3CO+VEDDGJhKfZgYCxuVF1GdoYAZqjjOrBgYfek5O9ItezxUljSRzzRb1US2EDHnqbO268bJXSss3cNKSNGUpDNdi2dcdw+kqwIZ3+6yuA4zciPdNSp5LrYMDWGLebUdsYoqICkRtcLczStCill5icXU6e7YST+N+andE3QK5KJvYfROgTyu3lDWTWFiFVN982oiQN69WdfDTlQN5KO3dadALQ3fYN7DZFSJNY3eW4Eqjq7DOM+WNFybciG2NgXJD7u/TBnUjb/t/jIpLK2dt2nAHnrUSdknxtfThQMtmrjwrdbOo/r1YFDvfJqaP5Zk1TQ4avSuSGa3i+kbxlE430U+GqDeDT0JxkwEWBqXtr0lFEpZw41PTC69LO8PyXEVezSjayCzPJ1oDy7HGRKgY50O0Q9+17AXIPCncJ+yaGwdPHY1Helndx9pmq3raPq2XziljSzkG9KzqUJpeTceY9mTZUIojGcKwtK2xmO5yXEQBdPucnNalgCo8jcokqTDHDEumYKQu5b1KE9vDz7fg+XVJ0OzwnVY5qYu2J5qFx4oP5sUFhc1fNNoLNdRpYUfvljolVPajWm66aGYr0QMZDtBSRU9kO1dbpxos2s8RK6POxIb39JjTTxvsdzMXxqIZjayONvSk36wKWiDuiANvaYjxRM/eRj6nm6zW3TTbkZjYct5uSbA5CDjQzFfc3ZTMvyiws0I8JDZfgNz/vyKE7z7jY3Ei6MyeJTc1JkZAVy86aJgcfUGicjR/cZJ30QR9rx6Q4XyF2+06Dyv3oBhv+zijRlVq9Vl8oJ5eb+R0zefNMZeHLNSkTIoxb8RxRGlqK9AGrK12QMRzE57WOA9bzh340vfXBEv5N9w8mT2Jp50rOMJUaXMFrO1Q89/YBmSul8PTvU1PZ/ObHBxsA7rqB2+9c0e9dumjlhxi6tpdM7Y96nqjNz8K35qgPiH4sax8OVa1kgbn8wPyfBWRJCV9V4jxgX3HCZikyhrCRTRS9zsU2Ta0b/BJw7xQpwaPheLoQh7sVUalbo4SJw99tfEzRVnBPy3D6pbDE60vfMvKzwRt3+8/RGHXz59/vz6NyDuf69/9MF+9PoHI8qPfwI=);lineShape=1;strokeColor=#006EAF;fillColor=#1ba1e2;fontColor=#ffffff;movable=0;resizable=0;rotatable=0;deletable=0;editable=0;locked=1;connectable=0;" parent="zylOgOcTJYqcycn7VupW-1" vertex="1">
                    <mxGeometry x="955.9742082602788" y="-144.68385432163382" width="578.0572321815343" height="277.55356066560176" as="geometry"/>
                </mxCell>
            </root>
        </mxGraphModel>
    </diagram>
    <diagram id="SSQRCvD1XfuPS520MFl7" name="Componenti">
        <mxGraphModel dx="2483" dy="1879" grid="1" gridSize="10" guides="1" tooltips="1" connect="1" arrows="1" fold="1" page="1" pageScale="1" pageWidth="850" pageHeight="1100" math="0" shadow="0">
            <root>
                <mxCell id="0"/>
                <mxCell id="1" parent="0"/>
                <mxCell id="15" value="" style="edgeStyle=none;html=1;movable=0;resizable=0;rotatable=0;deletable=0;editable=0;locked=1;connectable=0;" parent="1" source="13" target="14" edge="1">
                    <mxGeometry relative="1" as="geometry"/>
                </mxCell>
                <mxCell id="23" value="" style="edgeStyle=none;html=1;movable=0;resizable=0;rotatable=0;deletable=0;editable=0;locked=1;connectable=0;" parent="1" source="13" target="22" edge="1">
                    <mxGeometry relative="1" as="geometry"/>
                </mxCell>
                <mxCell id="29" value="" style="edgeStyle=none;html=1;movable=0;resizable=0;rotatable=0;deletable=0;editable=0;locked=1;connectable=0;" parent="1" source="13" target="28" edge="1">
                    <mxGeometry relative="1" as="geometry"/>
                </mxCell>
                <mxCell id="31" value="" style="edgeStyle=none;html=1;movable=0;resizable=0;rotatable=0;deletable=0;editable=0;locked=1;connectable=0;" parent="1" source="13" target="30" edge="1">
                    <mxGeometry relative="1" as="geometry"/>
                </mxCell>
                <mxCell id="13" value="Componenti" style="whiteSpace=wrap;html=1;rounded=1;strokeColor=light-dark(#000000,#B266FF);movable=0;resizable=0;rotatable=0;deletable=0;editable=0;locked=1;connectable=0;" parent="1" vertex="1">
                    <mxGeometry x="160" y="110" width="120" height="90" as="geometry"/>
                </mxCell>
                <mxCell id="17" value="" style="edgeStyle=none;html=1;movable=0;resizable=0;rotatable=0;deletable=0;editable=0;locked=1;connectable=0;" parent="1" source="14" target="16" edge="1">
                    <mxGeometry relative="1" as="geometry"/>
                </mxCell>
                <mxCell id="19" value="" style="edgeStyle=none;html=1;movable=0;resizable=0;rotatable=0;deletable=0;editable=0;locked=1;connectable=0;" parent="1" source="14" target="18" edge="1">
                    <mxGeometry relative="1" as="geometry"/>
                </mxCell>
                <mxCell id="21" value="" style="edgeStyle=none;html=1;movable=0;resizable=0;rotatable=0;deletable=0;editable=0;locked=1;connectable=0;" parent="1" source="14" target="20" edge="1">
                    <mxGeometry relative="1" as="geometry"/>
                </mxCell>
                <mxCell id="14" value="AI Engine" style="whiteSpace=wrap;html=1;strokeColor=light-dark(#000000,#99FFFF);movable=0;resizable=0;rotatable=0;deletable=0;editable=0;locked=1;connectable=0;" parent="1" vertex="1">
                    <mxGeometry x="160" y="-60" width="120" height="90" as="geometry"/>
                </mxCell>
                <mxCell id="16" value="&lt;div style=&quot;&quot;&gt;&lt;span style=&quot;background-color: transparent; letter-spacing: 0.32px; white-space-collapse: preserve-breaks;&quot;&gt;&lt;font style=&quot;font-size: 13px; color: light-dark(rgb(0, 0, 0), rgb(255, 255, 255));&quot; face=&quot;system-ui, ui-sans-serif, -apple-system, BlinkMacSystemFont, sans-serif, Inter, NotoSansHans&quot;&gt;A content generation module for text&lt;/font&gt;&lt;/span&gt;&lt;/div&gt;" style="whiteSpace=wrap;html=1;align=center;movable=0;resizable=0;rotatable=0;deletable=0;editable=0;locked=1;connectable=0;" parent="1" vertex="1">
                    <mxGeometry x="360" y="-60" width="170" height="90" as="geometry"/>
                </mxCell>
                <mxCell id="18" value="A design/layout generator to create responsive templates" style="whiteSpace=wrap;html=1;movable=0;resizable=0;rotatable=0;deletable=0;editable=0;locked=1;connectable=0;" parent="1" vertex="1">
                    <mxGeometry x="160" y="-220" width="120" height="90" as="geometry"/>
                </mxCell>
                <mxCell id="20" value="Image optimization tools" style="whiteSpace=wrap;html=1;movable=0;resizable=0;rotatable=0;deletable=0;editable=0;locked=1;connectable=0;" parent="1" vertex="1">
                    <mxGeometry x="-40" y="-60" width="120" height="90" as="geometry"/>
                </mxCell>
                <mxCell id="25" value="" style="edgeStyle=none;html=1;movable=0;resizable=0;rotatable=0;deletable=0;editable=0;locked=1;connectable=0;" parent="1" source="22" target="24" edge="1">
                    <mxGeometry relative="1" as="geometry"/>
                </mxCell>
                <mxCell id="27" value="" style="edgeStyle=none;html=1;movable=0;resizable=0;rotatable=0;deletable=0;editable=0;locked=1;connectable=0;" parent="1" source="22" target="26" edge="1">
                    <mxGeometry relative="1" as="geometry"/>
                </mxCell>
                <mxCell id="22" value="User Interface (UI)" style="whiteSpace=wrap;html=1;strokeColor=light-dark(#000000,#99FFFF);movable=0;resizable=0;rotatable=0;deletable=0;editable=0;locked=1;connectable=0;" parent="1" vertex="1">
                    <mxGeometry x="360" y="110" width="120" height="90" as="geometry"/>
                </mxCell>
                <mxCell id="24" value="A simple form for users to input business/product details" style="whiteSpace=wrap;html=1;movable=0;resizable=0;rotatable=0;deletable=0;editable=0;locked=1;connectable=0;" parent="1" vertex="1">
                    <mxGeometry x="560" y="110" width="120" height="90" as="geometry"/>
                </mxCell>
                <mxCell id="26" value="A preview/editing dashboard for customization" style="whiteSpace=wrap;html=1;movable=0;resizable=0;rotatable=0;deletable=0;editable=0;locked=1;connectable=0;" parent="1" vertex="1">
                    <mxGeometry x="360" y="280" width="120" height="90" as="geometry"/>
                </mxCell>
                <mxCell id="33" value="" style="edgeStyle=none;html=1;movable=0;resizable=0;rotatable=0;deletable=0;editable=0;locked=1;connectable=0;" parent="1" source="28" target="32" edge="1">
                    <mxGeometry relative="1" as="geometry"/>
                </mxCell>
                <mxCell id="35" value="" style="edgeStyle=none;html=1;movable=0;resizable=0;rotatable=0;deletable=0;editable=0;locked=1;connectable=0;" parent="1" source="28" target="34" edge="1">
                    <mxGeometry relative="1" as="geometry"/>
                </mxCell>
                <mxCell id="28" value="Optimization Layer" style="whiteSpace=wrap;html=1;rounded=0;strokeColor=light-dark(#000000,#99FFFF);movable=0;resizable=0;rotatable=0;deletable=0;editable=0;locked=1;connectable=0;" parent="1" vertex="1">
                    <mxGeometry x="160" y="280" width="120" height="90" as="geometry"/>
                </mxCell>
                <mxCell id="37" value="" style="edgeStyle=none;html=1;movable=0;resizable=0;rotatable=0;deletable=0;editable=0;locked=1;connectable=0;" parent="1" source="30" target="36" edge="1">
                    <mxGeometry relative="1" as="geometry"/>
                </mxCell>
                <mxCell id="30" value="Deployment Tools" style="whiteSpace=wrap;html=1;rounded=0;strokeColor=light-dark(#000000,#99FFFF);movable=0;resizable=0;rotatable=0;deletable=0;editable=0;locked=1;connectable=0;" parent="1" vertex="1">
                    <mxGeometry x="-40" y="110" width="120" height="90" as="geometry"/>
                </mxCell>
                <mxCell id="32" value="A/B testing and personalization features" style="whiteSpace=wrap;html=1;rounded=0;strokeColor=light-dark(#000000,#FFFFFF);movable=0;resizable=0;rotatable=0;deletable=0;editable=0;locked=1;connectable=0;" parent="1" vertex="1">
                    <mxGeometry x="160" y="450" width="120" height="90" as="geometry"/>
                </mxCell>
                <mxCell id="34" value="Analytics integration to track conversions" style="whiteSpace=wrap;html=1;rounded=0;strokeColor=light-dark(#000000,#FFFFFF);movable=0;resizable=0;rotatable=0;deletable=0;editable=0;locked=1;connectable=0;" parent="1" vertex="1">
                    <mxGeometry x="-40" y="280" width="120" height="90" as="geometry"/>
                </mxCell>
                <mxCell id="36" value="Integration with hosting platforms" style="whiteSpace=wrap;html=1;rounded=0;strokeColor=light-dark(#000000,#FFFFFF);movable=0;resizable=0;rotatable=0;deletable=0;editable=0;locked=1;connectable=0;" parent="1" vertex="1">
                    <mxGeometry x="-240" y="110" width="120" height="90" as="geometry"/>
                </mxCell>
            </root>
        </mxGraphModel>
    </diagram>
</mxfile>